<?xml version="1.0" encoding="UTF-8" standalone="no"?>
<svg width="34px" height="33px" viewBox="0 0 34 33" version="1.1" xmlns="http://www.w3.org/2000/svg" xmlns:xlink="http://www.w3.org/1999/xlink">
    <!-- Generator: Sketch 3.7 (28169) - http://www.bohemiancoding.com/sketch -->
    <title>Amazon Copy 2</title>
    <desc>Created with Sketch.</desc>
    <defs></defs>
    <g id="Buttons-&amp;-components" stroke="none" stroke-width="1" fill="none" fill-rule="evenodd">
        <g id="Tryit0.0-Copy" transform="translate(-1161.000000, -437.000000)" fill="#000000">
            <path d="M1189.3795,463.621491 C1189.21366,463.619557 1189.04391,463.658237 1188.88586,463.731729 C1188.70831,463.801353 1188.52685,463.882581 1188.35515,463.954139 L1188.10345,464.058575 L1187.77566,464.188153 L1187.77566,464.192021 C1184.21481,465.62318 1180.47446,466.462535 1177.01312,466.536027 C1176.88629,466.539895 1176.75752,466.539895 1176.63459,466.539895 C1171.19089,466.543763 1166.75007,464.041169 1162.27023,461.575321 C1162.11414,461.494093 1161.95219,461.451545 1161.7961,461.451545 C1161.59513,461.451545 1161.38831,461.526971 1161.23807,461.666219 C1161.08783,461.807401 1160.99808,462.010471 1161.00003,462.217408 C1160.99808,462.486234 1161.14442,462.733786 1161.34929,462.894308 C1165.55401,466.512819 1170.16263,469.874109 1176.36143,469.877977 C1176.4824,469.877977 1176.60533,469.874109 1176.72825,469.872175 C1180.67152,469.785145 1185.1299,468.464224 1188.59124,466.30975 L1188.6127,466.296212 C1189.06537,466.027386 1189.51804,465.721814 1189.94534,465.383364 C1190.21069,465.18803 1190.3941,464.882459 1190.3941,464.565283 C1190.38239,464.002489 1189.90046,463.621491 1189.3795,463.621491 Z M1194.18128,461.621737 L1194.18128,461.619803 C1194.16567,461.277485 1194.09348,461.016395 1193.9491,460.799787 L1193.93349,460.778513 L1193.91593,460.757239 C1193.76959,460.598652 1193.62911,460.538698 1193.47692,460.472942 C1193.0223,460.298882 1192.36086,460.20605 1191.56479,460.204116 C1190.9931,460.204116 1190.36288,460.258268 1189.72876,460.395582 L1189.72681,460.353034 L1189.08878,460.56384 L1189.07708,460.569642 L1188.71611,460.685681 L1188.71611,460.701153 C1188.29271,460.875213 1187.90834,461.091821 1187.55128,461.349043 C1187.32885,461.513433 1187.14544,461.731975 1187.13568,462.066557 C1187.12983,462.248352 1187.22348,462.457224 1187.37762,462.581 C1187.53176,462.704776 1187.71127,462.747324 1187.86931,462.747324 C1187.90639,462.747324 1187.94151,462.74539 1187.97272,462.739588 L1188.00394,462.737654 L1188.02736,462.733786 C1188.33954,462.66803 1188.79416,462.623548 1189.32682,462.550056 C1189.78339,462.499772 1190.26728,462.463026 1190.68677,462.463026 C1190.98335,462.461092 1191.25066,462.482366 1191.43406,462.521046 C1191.52577,462.540386 1191.59406,462.563594 1191.63113,462.582934 C1191.64479,462.586802 1191.65454,462.592604 1191.6604,462.596472 C1191.6682,462.621614 1191.67991,462.68737 1191.67796,462.778268 C1191.68186,463.126388 1191.53357,463.772343 1191.3287,464.402827 C1191.12968,465.03331 1190.88774,465.665728 1190.72775,466.085406 C1190.68872,466.182106 1190.66336,466.288476 1190.66336,466.404516 C1190.65946,466.572773 1190.7297,466.777777 1190.87799,466.913157 C1191.02237,467.048537 1191.20968,467.102689 1191.36577,467.102689 L1191.37358,467.102689 C1191.60772,467.100755 1191.80673,467.007923 1191.97843,466.874477 C1193.59789,465.431714 1194.16177,463.126388 1194.18519,461.828675 L1194.18128,461.621737 Z M1178.56233,454.781184 C1178.04918,455.796533 1177.16921,456.450224 1176.21705,456.6707 C1176.07266,456.6707 1175.85218,456.742258 1175.6317,456.742258 C1174.022,456.742258 1173.06984,455.508367 1173.06984,453.694276 C1173.06984,451.36961 1174.46101,450.282703 1176.21705,449.772127 C1177.16921,449.555519 1178.26966,449.482027 1179.36815,449.482027 L1179.36815,450.354261 C1179.36815,452.023302 1179.44035,453.328751 1178.56233,454.781184 Z M1179.36815,446.14588 C1178.41599,446.217438 1177.31554,446.288996 1176.21705,446.432111 C1174.53321,446.652587 1172.84936,446.942687 1171.46014,447.596379 C1168.75,448.68522 1166.91787,451.007952 1166.91787,454.417592 C1166.91787,458.703333 1169.70021,460.879081 1173.21813,460.879081 C1174.38882,460.879081 1175.34098,460.732097 1176.21705,460.517424 C1177.61212,460.08034 1178.78086,459.281598 1180.17203,457.829165 C1180.97785,458.918007 1181.20028,459.428582 1182.5895,460.588982 C1182.95632,460.732097 1183.32313,460.732097 1183.61386,460.517424 C1184.49382,459.79024 1186.03328,458.482857 1186.83716,457.757608 C1187.20397,457.467508 1187.13178,457.030424 1186.90935,456.6707 C1186.10547,455.653417 1185.2977,454.781184 1185.2977,452.822043 L1185.2977,446.288996 C1185.2977,443.531113 1185.52013,440.989839 1183.46947,439.104191 C1181.78563,437.582134 1179.14767,437 1177.09702,437 L1176.21705,437 C1172.4845,437.214674 1168.53147,438.812157 1167.64955,443.386064 C1167.50321,443.968197 1167.94417,444.184805 1168.23685,444.256363 L1172.33816,444.765005 C1172.77717,444.691513 1172.99765,444.327921 1173.06984,443.968197 C1173.43471,442.370714 1174.75369,441.571973 1176.21705,441.424989 L1176.51167,441.424989 C1177.39164,441.424989 1178.3438,441.788581 1178.855,442.515764 C1179.44035,443.386064 1179.36815,444.548397 1179.36815,445.56568 L1179.36815,446.14588 L1179.36815,446.14588 Z" id="Amazon-Copy-2"></path>
        </g>
    </g>
</svg>