<?xml version="1.0" encoding="UTF-8" standalone="no"?>
<svg width="29px" height="34px" viewBox="0 0 29 34" version="1.1" xmlns="http://www.w3.org/2000/svg" xmlns:xlink="http://www.w3.org/1999/xlink">
    <!-- Generator: Sketch 3.7 (28169) - http://www.bohemiancoding.com/sketch -->
    <title>Paypal Copy 2</title>
    <desc>Created with Sketch.</desc>
    <defs></defs>
    <g id="Buttons-&amp;-components" stroke="none" stroke-width="1" fill="none" fill-rule="evenodd">
        <g id="Tryit0.0-Copy" transform="translate(-1161.000000, -726.000000)" fill="#000000">
            <path d="M1185.69362,728.560094 C1184.10867,726.768134 1181.24464,726 1177.57958,726 L1166.94481,726 C1166.19511,726 1165.55771,726.541089 1165.44007,727.274212 L1161.01141,755.137118 C1160.92372,755.686695 1161.35257,756.184284 1161.91404,756.184284 L1168.47949,756.184284 L1170.12861,745.808105 L1170.07728,746.132759 C1170.19492,745.399636 1170.82804,744.858547 1171.57667,744.858547 L1174.6963,744.858547 C1180.82648,744.858547 1185.62517,742.388634 1187.02724,735.244136 C1187.06895,735.031944 1187.13633,734.625597 1187.13633,734.625597 C1187.53417,731.981687 1187.13312,730.187605 1185.69362,728.560094 Z M1188.79828,735.97885 C1187.27322,743.013009 1182.41143,746.735914 1174.6963,746.735914 L1171.89858,746.735914 L1169.81205,759.95122 L1174.34979,759.95122 C1175.00538,759.95122 1175.56257,759.478032 1175.66524,758.836152 L1175.71871,758.556058 L1176.76251,751.99721 L1176.82989,751.635423 C1176.93148,750.993542 1177.48975,750.520355 1178.14426,750.520355 L1178.9731,750.520355 C1184.33433,750.520355 1188.53305,748.359181 1189.75973,742.110132 C1190.25168,739.602025 1190.01533,737.499204 1188.79828,735.97885 Z" id="Paypal-Copy-2"></path>
        </g>
    </g>
</svg>