<?xml version="1.0" encoding="UTF-8" standalone="no"?>
<svg width="43px" height="62px" viewBox="0 0 43 62" version="1.1" xmlns="http://www.w3.org/2000/svg" xmlns:xlink="http://www.w3.org/1999/xlink">
    <!-- Generator: Sketch 39.1 (31720) - http://www.bohemiancoding.com/sketch -->
    <title>Group 42</title>
    <desc>Created with Sketch.</desc>
    <defs>
        <rect id="path-1" x="-9" y="10" width="61.496254" height="41.9795446"></rect>
        <mask id="mask-2" maskContentUnits="userSpaceOnUse" maskUnits="objectBoundingBox" x="0" y="0" width="61.496254" height="41.9795446" fill="white">
            <use xlink:href="#path-1"></use>
        </mask>
        <rect id="path-3" x="12" y="15" width="19" height="7"></rect>
        <mask id="mask-4" maskContentUnits="userSpaceOnUse" maskUnits="objectBoundingBox" x="0" y="0" width="19" height="7" fill="white">
            <use xlink:href="#path-3"></use>
        </mask>
    </defs>
    <g id="Page-1" stroke="none" stroke-width="1" fill="none" fill-rule="evenodd">
        <g id="Group-42">
            <g id="Group-40-Copy" stroke="#000000">
                <use id="Rectangle-10" mask="url(#mask-2)" stroke-width="2" transform="translate(21.748127, 30.989772) rotate(-90.000000) translate(-21.748127, -30.989772) " xlink:href="#path-1"></use>
                <path d="M28.9913819,0.991381872 L42.0861959,14.0861959" id="Line" stroke-linecap="square"></path>
                <use id="Rectangle-13" mask="url(#mask-4)" stroke-width="2" xlink:href="#path-3"></use>
            </g>
            <g id="Bitcoin-Copy" transform="translate(9.000000, 28.000000)">
                <g id="Group" transform="translate(0.002390, 0.377644)">
                    <path d="M24.2549242,15.0545455 C22.6359848,21.5481061 16.0590909,25.5 9.56477273,23.8806818 C3.07310606,22.2617424 -0.878787879,15.6844697 0.740909091,9.19128788 C2.35909091,2.6969697 8.93598485,-1.25530303 15.4284091,0.363636364 C21.9223485,1.98257576 25.8738636,8.56060606 24.2549242,15.0545455 L24.2549242,15.0545455 Z" id="Shape" stroke="#F7931A"></path>
                    <path d="M17.8420455,10.3954545 C18.0833333,8.78257576 16.855303,7.9155303 15.1761364,7.33712121 L15.7208333,5.15227273 L14.3909091,4.82083333 L13.8606061,6.94810606 C13.5109848,6.86098485 13.1518939,6.77878788 12.7950758,6.69734848 L13.3291667,4.55606061 L12,4.22462121 L11.4549242,6.40871212 C11.1655303,6.34280303 10.8814394,6.27765152 10.6056818,6.20909091 L10.607197,6.20227273 L8.77310606,5.74431818 L8.41931818,7.16477273 C8.41931818,7.16477273 9.40606061,7.39090909 9.38522727,7.40492424 C9.92386364,7.53939394 10.0212121,7.89583333 10.0049242,8.17840909 L9.3844697,10.6674242 C9.42159091,10.6768939 9.46969697,10.6905303 9.52272727,10.7117424 C9.47840909,10.7007576 9.43106061,10.6886364 9.38219697,10.6768939 L8.5125,14.1636364 C8.44659091,14.3272727 8.27954545,14.5727273 7.9030303,14.4795455 C7.91628788,14.4988636 6.93636364,14.2382576 6.93636364,14.2382576 L6.27613636,15.7606061 L8.00681818,16.1920455 C8.32878788,16.2727273 8.64431818,16.357197 8.95492424,16.4367424 L8.40454545,18.6465909 L9.73295455,18.9780303 L10.2780303,16.7916667 C10.6409091,16.8901515 10.9931818,16.9810606 11.3378788,17.0666667 L10.794697,19.242803 L12.1246212,19.5742424 L12.675,17.3685606 C14.942803,17.7977273 16.6481061,17.6246212 17.3659091,15.5734848 C17.9443182,13.9219697 17.3371212,12.9693182 16.1439394,12.3481061 C17.0128788,12.1477273 17.6674242,11.5761364 17.8420455,10.3954545 L17.8420455,10.3954545 Z M14.8034091,14.6564394 C14.3924242,16.3079545 11.6117424,15.4151515 10.7102273,15.1912879 L11.4405303,12.2636364 C12.3420455,12.4886364 15.2329545,12.9340909 14.8034091,14.6564394 L14.8034091,14.6564394 Z M15.2147727,10.3715909 C14.8397727,11.8738636 12.5253788,11.1106061 11.7746212,10.9234848 L12.4367424,8.26818182 C13.1875,8.45530303 15.605303,8.80454545 15.2147727,10.3715909 L15.2147727,10.3715909 Z" id="Shape" fill="#F7931A"></path>
                </g>
            </g>
        </g>
    </g>
</svg>