<?xml version="1.0" encoding="UTF-8" standalone="no"?>
<svg width="88px" height="54px" viewBox="0 0 88 54" version="1.1" xmlns="http://www.w3.org/2000/svg" xmlns:xlink="http://www.w3.org/1999/xlink">
    <!-- Generator: Sketch 39.1 (31720) - http://www.bohemiancoding.com/sketch -->
    <title>Group 61</title>
    <desc>Created with Sketch.</desc>
    <defs></defs>
    <g id="Page-1" stroke="none" stroke-width="1" fill="none" fill-rule="evenodd">
        <g id="Group-61" transform="translate(-1.000000, 1.000000)">
            <g id="Group-50-Copy" transform="translate(0.500000, 9.000000)" stroke="#164591" stroke-linecap="square" opacity="0.3">
                <path d="M1.58405342,29.5504199 L76.5000156,29.5504199" id="Line"></path>
                <path d="M1.58373609,42.5504199 L85.5653666,42.5504199" id="Line-Copy-10"></path>
                <path d="M1.64638823,1.55041989 L75.5061035,1.55041993" id="Line-Copy-12"></path>
                <path d="M1.64638823,16.6512597 L87.2368421,16.6512597" id="Line-Copy-17"></path>
            </g>
            <g id="Group" transform="translate(15.000000, 4.000000)" stroke="#000000" fill="#FFFFFF">
                <path d="M31.6208207,11.0043108 C31.6208207,5.08875019 26.8150525,0.297413804 20.881674,0.297413804 C14.9482955,0.297413804 10.1425274,5.08875019 10.1425274,11.0043108 C10.1425274,16.9198713 14.9482955,21.7112077 20.881674,21.7112077 C26.8150525,21.7112077 31.6208207,16.9198713 31.6208207,11.0043108 Z M20.5833644,25.2801733 C13.8132274,25.2801733 0.298309629,28.6677166 0.298309629,35.3922427 L0.298309629,40.4482774 L40.8684191,40.4482774 L40.8684191,35.3922427 C40.8684191,28.6677166 27.3535014,25.2801733 20.5833644,25.2801733 L20.5833644,25.2801733 Z" id="Shape"></path>
            </g>
            <g id="Group-49" transform="translate(41.000000, 0.000000)">
                <g id="Group-48">
                    <ellipse id="Oval-2-Copy-3" stroke="#164591" fill="#FFFFFF" cx="10.5" cy="10.4563492" rx="10.5" ry="10.4563492"></ellipse>
                    <g id="Group" transform="translate(4.000000, 6.000000)" fill="#164591">
                        <polygon id="Shape" points="4.49455778 9.36868687 0.172867607 4.94949495 1.39158423 3.70328283 4.49455778 6.86742424 11.0548835 0.159090909 12.2736001 1.41414141"></polygon>
                    </g>
                </g>
            </g>
        </g>
    </g>
</svg>