<?xml version="1.0" encoding="UTF-8" standalone="no"?>
<svg width="93px" height="53px" viewBox="0 0 93 53" version="1.1" xmlns="http://www.w3.org/2000/svg" xmlns:xlink="http://www.w3.org/1999/xlink">
    <!-- Generator: Sketch 39.1 (31720) - http://www.bohemiancoding.com/sketch -->
    <title>Group 59</title>
    <desc>Created with Sketch.</desc>
    <defs>
        <rect id="path-1" x="1.91846539e-13" y="6.21724894e-14" width="41.4649247" height="28.4666014" rx="5"></rect>
        <mask id="mask-2" maskContentUnits="userSpaceOnUse" maskUnits="objectBoundingBox" x="0" y="0" width="41.4649247" height="28.4666014" fill="white">
            <use xlink:href="#path-1"></use>
        </mask>
    </defs>
    <g id="Page-1" stroke="none" stroke-width="1" fill="none" fill-rule="evenodd">
        <g id="Group-59" transform="translate(-1.000000, -1.000000)">
            <g id="Group-50-Copy" transform="translate(0.000000, 7.000000)" stroke="#164591" stroke-linecap="square" opacity="0.3">
                <path d="M1.58405342,29.5504199 L76.5000156,29.5504199" id="Line"></path>
                <path d="M1.58373609,42.5504199 L85.5653666,42.5504199" id="Line-Copy-10"></path>
                <path d="M1.64638823,1.55041989 L75.5061035,1.55041993" id="Line-Copy-12"></path>
                <path d="M1.64638823,16.6512597 L87.2368421,16.6512597" id="Line-Copy-17"></path>
            </g>
            <g id="Group-58" transform="translate(33.000000, 0.000000)" stroke="#000000">
                <g id="Group-57" stroke-width="2" fill="#FFFFFF">
                    <g id="Group-28" transform="translate(15.500000, 22.000000) rotate(-270.000000) translate(-15.500000, -22.000000) translate(-6.000000, 7.000000)">
                        <g id="Group-27-Copy" transform="translate(21.958762, 15.461378) rotate(-180.000000) translate(-21.958762, -15.461378) translate(0.958762, 0.961378)">
                            <use id="Rectangle-10" mask="url(#mask-2)" xlink:href="#path-1"></use>
                        </g>
                    </g>
                </g>
                <path d="M3.5,8.5 L25.5,8.5" id="Line" stroke-linecap="square"></path>
                <path d="M3.5,37.5 L25.5,37.5" id="Line-Copy-16" stroke-linecap="square"></path>
            </g>
            <path d="M47,32 C51.9705627,32 56,27.9705627 56,23 C56,18.0294373 51.9705627,14 47,14 C42.0294373,14 38,18.0294373 38,23 C38,27.9705627 42.0294373,32 47,32 Z" id="Oval-8" stroke="#164591"></path>
            <path d="M44.5615107,20.7591036 L45.7716272,20.7591036 L45.7716272,20.1568627 C45.7716272,19.6993441 45.8285733,19.3281994 45.9424672,19.0434174 C46.0563611,18.7586354 46.2082173,18.5392165 46.3980404,18.3851541 C46.5878636,18.2310917 46.8037842,18.1283849 47.0458087,18.0770308 C47.2878332,18.0256767 47.5417178,18 47.8074702,18 C48.3294838,18 48.7091244,18.0326794 48.9464033,18.0980392 L48.9464033,19.3445378 C48.8420006,19.3165265 48.7304812,19.2955183 48.6118417,19.2815126 C48.4932023,19.2675069 48.3532098,19.2605042 48.1918601,19.2605042 C47.9735635,19.2605042 47.786116,19.3118576 47.6295119,19.4145658 C47.4729078,19.5172741 47.3946069,19.718019 47.3946069,20.0168067 L47.3946069,20.7591036 L48.7755634,20.7591036 L48.7755634,21.9495798 L47.3946069,21.9495798 L47.3946069,28 L45.7716272,28 L45.7716272,21.9495798 L44.5615107,21.9495798 L44.5615107,20.7591036 Z" id="f" fill="#164591"></path>
            <path d="M83.7162773,11.2664326 L83.0191703,11.2664326 L82.8536074,10.54635 C82.5631447,10.8721033 82.2726864,11.0978412 81.9822237,11.2235705 C81.691761,11.3492999 81.3577339,11.4121636 80.9801324,11.4121636 C80.5153921,11.4121636 80.0985843,11.327869 79.7296967,11.1592774 C79.3608091,10.9906858 79.0485664,10.7606618 78.7929592,10.4691983 C78.537352,10.1777349 78.3412926,9.83769932 78.2047752,9.44908141 C78.0682577,9.06046349 78,8.64613443 78,8.20608179 C78,7.77174411 78.0682577,7.36027249 78.2047752,6.97165457 C78.3412926,6.58303666 78.537352,6.24300108 78.7929592,5.95153764 C79.0485664,5.6600742 79.3608091,5.42862142 79.7296967,5.25717234 C80.0985843,5.08572325 80.5153921,5 80.9801324,5 C81.3170691,5 81.6380256,5.04429035 81.9430114,5.13287237 C82.2479973,5.2214544 82.5195758,5.35289672 82.7577552,5.52720329 C82.9959346,5.70150985 83.1934463,5.92010415 83.3502962,6.18299274 C83.507146,6.44588134 83.6059018,6.74877017 83.6465666,7.09166833 L82.5834785,7.09166833 C82.5544322,6.8916444 82.4919837,6.71591173 82.396131,6.56446504 C82.3002783,6.41301835 82.1797381,6.28586219 82.0345067,6.18299274 C81.8892754,6.0801233 81.7266187,6.00297237 81.5465318,5.95153764 C81.3664449,5.90010292 81.177647,5.87438594 80.9801324,5.87438594 C80.6490049,5.87438594 80.3629034,5.9401071 80.1218194,6.0715514 C79.8807354,6.20299569 79.684676,6.37872837 79.5336354,6.59875469 C79.3825948,6.81878101 79.2707683,7.06880717 79.1981526,7.34884067 C79.125537,7.62887417 79.0892297,7.91461835 79.0892297,8.20608179 C79.0892297,8.49754522 79.125537,8.78328941 79.1981526,9.0633229 C79.2707683,9.3433564 79.3825948,9.59338256 79.5336354,9.81340888 C79.684676,10.0334352 79.8807354,10.2091679 80.1218194,10.3406122 C80.3629034,10.4720565 80.6490049,10.5377776 80.9801324,10.5377776 C81.2589766,10.5434926 81.5058662,10.5077746 81.7208086,10.4306225 C81.935751,10.3534704 82.1172874,10.2420302 82.2654234,10.0962985 C82.4135594,9.95056673 82.5253858,9.77197662 82.6009061,9.56052275 C82.6764264,9.34906889 82.7170906,9.11475866 82.7228999,8.85758504 L81.0672708,8.85758504 L81.0672708,8.04320597 L83.7162773,8.04320597 L83.7162773,11.2664326 Z M86.4088531,6.92879252 L87.2976645,6.92879252 L87.2976645,8.66041958 L89.0491458,8.66041958 L89.0491458,9.53480552 L87.2976645,9.53480552 L87.2976645,11.2664326 L86.4088531,11.2664326 L86.4088531,9.53480552 L84.6573718,9.53480552 L84.6573718,8.66041958 L86.4088531,8.66041958 L86.4088531,6.92879252 Z" id="G+" fill="#164591"></path>
            <path d="M80,32 L81.2797014,32 L81.2797014,33.1926721 L80,33.1926721 L80,32 Z M80,34.1755223 L81.2797014,34.1755223 L81.2797014,39.8848881 L80,39.8848881 L80,34.1755223 Z M82.6716572,34.1755223 L83.8840059,34.1755223 L83.8840059,35.0148102 L83.9064568,35.0368967 C84.1010322,34.7203216 84.3554732,34.4718507 84.6697874,34.2914766 C84.9841016,34.1111024 85.3320871,34.0209167 85.7137543,34.0209167 C86.3498663,34.0209167 86.8512648,34.1828829 87.2179647,34.5068202 C87.5846646,34.8307574 87.7680117,35.316656 87.7680117,35.9645306 L87.7680117,39.8848881 L86.4883104,39.8848881 L86.4883104,36.2958284 C86.473343,35.8467335 86.3760568,35.5209606 86.1964487,35.3184998 C86.0168406,35.116039 85.7362071,35.0148102 85.3545399,35.0148102 C85.1375134,35.0148102 84.9429409,35.0534612 84.7708165,35.1307644 C84.598692,35.2080676 84.4527626,35.3148181 84.3330239,35.451019 C84.2132852,35.5872198 84.1197407,35.7473455 84.0523876,35.9314008 C83.9850346,36.1154561 83.9513586,36.3105517 83.9513586,36.5166936 L83.9513586,39.8848881 L82.6716572,39.8848881 L82.6716572,34.1755223 Z" id="in" fill="#164591"></path>
            <path d="M90,20.7866527 L91.0076585,20.7866527 L91.0076585,19 L92.3433918,19 L92.3433918,20.7866527 L93.5502385,20.7866527 L93.5502385,21.76643 L92.3433918,21.76643 L92.3433918,24.9478245 C92.3433918,25.0861467 92.3492502,25.2052557 92.3609672,25.3051551 C92.3726842,25.4050544 92.4000235,25.4895834 92.4429859,25.5587445 C92.4859483,25.6279056 92.5503909,25.6797756 92.6363157,25.7143562 C92.7222405,25.7489367 92.8394089,25.7662267 92.9878245,25.7662267 C93.0815606,25.7662267 93.1752954,25.7643056 93.2690315,25.7604633 C93.3627676,25.756621 93.4565024,25.7431733 93.5502385,25.7201196 L93.5502385,26.7344772 C93.401823,26.7498464 93.2573152,26.7652153 93.116711,26.7805844 C92.9761068,26.7959535 92.8315991,26.803638 92.6831836,26.803638 C92.331673,26.803638 92.048516,26.7709791 91.833704,26.7056602 C91.6188921,26.6403414 91.4509507,26.5442858 91.3298748,26.4174905 C91.208799,26.2906951 91.1267811,26.1312428 91.0838187,25.9391286 C91.0408563,25.7470144 91.0154698,25.5280076 91.0076585,25.2821015 L91.0076585,21.76643 L90,21.76643 L90,20.7866527 Z" id="t" fill="#164591"></path>
            <path d="M89,47.4831933 L90.0891048,47.4831933 L90.0891048,46.9411765 C90.0891048,46.5294097 90.1403563,46.1953794 90.2428608,45.9390756 C90.3453653,45.6827718 90.4820359,45.4852948 90.6528767,45.3466387 C90.8237176,45.2079825 91.0180461,45.1155464 91.2358681,45.0693277 C91.4536902,45.023109 91.6821864,45 91.9213635,45 C92.3911758,45 92.7328523,45.0294115 92.9464033,45.0882353 L92.9464033,46.210084 C92.8524409,46.1848738 92.7520734,46.1659664 92.6452979,46.1533613 C92.5385224,46.1407562 92.4125292,46.1344538 92.2673145,46.1344538 C92.0708475,46.1344538 91.9021447,46.1806718 91.761201,46.2731092 C91.6202574,46.3655467 91.5497866,46.5462171 91.5497866,46.8151261 L91.5497866,47.4831933 L92.7926474,47.4831933 L92.7926474,48.5546218 L91.5497866,48.5546218 L91.5497866,54 L90.0891048,54 L90.0891048,48.5546218 L89,48.5546218 L89,47.4831933 Z" id="f" fill="#164591"></path>
        </g>
    </g>
</svg>