<?xml version="1.0" encoding="UTF-8"?>
<svg width="83px" height="82px" viewBox="0 0 83 82" version="1.1" xmlns="http://www.w3.org/2000/svg" xmlns:xlink="http://www.w3.org/1999/xlink">
    <!-- Generator: Sketch 41 (35326) - http://www.bohemiancoding.com/sketch -->
    <title>Group 2</title>
    <desc>Created with Sketch.</desc>
    <defs></defs>
    <g id="End-user-page" stroke="none" stroke-width="1" fill="none" fill-rule="evenodd">
        <g id="Front-Page-Copy-5" transform="translate(-394.000000, -560.000000)">
            <g id="Group-7" transform="translate(386.000000, 546.000000)">
                <g id="Group-2" transform="translate(8.000000, 14.000000)">
                    <ellipse id="Oval-6-Copy" fill="#164591" cx="80.4349999" cy="41.4349999" rx="2.43499994" ry="2.43499994"></ellipse>
                    <ellipse id="Oval-6-Copy" fill="#164591" cx="40.4349999" cy="79.4349999" rx="2.43499994" ry="2.43499994"></ellipse>
                    <ellipse id="Oval-6-Copy-9" fill="#164591" cx="40.4349999" cy="2.43499994" rx="2.43499994" ry="2.43499994"></ellipse>
                    <ellipse id="Oval-6-Copy" fill="#164591" cx="2.43499994" cy="41.4349999" rx="2.43499994" ry="2.43499994"></ellipse>
                    <ellipse id="Oval-6-Copy" stroke="#164591" cx="41.0743461" cy="41.0743461" rx="18" ry="18"></ellipse>
                    <path d="M40.7612645,5.58708816 L40.7612645,22.5020178" id="Line-Copy-19" stroke="#164591" stroke-linecap="square" opacity="0.3"></path>
                    <path d="M40.7612645,59.4980425 L40.7612645,76.9340336" id="Line-Copy-81" stroke="#164591" stroke-linecap="square" opacity="0.3"></path>
                    <path d="M22.5014737,41.7271192 L5,41.7271192" id="Line-Copy-79" stroke="#164591" stroke-linecap="square" opacity="0.3"></path>
                    <ellipse id="Oval-6-Copy" fill="#164591" cx="8.43499994" cy="72.4349999" rx="2.43499994" ry="2.43499994"></ellipse>
                    <path d="M27.5845314,53.5841385 L9.47918897,71.6894809" id="Line-Copy-86" stroke="#164591" stroke-linecap="square" opacity="0.3"></path>
                    <ellipse id="Oval-6-Copy" fill="#164591" transform="translate(64.435000, 63.435000) rotate(-90.000000) translate(-64.435000, -63.435000) " cx="64.4349999" cy="63.4349999" rx="2.43499994" ry="2.43499994"></ellipse>
                    <path d="M64.4114032,54.3937071 L55.2495473,63.555563" id="Line-Copy-86" stroke="#164591" stroke-linecap="square" opacity="0.3" transform="translate(59.500000, 59.000000) rotate(-90.000000) translate(-59.500000, -59.000000) "></path>
                    <ellipse id="Oval-6-Copy" fill="#164591" transform="translate(71.435000, 13.435000) scale(-1, -1) translate(-71.435000, -13.435000) " cx="71.4349999" cy="13.4349999" rx="2.43499994" ry="2.43499994"></ellipse>
                    <path d="M71.2934112,13.1968702 L54.9583558,29.5319256" id="Line-Copy-86" stroke="#164591" stroke-linecap="square" opacity="0.3" transform="translate(63.000000, 21.500000) scale(-1, -1) translate(-63.000000, -21.500000) "></path>
                    <ellipse id="Oval-6-Copy" fill="#164591" transform="translate(18.435000, 19.435000) scale(-1, -1) rotate(-90.000000) translate(-18.435000, -19.435000) " cx="18.4349999" cy="19.4349999" rx="2.43499994" ry="2.43499994"></ellipse>
                    <path d="M27.6016075,19.5670624 L17.7088517,29.4598182" id="Line-Copy-86" stroke="#164591" stroke-linecap="square" opacity="0.3" transform="translate(23.000000, 24.500000) scale(-1, -1) rotate(-90.000000) translate(-23.000000, -24.500000) "></path>
                    <path d="M78.0740647,41.7271192 L59.4986115,41.7271192" id="Line-Copy-80" stroke="#164591" stroke-linecap="square" opacity="0.3"></path>
                </g>
            </g>
        </g>
    </g>
</svg>