<?xml version="1.0" encoding="UTF-8" standalone="no"?>
<svg width="47px" height="43px" viewBox="0 0 47 43" version="1.1" xmlns="http://www.w3.org/2000/svg" xmlns:xlink="http://www.w3.org/1999/xlink">
    <!-- Generator: Sketch 3.8.3 (29802) - http://www.bohemiancoding.com/sketch -->
    <title>Group 58 Copy 2</title>
    <desc>Created with Sketch.</desc>
    <defs></defs>
    <g id="Landing-page" stroke="none" stroke-width="1" fill="none" fill-rule="evenodd">
        <g id="Group-58-Copy-2" transform="translate(-4.000000, -8.000000)">
            <polygon id="Shape-Copy" points="0 0 67 0 67 62 0 62"></polygon>
            <g id="Group-52" transform="translate(4.000000, 8.000000)" fill="#71CAF8">
                <g id="Verified" transform="translate(17.104167, 18.898713)">
                    <g id="AdobeStock_79449965-Copy-5" style="mix-blend-mode: multiply;">
                        <g id="Group-47" transform="translate(0.610109, 0.053518)">
                            <path d="M25.915018,0.274481958 L2.90736321,0.274481958 C1.31120716,0.274481958 0.0457861431,1.56144053 0.0457861431,3.16652368 L0.0314063588,20.518774 C0.0314063588,22.1238572 1.31120716,23.4108157 2.90736321,23.4108157 L25.915018,23.4108157 C27.5111741,23.4108157 28.7909749,22.1238572 28.7909749,20.518774 L28.7909749,3.16652368 C28.7909749,1.56144053 27.5111741,0.274481958 25.915018,0.274481958 L25.915018,0.274481958 Z M25.915018,20.518774 L2.90736321,20.518774 L2.90736321,11.8426489 L25.915018,11.8426489 L25.915018,20.518774 L25.915018,20.518774 Z M25.915018,6.0585654 L2.90736321,6.0585654 L2.90736321,3.16652368 L25.915018,3.16652368 L25.915018,6.0585654 L25.915018,6.0585654 Z" id="Shape" transform="translate(14.411191, 11.842649) rotate(-360.000000) translate(-14.411191, -11.842649) "></path>
                        </g>
                    </g>
                </g>
                <path d="M8.66030093,0.125 C3.87981481,0.125 0,4.03018098 0,8.84192182 C0,13.6536627 3.87981481,17.5588436 8.66030093,17.5588436 C13.440787,17.5588436 17.3206019,13.6536627 17.3206019,8.84192182 C17.3206019,4.03018098 13.440787,0.125 8.66030093,0.125 L8.66030093,0.125 Z M6.92824074,13.2003827 L2.59809028,8.84192182 L3.81919271,7.61283585 L6.92824074,10.7334939 L13.5014091,4.11735019 L14.7225116,5.35515309 L6.92824074,13.2003827 L6.92824074,13.2003827 Z" id="Shape"></path>
            </g>
        </g>
    </g>
</svg>