<?xml version="1.0" encoding="UTF-8" standalone="no"?>
<svg width="44px" height="40px" viewBox="0 0 44 40" version="1.1" xmlns="http://www.w3.org/2000/svg" xmlns:xlink="http://www.w3.org/1999/xlink">
    <!-- Generator: Sketch 3.8.3 (29802) - http://www.bohemiancoding.com/sketch -->
    <title>Group 58 Copy</title>
    <desc>Created with Sketch.</desc>
    <defs></defs>
    <g id="Landing-page" stroke="none" stroke-width="1" fill="none" fill-rule="evenodd">
        <g id="Group-58-Copy" transform="translate(-5.000000, -8.000000)">
            <polygon id="Shape-Copy" points="0 0 67 0 67 62 0 62"></polygon>
            <g id="Group-52" transform="translate(5.000000, 8.000000)" fill="#71CAF8">
                <g id="Verified" transform="translate(16.104167, 13.000000)">
                    <g id="AdobeStock_79449965-Copy-5" style="mix-blend-mode: multiply;">
                        <g id="Group-47" transform="translate(0.605608, 0.053124)">
                            <path d="M13.5864606,13.5864606 C17.1789939,13.5864606 20.0887833,10.6766712 20.0887833,7.08413786 C20.0887833,3.49160455 17.1789939,0.581815125 13.5864606,0.581815125 C9.99392729,0.581815125 7.08413786,3.49160455 7.08413786,7.08413786 C7.08413786,10.6766712 9.99392729,13.5864606 13.5864606,13.5864606 L13.5864606,13.5864606 Z M13.5864606,16.837622 C9.24616017,16.837622 0.581815125,19.0159001 0.581815125,23.3399447 L0.581815125,26.5911061 L26.5911061,26.5911061 L26.5911061,23.3399447 C26.5911061,19.0159001 17.926761,16.837622 13.5864606,16.837622 L13.5864606,16.837622 Z" id="Shape"></path>
                        </g>
                    </g>
                </g>
                <path d="M8.66030093,0.125 C3.87981481,0.125 0,4.03018098 0,8.84192182 C0,13.6536627 3.87981481,17.5588436 8.66030093,17.5588436 C13.440787,17.5588436 17.3206019,13.6536627 17.3206019,8.84192182 C17.3206019,4.03018098 13.440787,0.125 8.66030093,0.125 L8.66030093,0.125 Z M6.92824074,13.2003827 L2.59809028,8.84192182 L3.81919271,7.61283585 L6.92824074,10.7334939 L13.5014091,4.11735019 L14.7225116,5.35515309 L6.92824074,13.2003827 L6.92824074,13.2003827 Z" id="Shape"></path>
            </g>
        </g>
    </g>
</svg>