<?xml version="1.0" encoding="UTF-8" standalone="no"?>
<svg width="94px" height="98px" viewBox="0 0 94 98" version="1.1" xmlns="http://www.w3.org/2000/svg" xmlns:xlink="http://www.w3.org/1999/xlink">
    <!-- Generator: Sketch 39.1 (31720) - http://www.bohemiancoding.com/sketch -->
    <title>Group 33</title>
    <desc>Created with Sketch.</desc>
    <defs></defs>
    <g id="Page-1" stroke="none" stroke-width="1" fill="none" fill-rule="evenodd">
        <g id="Group-33" transform="translate(-0.384544, -2.000000)">
            <g id="Group-Copy-7" transform="translate(65.000000, 37.000000)">
                <g id="Group-4">
                    <ellipse id="Oval-2-Copy-2" stroke="#164591" fill="#FFFFFF" cx="14.4398205" cy="14.4990656" rx="14.4398205" ry="14.4990656"></ellipse>
                    <g id="ic_check_circle_black_24px-(3)" transform="translate(7.219910, 8.897529)" fill="#164591">
                        <g id="Group">
                            <polygon id="Shape" points="5.21437962 10.7174782 0.200553062 5.66206395 1.61445215 4.23643714 5.21437962 7.85611374 12.8253683 0.181994913 14.2392674 1.61773256"></polygon>
                        </g>
                    </g>
                </g>
            </g>
            <g id="Group-30">
                <g id="Group-38" opacity="0.3" transform="translate(6.000000, 0.000000)">
                    <ellipse id="Oval-6-Copy-25" stroke="#000000" transform="translate(4.998411, 27.007267) rotate(-45.000000) translate(-4.998411, -27.007267) " cx="4.99841138" cy="27.0072674" rx="3.4380525" ry="3.46656977"></ellipse>
                    <ellipse id="Oval-6-Copy-26" stroke="#000000" transform="translate(14.624958, 39.486919) rotate(-45.000000) translate(-14.624958, -39.486919) " cx="14.6249584" cy="39.4869186" rx="3.4380525" ry="3.46656977"></ellipse>
                    <path d="M4.9495444,27.9579951 L4.9495444,51.5306696" id="Line" stroke="#164591" stroke-linecap="square"></path>
                    <path d="M14.5760914,39.4376463 L14.5760914,51.9172975" id="Line" stroke="#164591" stroke-linecap="square"></path>
                    <path d="M30.0628315,34.693314 L30.0628315,51.3328488" id="Line" stroke="#164591" stroke-linecap="square"></path>
                    <path d="M43.0628315,8.5 L43.0628315,51.5080872" id="Line-Copy-5" stroke="#164591" stroke-linecap="square"></path>
                    <ellipse id="Oval-6-Copy-27" stroke="#000000" transform="translate(29.882305, 34.882305) rotate(-45.000000) translate(-29.882305, -34.882305) " cx="29.8823052" cy="34.8823052" rx="3.4380525" ry="3.46656977"></ellipse>
                    <path d="M43.4660364,14.477153 C46.7585741,14.477153 49.4277033,11.7858844 49.4277033,8.46603641 C49.4277033,5.1461884 46.7585741,2.45491983 43.4660364,2.45491983 C40.1734987,2.45491983 37.5043695,5.1461884 37.5043695,8.46603641 C37.5043695,11.7858844 40.1734987,14.477153 43.4660364,14.477153 Z" id="Oval-6-Copy-38" stroke="#000000" transform="translate(43.466036, 8.466036) rotate(-45.000000) translate(-43.466036, -8.466036) "></path>
                    <ellipse id="Oval-6-Copy-28" stroke="#000000" transform="translate(47.882305, 62.882305) rotate(-45.000000) translate(-47.882305, -62.882305) " cx="47.8823052" cy="62.8823052" rx="3.4380525" ry="3.46656977"></ellipse>
                    <path d="M19.6750714,99.3847448 C24.9934621,99.3847448 29.3048695,95.037576 29.3048695,89.6750714 C29.3048695,84.3125669 24.9934621,79.965398 19.6750714,79.965398 C14.3566808,79.965398 10.0452734,84.3125669 10.0452734,89.6750714 C10.0452734,95.037576 14.3566808,99.3847448 19.6750714,99.3847448 Z" id="Oval-6-Copy-39" stroke="#000000" transform="translate(19.675071, 89.675071) rotate(-45.000000) translate(-19.675071, -89.675071) "></path>
                    <path d="M48.0628315,63.7863372 L48.0628315,52.693314" id="Line" stroke="#164591" stroke-linecap="square"></path>
                    <path d="M19.6877899,91.5084305 L19.6877899,52.3738648" id="Line-Copy-6" stroke="#164591" stroke-linecap="square"></path>
                </g>
                <path d="M0.884543717,51.9172975 L64.6127301,51.9172975" id="Line" stroke="#000000" stroke-linecap="square"></path>
            </g>
        </g>
    </g>
</svg>