<?xml version="1.0" encoding="UTF-8" standalone="no"?>
<svg width="53px" height="38px" viewBox="0 0 53 38" version="1.1" xmlns="http://www.w3.org/2000/svg" xmlns:xlink="http://www.w3.org/1999/xlink">
    <!-- Generator: Sketch 3.8.3 (29802) - http://www.bohemiancoding.com/sketch -->
    <title>Group 58</title>
    <desc>Created with Sketch.</desc>
    <defs>
        <polygon id="path-1" points="0 0 44 0 44 44 0 44"></polygon>
    </defs>
    <g id="Landing-page" stroke="none" stroke-width="1" fill="none" fill-rule="evenodd">
        <g id="Group-58" transform="translate(-5.000000, -9.000000)">
            <g id="Group-52-Copy-8" transform="translate(5.000000, 9.000000)" fill="#71CAF8">
                <path d="M8.66030093,0.125 C3.87981481,0.125 0,4.03018098 0,8.84192182 C0,13.6536627 3.87981481,17.5588436 8.66030093,17.5588436 C13.440787,17.5588436 17.3206019,13.6536627 17.3206019,8.84192182 C17.3206019,4.03018098 13.440787,0.125 8.66030093,0.125 L8.66030093,0.125 Z M6.92824074,13.2003827 L2.59809028,8.84192182 L3.81919271,7.61283585 L6.92824074,10.7334939 L13.5014091,4.11735019 L14.7225116,5.35515309 L6.92824074,13.2003827 L6.92824074,13.2003827 Z" id="Shape"></path>
            </g>
            <g id="ic_timeline_black_24px" transform="translate(15.000000, 14.000000)">
                <g id="Clipped">
                    <mask id="mask-2" fill="white">
                        <use xlink:href="#path-1"></use>
                    </mask>
                    <g id="a"></g>
                    <path d="M42.1666667,14.6666667 C42.1666667,16.6833333 40.5166667,18.3333333 38.5,18.3333333 C38.17,18.3333333 37.8583333,18.2966667 37.565,18.205 L31.0383333,24.7133333 C31.13,25.0066667 31.1666667,25.3366667 31.1666667,25.6666667 C31.1666667,27.6833333 29.5166667,29.3333333 27.5,29.3333333 C25.4833333,29.3333333 23.8333333,27.6833333 23.8333333,25.6666667 C23.8333333,25.3366667 23.87,25.0066667 23.9616667,24.7133333 L19.2866667,20.0383333 C18.9933333,20.13 18.6633333,20.1666667 18.3333333,20.1666667 C18.0033333,20.1666667 17.6733333,20.13 17.38,20.0383333 L9.03833333,28.3983333 C9.13,28.6916667 9.16666667,29.0033333 9.16666667,29.3333333 C9.16666667,31.35 7.51666667,33 5.5,33 C3.48333333,33 1.83333333,31.35 1.83333333,29.3333333 C1.83333333,27.3166667 3.48333333,25.6666667 5.5,25.6666667 C5.83,25.6666667 6.14166667,25.7033333 6.435,25.795 L14.795,17.4533333 C14.7033333,17.16 14.6666667,16.83 14.6666667,16.5 C14.6666667,14.4833333 16.3166667,12.8333333 18.3333333,12.8333333 C20.35,12.8333333 22,14.4833333 22,16.5 C22,16.83 21.9633333,17.16 21.8716667,17.4533333 L26.5466667,22.1283333 C26.84,22.0366667 27.17,22 27.5,22 C27.83,22 28.16,22.0366667 28.4533333,22.1283333 L34.9616667,15.6016667 C34.87,15.3083333 34.8333333,14.9966667 34.8333333,14.6666667 C34.8333333,12.65 36.4833333,11 38.5,11 C40.5166667,11 42.1666667,12.65 42.1666667,14.6666667 L42.1666667,14.6666667 Z" id="Shape" fill="#71CAF8" mask="url(#mask-2)"></path>
                </g>
            </g>
            <polygon id="Shape-Copy" points="0 0 67 0 67 62 0 62"></polygon>
        </g>
    </g>
</svg>