<?xml version="1.0" encoding="UTF-8" standalone="no"?>
<svg width="104px" height="101px" viewBox="0 0 104 101" version="1.1" xmlns="http://www.w3.org/2000/svg" xmlns:xlink="http://www.w3.org/1999/xlink">
    <!-- Generator: Sketch 39.1 (31720) - http://www.bohemiancoding.com/sketch -->
    <title>Group 2</title>
    <desc>Created with Sketch.</desc>
    <defs></defs>
    <g id="Page-3" stroke="none" stroke-width="1" fill="none" fill-rule="evenodd">
        <g id="Group-2" transform="translate(1.000000, 0.000000)" stroke="#000000">
            <circle id="Oval" cx="15" cy="13" r="6"></circle>
            <circle id="Oval-2" cx="64" cy="79" r="19"></circle>
            <circle id="Oval-3" cx="49" cy="28" r="15"></circle>
            <circle id="Oval-4" cx="20" cy="60" r="5"></circle>
            <ellipse id="Oval-5" cx="76.5" cy="3.5" rx="3" ry="3"></ellipse>
            <circle id="Oval-6" cx="97.5" cy="47.5" r="4.5"></circle>
            <circle id="Oval-6-Copy" cx="7" cy="93" r="7"></circle>
            <path d="M6.5,92.5 L19.5,59.5" id="Line" stroke-linecap="square"></path>
            <path d="M19.5,59.5 L64.5,79.5" id="Line" stroke-linecap="square"></path>
            <path d="M64.5,79.5 L48.5,27.5" id="Line" stroke-linecap="square"></path>
            <path d="M48.5,27.5 L13.5,12.5" id="Line" stroke-linecap="square"></path>
            <path d="M13.5,12.5 L19.5,59.5" id="Line" stroke-linecap="square"></path>
            <path d="M48.5,27.5 L76.5,3.5" id="Line" stroke-linecap="square"></path>
            <path d="M76.5,3.5 L97.5,47.5" id="Line" stroke-linecap="square"></path>
            <path d="M97.5,47.5 L64.5,79.5" id="Line" stroke-linecap="square"></path>
            <path d="M48.5,27.5 L97.5,47.5" id="Line" stroke-linecap="square"></path>
        </g>
    </g>
</svg>