<?xml version="1.0" encoding="UTF-8" standalone="no"?>
<svg width="288px" height="289px" viewBox="0 0 288 289" version="1.1" xmlns="http://www.w3.org/2000/svg" xmlns:xlink="http://www.w3.org/1999/xlink">
    <!-- Generator: Sketch 3.8.3 (29802) - http://www.bohemiancoding.com/sketch -->
    <title>Group 23</title>
    <desc>Created with Sketch.</desc>
    <defs>
        <linearGradient x1="64.2246885%" y1="36.0930241%" x2="13.5524365%" y2="82.2919068%" id="linearGradient-1">
            <stop stop-color="#A00000" offset="0%"></stop>
            <stop stop-color="#0084B5" offset="100%"></stop>
        </linearGradient>
        <linearGradient x1="50%" y1="0%" x2="50%" y2="100%" id="linearGradient-2">
            <stop stop-color="#FFFFFF" stop-opacity="0.234714674" offset="0%"></stop>
            <stop stop-color="#000000" stop-opacity="0" offset="100%"></stop>
        </linearGradient>
        <rect id="path-3" x="50.1694886" y="21.8565946" width="207.186515" height="215.563156" rx="10"></rect>
        <filter x="-50%" y="-50%" width="200%" height="200%" filterUnits="objectBoundingBox" id="filter-4">
            <feOffset dx="0" dy="-1" in="SourceAlpha" result="shadowOffsetInner1"></feOffset>
            <feComposite in="shadowOffsetInner1" in2="SourceAlpha" operator="arithmetic" k2="-1" k3="1" result="shadowInnerInner1"></feComposite>
            <feColorMatrix values="0 0 0 0 0.270588249   0 0 0 0 0.352941185   0 0 0 0 0.392156869  0 0 0 1 0" type="matrix" in="shadowInnerInner1"></feColorMatrix>
        </filter>
        <rect id="path-5" x="0" y="1" width="207.186515" height="215.563156" rx="10"></rect>
        <filter x="-50%" y="-50%" width="200%" height="200%" filterUnits="objectBoundingBox" id="filter-6">
            <feOffset dx="0" dy="-1" in="SourceAlpha" result="shadowOffsetInner1"></feOffset>
            <feComposite in="shadowOffsetInner1" in2="SourceAlpha" operator="arithmetic" k2="-1" k3="1" result="shadowInnerInner1"></feComposite>
            <feColorMatrix values="0 0 0 0 0.270588249   0 0 0 0 0.352941185   0 0 0 0 0.392156869  0 0 0 1 0" type="matrix" in="shadowInnerInner1"></feColorMatrix>
        </filter>
        <linearGradient x1="19.8848579%" y1="91.0220783%" x2="79.9692918%" y2="13.9313038%" id="linearGradient-7">
            <stop stop-color="#FFFFFF" offset="0%"></stop>
            <stop stop-color="#000000" offset="100%"></stop>
        </linearGradient>
        <rect id="path-8" x="80.731848" y="0" width="207.186515" height="215.563156" rx="10"></rect>
        <filter x="-50%" y="-50%" width="200%" height="200%" filterUnits="objectBoundingBox" id="filter-9">
            <feOffset dx="0" dy="-1" in="SourceAlpha" result="shadowOffsetInner1"></feOffset>
            <feComposite in="shadowOffsetInner1" in2="SourceAlpha" operator="arithmetic" k2="-1" k3="1" result="shadowInnerInner1"></feComposite>
            <feColorMatrix values="0 0 0 0 0.270588249   0 0 0 0 0.352941185   0 0 0 0 0.392156869  0 0 0 1 0" type="matrix" in="shadowInnerInner1"></feColorMatrix>
        </filter>
    </defs>
    <g id="Landing-page" stroke="none" stroke-width="1" fill="none" fill-rule="evenodd">
        <g id="Homepage-Desktop-Copy-7" transform="translate(-1048.000000, -1662.000000)">
            <g id="Group-25" transform="translate(959.000000, 1506.000000)">
                <g id="Group-23" transform="translate(88.831250, 156.000000)">
                    <g id="Group-37-Copy">
                        <g id="Rectangle-55-Copy-33">
                            <use fill="url(#linearGradient-1)" fill-rule="evenodd" xlink:href="#path-3"></use>
                            <use fill="url(#linearGradient-2)" fill-rule="evenodd" xlink:href="#path-3"></use>
                            <use fill="black" fill-opacity="1" filter="url(#filter-4)" xlink:href="#path-3"></use>
                        </g>
                        <g id="Group-32" opacity="0.536672108" transform="translate(63.850000, 12.000000)">
                            <g id="Rectangle-55-Copy-34" opacity="0.369811101">
                                <use fill="#EAEAEA" fill-rule="evenodd" xlink:href="#path-5"></use>
                                <use fill="url(#linearGradient-2)" fill-rule="evenodd" xlink:href="#path-5"></use>
                                <use fill="black" fill-opacity="1" filter="url(#filter-6)" xlink:href="#path-5"></use>
                            </g>
                            <path d="M103.284375,149 C125.605308,149 143.7,130.867532 143.7,108.5 C143.7,86.1324676 125.605308,68 103.284375,68 C80.9634417,68 62.86875,86.1324676 62.86875,108.5 C62.86875,130.867532 80.9634417,149 103.284375,149 Z" id="Oval-37" stroke="url(#linearGradient-7)"></path>
                            <path d="M102.785417,180 C142.467076,180 174.635417,147.764502 174.635417,108 C174.635417,68.235498 142.467076,36 102.785417,36 C63.1037574,36 30.9354167,68.235498 30.9354167,108 C30.9354167,147.764502 63.1037574,180 102.785417,180 Z" id="Oval-37" stroke="url(#linearGradient-7)"></path>
                            <path d="M102.785417,207.5 C157.623265,207.5 202.078125,162.952333 202.078125,108 C202.078125,53.0476674 157.623265,8.5 102.785417,8.5 C47.9475681,8.5 3.49270833,53.0476674 3.49270833,108 C3.49270833,162.952333 47.9475681,207.5 102.785417,207.5 Z" id="Oval-37" stroke="url(#linearGradient-7)"></path>
                            <path d="M0.498958333,108.5 L207.089407,108.5" id="Line" stroke="url(#linearGradient-7)" stroke-linecap="square"></path>
                            <path d="M0.498958333,67.5 L207.089407,67.5" id="Line-Copy-6" stroke="url(#linearGradient-7)" stroke-linecap="square"></path>
                            <path d="M0.498958333,149.5 L207.089407,149.5" id="Line-Copy-7" stroke="url(#linearGradient-7)" stroke-linecap="square"></path>
                            <path d="M0.498958333,180.5 L207.089407,180.5" id="Line-Copy-9" stroke="url(#linearGradient-7)" stroke-linecap="square"></path>
                            <path d="M0.498958333,35.5 L207.089407,35.5" id="Line-Copy-10" stroke="url(#linearGradient-7)" stroke-linecap="square"></path>
                            <path d="M102.785417,215.231972 L102.785417,0.989752769" id="Line" stroke="url(#linearGradient-7)" stroke-linecap="square"></path>
                            <path d="M62.86875,215.231972 L62.86875,0.989752769" id="Line-Copy-6" stroke="url(#linearGradient-7)" stroke-linecap="square"></path>
                            <path d="M143.7,215.231972 L143.7,0.989752769" id="Line-Copy-7" stroke="url(#linearGradient-7)" stroke-linecap="square"></path>
                            <path d="M174.635417,215.231972 L174.635417,0.989752769" id="Line-Copy-9" stroke="url(#linearGradient-7)" stroke-linecap="square"></path>
                            <path d="M30.9354167,215.231972 L30.9354167,0.989752769" id="Line-Copy-10" stroke="url(#linearGradient-7)" stroke-linecap="square"></path>
                        </g>
                        <path d="M16.5508932,22.1188738 L16.5508932,237.53747" id="Line" stroke="#828282" stroke-linecap="square"></path>
                        <path d="M49.2089573,266.388175 L256.683717,266.388175" id="Line" stroke="#828282" stroke-linecap="square"></path>
                        <text id="y" font-family="HelveticaNeue-Light, Helvetica Neue" font-size="19.1937328" font-weight="300" letter-spacing="0.330729157" fill="#727272">
                            <tspan x="149.298155" y="284.919436">y</tspan>
                        </text>
                        <text id="x" font-family="HelveticaNeue-Light, Helvetica Neue" font-size="19.1937328" font-weight="300" letter-spacing="0.330729157" fill="#727272">
                            <tspan x="0.910049009" y="134.40282">x</tspan>
                        </text>
                        <g id="Rectangle-55-Copy-29">
                            <use fill-opacity="0.1" fill="#E0DEDE" fill-rule="evenodd" xlink:href="#path-8"></use>
                            <use fill="url(#linearGradient-2)" fill-rule="evenodd" xlink:href="#path-8"></use>
                            <use fill="black" fill-opacity="1" filter="url(#filter-9)" xlink:href="#path-8"></use>
                        </g>
                    </g>
                    <path d="M253.792334,100.337575 L253.792334,85.9854722 L243.956904,85.9854722 L243.956904,100.337575 L229.793884,100.337575 L229.793884,110.589078 L243.956904,110.589078 L243.956904,125.351241 L253.792334,125.351241 L253.792334,110.589078 L267.561936,110.589078 L267.561936,100.337575 L253.792334,100.337575 L253.792334,100.337575 Z M182.190402,99.5174552 L182.190402,115.919859 C182.190402,115.919859 197.456563,115.898536 203.672555,115.898536 C200.306477,126.531804 195.072455,132.322263 182.190402,132.322263 C169.153736,132.322263 158.978786,121.306818 158.978786,107.718657 C158.978786,94.1304958 169.153736,83.1150515 182.190402,83.1150515 C189.083071,83.1150515 193.534587,85.6402016 197.617864,89.1597473 C200.886374,85.7529681 200.613343,85.2674569 208.929002,77.0822474 C201.869917,70.385146 192.487704,66.3025877 182.190402,66.3025877 C160.245196,66.3025877 142.455264,84.845095 142.455264,107.718657 C142.455264,130.591809 160.245196,149.134726 182.190402,149.134726 C214.992348,149.134726 223.009798,119.364364 220.351871,99.5174552 L182.190402,99.5174552 L182.190402,99.5174552 Z" id="GooglePlus-Copy-3" fill="#FFFFFF"></path>
                </g>
            </g>
        </g>
    </g>
</svg>