<?xml version="1.0" encoding="UTF-8" standalone="no"?>
<svg width="96px" height="95px" viewBox="0 0 96 95" version="1.1" xmlns="http://www.w3.org/2000/svg" xmlns:xlink="http://www.w3.org/1999/xlink">
    <!-- Generator: Sketch 39.1 (31720) - http://www.bohemiancoding.com/sketch -->
    <title>Group 44</title>
    <desc>Created with Sketch.</desc>
    <defs>
        <rect id="path-1" x="-7.8918533e-14" y="-7.16061514e-14" width="66.1464275" height="45.1539195" rx="5"></rect>
        <mask id="mask-2" maskContentUnits="userSpaceOnUse" maskUnits="objectBoundingBox" x="0" y="0" width="66.1464275" height="45.1539195" fill="white">
            <use xlink:href="#path-1"></use>
        </mask>
    </defs>
    <g id="Page-1" stroke="none" stroke-width="1" fill="none" fill-rule="evenodd">
        <g id="Group-44" transform="translate(0.000000, -1.000000)">
            <g id="Group-34">
                <path d="M4.59814469,53.0773472 L47.9520803,4.88413014" id="Line" stroke="#164591" stroke-linecap="square" opacity="0.3"></path>
                <polyline id="Line" stroke="#164591" stroke-linecap="square" opacity="0.3" points="4.59814469 53.0773472 49.7566291 86.9428511 81.5981447 22.4051996"></polyline>
                <g id="Group-29-Copy" transform="translate(16.124385, 20.168500)" stroke="#000000">
                    <g id="Group-28">
                        <g id="Group-27-Copy" transform="translate(33.613828, 23.220291) rotate(-180.000000) translate(-33.613828, -23.220291) translate(0.293439, 0.501844)" stroke-width="2" fill="#FFFFFF">
                            <use id="Rectangle-10" mask="url(#mask-2)" xlink:href="#path-1"></use>
                        </g>
                        <path d="M7.37561472,22.5 L60.3756147,22.5" id="Line" stroke-linecap="square"></path>
                        <path d="M7.37561472,32.5 L24.4050012,32.5" id="Line-Copy-7" stroke-linecap="square"></path>
                        <path d="M7.37561472,38.5 L29.3756147,38.5" id="Line-Copy-8" stroke-linecap="square"></path>
                        <path d="M49.3756147,32.5 L60.3756147,32.5" id="Line-Copy-9" stroke-linecap="square"></path>
                    </g>
                </g>
                <ellipse id="Oval-6-Copy-5" stroke="#000000" opacity="0.3" transform="translate(47.998763, 4.930414) rotate(-45.000000) translate(-47.998763, -4.930414) " cx="47.9987632" cy="4.93041375" rx="3.28438906" ry="3.25629845"></ellipse>
                <ellipse id="Oval-6-Copy-32" stroke="#000000" opacity="0.3" transform="translate(50.195053, 86.989135) rotate(-45.000000) translate(-50.195053, -86.989135) " cx="50.1950526" cy="86.9891347" rx="7.76969412" ry="7.70324174"></ellipse>
                <ellipse id="Oval-6-Copy-7" stroke="#000000" opacity="0.3" transform="translate(4.644828, 53.123631) rotate(-45.000000) translate(-4.644828, -53.123631) " cx="4.64482756" cy="53.1236308" rx="3.28438906" ry="3.25629845"></ellipse>
                <path d="M47.5,4.5 L81.5000003,19.4999993" id="Line" stroke="#164591" stroke-linecap="square" opacity="0.3"></path>
                <path d="M81.5000002,20.5 L4.59814469,53.0773472" id="Line" stroke="#164591" stroke-linecap="square" opacity="0.3"></path>
                <path d="M4.59814469,53.0773472 L11.1669228,16.6068046" id="Line" stroke="#164591" stroke-linecap="square" opacity="0.3"></path>
                <path d="M11.1669228,16.6068046 L47.9520803,4.88413014" id="Line" stroke="#164591" stroke-linecap="square" opacity="0.3"></path>
                <ellipse id="Oval-6-Copy-31" stroke="#000000" opacity="0.3" transform="translate(11.213606, 16.653088) rotate(-45.000000) translate(-11.213606, -16.653088) " cx="11.2136057" cy="16.6530882" rx="6.66580527" ry="6.6087942"></ellipse>
            </g>
            <g id="Group-Copy-6" transform="translate(68.383853, 7.264384)">
                <g id="Group-4">
                    <ellipse id="Oval-2-Copy-2" stroke="#164591" fill="#FFFFFF" cx="13.2006728" cy="13.1063179" rx="13.2006728" ry="13.1063179"></ellipse>
                    <g id="ic_check_circle_black_24px-(3)" transform="translate(6.600336, 8.042852)" fill="#164591">
                        <g id="Group">
                            <polygon id="Shape" points="4.76690962 9.68798125 0.183342678 5.11817877 1.47590856 3.82949448 4.76690962 7.10147305 11.7247642 0.164512889 13.0173301 1.46233679"></polygon>
                        </g>
                    </g>
                </g>
            </g>
        </g>
    </g>
</svg>