<?xml version="1.0" encoding="UTF-8" standalone="no"?>
<svg width="107px" height="101px" viewBox="0 0 107 101" version="1.1" xmlns="http://www.w3.org/2000/svg" xmlns:xlink="http://www.w3.org/1999/xlink">
    <!-- Generator: Sketch 39.1 (31720) - http://www.bohemiancoding.com/sketch -->
    <title>Group 3</title>
    <desc>Created with Sketch.</desc>
    <defs></defs>
    <g id="Page-3" stroke="none" stroke-width="1" fill="none" fill-rule="evenodd">
        <g id="Group-3" transform="translate(1.000000, 1.000000)" stroke="#000000">
            <circle id="Oval-6-Copy" cx="20.5" cy="34.5" r="2.5"></circle>
            <circle id="Oval-6-Copy" cx="44.5" cy="48.5" r="2.5"></circle>
            <circle id="Oval-6-Copy" cx="45.5" cy="37.5" r="2.5"></circle>
            <circle id="Oval-6-Copy" cx="17.5" cy="58.5" r="2.5"></circle>
            <circle id="Oval-6-Copy" cx="34.5" cy="70.5" r="2.5"></circle>
            <circle id="Oval-6-Copy" cx="33.5" cy="58.5" r="2.5"></circle>
            <circle id="Oval-6-Copy" cx="65.5" cy="81.5" r="2.5"></circle>
            <circle id="Oval-6-Copy" cx="46.5" cy="63.5" r="2.5"></circle>
            <circle id="Oval-6-Copy" cx="59.5" cy="46.5" r="2.5"></circle>
            <circle id="Oval-6-Copy" cx="85.5" cy="63.5" r="2.5"></circle>
            <circle id="Oval-6-Copy" cx="88.5" cy="74.5" r="2.5"></circle>
            <circle id="Oval-6-Copy" cx="92.5" cy="67.5" r="2.5"></circle>
            <circle id="Oval-6-Copy" cx="64.5" cy="86.5" r="2.5"></circle>
            <circle id="Oval-6-Copy" cx="34.5" cy="96.5" r="2.5"></circle>
            <circle id="Oval-6-Copy" cx="4.5" cy="67.5" r="2.5"></circle>
            <circle id="Oval-6-Copy" cx="3.5" cy="25.5" r="2.5"></circle>
            <circle id="Oval-6-Copy" cx="2.5" cy="14.5" r="2.5"></circle>
            <circle id="Oval-6-Copy" cx="2.5" cy="5.5" r="2.5"></circle>
            <circle id="Oval-6-Copy" cx="26.5" cy="15.5" r="2.5"></circle>
            <circle id="Oval-6-Copy" cx="36.5" cy="2.5" r="2.5"></circle>
            <circle id="Oval-6-Copy" cx="49.5" cy="22.5" r="2.5"></circle>
            <circle id="Oval-6-Copy" cx="72.5" cy="21.5" r="2.5"></circle>
            <circle id="Oval-6-Copy" cx="77.5" cy="29.5" r="2.5"></circle>
            <circle id="Oval-6-Copy-2" cx="80.5" cy="20.5" r="2.5"></circle>
            <circle id="Oval-6-Copy-3" cx="69.5" cy="63.5" r="2.5"></circle>
            <circle id="Oval-6-Copy-4" cx="97.5" cy="46.5" r="2.5"></circle>
            <circle id="Oval-6-Copy-5" cx="92.5" cy="38.5" r="2.5"></circle>
            <circle id="Oval-6-Copy-6" cx="102.5" cy="34.5" r="2.5"></circle>
            <circle id="Oval-6-Copy-7" cx="82.5" cy="37.5" r="2.5"></circle>
        </g>
    </g>
</svg>