<?xml version="1.0" encoding="UTF-8" standalone="no"?>
<svg width="111px" height="91px" viewBox="0 0 111 91" version="1.1" xmlns="http://www.w3.org/2000/svg" xmlns:xlink="http://www.w3.org/1999/xlink">
    <!-- Generator: Sketch 39.1 (31720) - http://www.bohemiancoding.com/sketch -->
    <title>Group 6</title>
    <desc>Created with Sketch.</desc>
    <defs></defs>
    <g id="Page-3" stroke="none" stroke-width="1" fill="none" fill-rule="evenodd">
        <g id="Group-6" transform="translate(1.000000, 1.000000)">
            <g id="Group" transform="translate(10.000000, 28.000000)">
                <g id="Group-4">
                    <ellipse id="Oval-2-Copy-2" stroke="#000000" cx="10.5" cy="10.4563492" rx="10.5" ry="10.4563492"></ellipse>
                    <g id="ic_check_circle_black_24px-(3)" transform="translate(5.250000, 6.416667)" fill="#000000">
                        <g id="Group">
                            <polygon id="Shape" points="3.79166667 7.72916667 0.145833333 4.08333333 1.17395833 3.05520833 3.79166667 5.665625 9.32604167 0.13125 10.3541667 1.16666667"></polygon>
                        </g>
                    </g>
                </g>
            </g>
            <g id="ic_person_black_24px-(3)" transform="translate(36.000000, 30.000000)" stroke="#000000">
                <g id="Group">
                    <path d="M35.3333333,12.3333333 C35.3333333,5.70333333 29.9633333,0.333333333 23.3333333,0.333333333 C16.7033333,0.333333333 11.3333333,5.70333333 11.3333333,12.3333333 C11.3333333,18.9633333 16.7033333,24.3333333 23.3333333,24.3333333 C29.9633333,24.3333333 35.3333333,18.9633333 35.3333333,12.3333333 Z M23,28.3333333 C15.435,28.3333333 0.333333333,32.13 0.333333333,39.6666667 L0.333333333,45.3333333 L45.6666667,45.3333333 L45.6666667,39.6666667 C45.6666667,32.13 30.565,28.3333333 23,28.3333333 L23,28.3333333 Z" id="Shape"></path>
                </g>
            </g>
            <circle id="Oval-6-Copy" stroke="#000000" cx="83.5" cy="30.5" r="2.5"></circle>
            <circle id="Oval-6-Copy-5" stroke="#000000" cx="105.5" cy="9.5" r="2.5"></circle>
            <circle id="Oval-6-Copy-12" stroke="#000000" cx="102.5" cy="23.5" r="2.5"></circle>
            <circle id="Oval-6-Copy-7" stroke="#000000" cx="83.5" cy="9.5" r="2.5"></circle>
            <circle id="Oval-6-Copy-8" stroke="#000000" cx="2.5" cy="62.5" r="2.5"></circle>
            <circle id="Oval-6-Copy-9" stroke="#000000" cx="14.5" cy="76.5" r="2.5"></circle>
            <circle id="Oval-6-Copy-8" stroke="#000000" cx="14.5" cy="57.5" r="2.5"></circle>
            <circle id="Oval-6-Copy-10" stroke="#000000" cx="36.5" cy="86.5" r="2.5"></circle>
            <circle id="Oval-6-Copy-11" stroke="#000000" cx="64.5" cy="86.5" r="2.5"></circle>
            <g id="Group-5" transform="translate(88.000000, 44.000000)">
                <ellipse id="Oval-2-Copy" stroke="#000000" cx="10.5" cy="10.4563492" rx="10.5" ry="10.4563492"></ellipse>
                <g id="ic_flag_black_24px" transform="translate(4.666667, 4.083333)">
                    <g id="Group">
                        <polygon id="Shape" points="0 0 12.8333333 0 12.8333333 12.8333333 0 12.8333333"></polygon>
                        <polygon id="Shape" fill="#000000" points="7.7 3.20833333 7.48611111 2.13888889 2.67361111 2.13888889 2.67361111 11.2291667 3.74305556 11.2291667 3.74305556 7.48611111 6.7375 7.48611111 6.95138889 8.55555556 10.6944444 8.55555556 10.6944444 3.20833333"></polygon>
                    </g>
                </g>
            </g>
            <g id="Group-5" transform="translate(45.000000, 0.000000)" stroke="#000000">
                <ellipse id="Oval-2-Copy" cx="10.5" cy="10.4563492" rx="10.5" ry="10.4563492"></ellipse>
            </g>
            <path d="M50.9416706,10.9071881 L50.9416706,9.06749766 L49.9524904,9.06749766 L49.9524904,10.9071881 L48.1128,10.9071881 L48.1128,11.8963683 L49.9524904,11.8963683 L49.9524904,13.7360587 L50.9416706,13.7360587 L50.9416706,11.8963683 L52.781361,11.8963683 L52.781361,10.9071881 L50.9416706,10.9071881 Z M55.8228592,13.7360587 L55.8228592,7.26478597 L54.7782109,7.26478597 C54.741232,7.51131188 54.6641938,7.71777423 54.547094,7.88417922 C54.4299942,8.05058421 54.2867032,8.18463066 54.1172166,8.2863226 C53.9477301,8.38801453 53.7566753,8.45888967 53.5440468,8.49895013 C53.3314182,8.53901059 53.1110889,8.55595899 52.8830525,8.54979584 L52.8830525,9.5389761 L54.5101153,9.5389761 L54.5101153,13.7360587 L55.8228592,13.7360587 Z M58.9290701,9.02127429 C58.9290701,8.87335874 58.9552631,8.74393458 59.0076499,8.63299792 C59.0600366,8.52206126 59.1324525,8.42961543 59.2248997,8.35565766 C59.317347,8.28169989 59.4236597,8.22469163 59.543841,8.18463117 C59.6640224,8.14457071 59.7888243,8.12454078 59.9182504,8.12454078 C60.1216343,8.12454078 60.286496,8.15535606 60.4128405,8.21698753 C60.539185,8.27861901 60.6377939,8.3556572 60.7086701,8.44810442 C60.7795463,8.54055163 60.82731,8.63761975 60.8519626,8.73931169 C60.8766152,8.84100363 60.8889413,8.93499022 60.8889413,9.02127429 C60.8889413,9.29861593 60.7964955,9.50970057 60.611601,9.65453455 C60.4267066,9.79936852 60.195592,9.87178442 59.9182504,9.87178442 C59.653235,9.87178442 59.4221205,9.79936852 59.2248997,9.65453455 C59.027679,9.50970057 58.9290701,9.29861593 58.9290701,9.02127429 L58.9290701,9.02127429 Z M57.736507,8.90109351 C57.736507,9.22157719 57.8166267,9.5019962 57.9768686,9.74235896 C58.1371104,9.98272172 58.374388,10.1460427 58.6887086,10.2323268 L58.6887086,10.2508161 C58.3004303,10.3432633 57.9999813,10.528155 57.7873527,10.8054966 C57.5747241,11.0828383 57.4684114,11.4279694 57.4684114,11.8409003 C57.4684114,12.1921997 57.5377458,12.4941894 57.6764166,12.7468784 C57.8150874,12.9995675 57.9999791,13.2091114 58.2310971,13.3755164 C58.4622152,13.5419214 58.724145,13.6636417 59.0168945,13.740681 C59.3096441,13.8177204 59.6131745,13.8562395 59.9274951,13.8562395 C60.2294893,13.8562395 60.525316,13.8146389 60.8149839,13.7314364 C61.1046518,13.6482339 61.3635002,13.523432 61.5915366,13.357027 C61.8195731,13.190622 62.002924,12.9810781 62.1415948,12.7283891 C62.2802656,12.4757 62.3496,12.1767919 62.3496,11.8316556 C62.3496,11.4248878 62.2448281,11.0812975 62.035281,10.8008743 C61.825734,10.5204511 61.5268258,10.3371002 61.1385475,10.2508161 L61.1385475,10.2323268 C61.4528681,10.1275532 61.6886049,9.9549877 61.8457652,9.71462494 C62.0029255,9.47426217 62.0815044,9.19384316 62.0815044,8.87335948 C62.0815044,8.71311764 62.0445261,8.53284827 61.9705683,8.33254597 C61.8966105,8.13224367 61.7748902,7.94427049 61.6054036,7.76862078 C61.4359171,7.59297107 61.2125063,7.44351698 60.9351647,7.32025403 C60.657823,7.19699107 60.318855,7.13536052 59.9182504,7.13536052 C59.653235,7.13536052 59.3913052,7.17233885 59.132453,7.24629662 C58.8736008,7.3202544 58.6409454,7.43118939 58.43448,7.57910494 C58.2280146,7.72702048 58.0600713,7.91191214 57.9306452,8.13378545 C57.8012191,8.35565877 57.736507,8.61142556 57.736507,8.90109351 L57.736507,8.90109351 Z M58.7811553,11.7761875 C58.7811553,11.4433776 58.8920903,11.1891515 59.1139636,11.0135018 C59.335837,10.8378521 59.6070114,10.7500286 59.9274951,10.7500286 C60.0815738,10.7500286 60.2248648,10.7746808 60.3573725,10.823986 C60.4898801,10.8732912 60.6069782,10.9441663 60.7086701,11.0366135 C60.8103621,11.1290607 60.8904818,11.238455 60.9490317,11.3647995 C61.0075816,11.491144 61.0368561,11.6313535 61.0368561,11.7854322 C61.0368561,11.945674 61.0091224,12.0935874 60.953654,12.2291766 C60.8981857,12.3647659 60.8196067,12.4803232 60.7179148,12.5758519 C60.6162229,12.6713807 60.4991248,12.7453374 60.3666171,12.7977242 C60.2341095,12.8501109 60.0877369,12.8763039 59.9274951,12.8763039 C59.7734164,12.8763039 59.625503,12.8501109 59.4837506,12.7977242 C59.3419983,12.7453374 59.2202779,12.6713807 59.118586,12.5758519 C59.016894,12.4803232 58.9352336,12.3647659 58.8736021,12.2291766 C58.8119706,12.0935874 58.7811553,11.9425925 58.7811553,11.7761875 L58.7811553,11.7761875 Z" id="+18" fill="#000000"></path>
        </g>
    </g>
</svg>