<?xml version="1.0" encoding="UTF-8" standalone="no"?>
<svg width="42px" height="32px" viewBox="0 0 42 32" version="1.1" xmlns="http://www.w3.org/2000/svg" xmlns:xlink="http://www.w3.org/1999/xlink">
    <!-- Generator: Sketch 39.1 (31720) - http://www.bohemiancoding.com/sketch -->
    <title>Group 126</title>
    <desc>Created with Sketch.</desc>
    <defs>
        <path d="M6.45418327,12.8134814 C10.0187303,12.8134814 12.9083665,9.95529919 12.9083665,6.42955279 C12.9083665,2.9038064 10.0187303,0.0456242221 6.45418327,0.0456242221 C2.88963628,0.0456242221 0,2.9038064 0,6.42955279 C0,9.95529919 2.88963628,12.8134814 6.45418327,12.8134814 Z" id="path-1"></path>
        <path d="M6.39442231,9.67955279 C8.05250023,9.67955279 8.7250996,8.27644518 8.7250996,6.54562422 C8.7250996,4.81480327 8.06539604,3.41169565 6.39442231,3.41169565 C4.72344858,3.41169565 4.06374502,4.81480327 4.06374502,6.54562422 C4.06374502,8.27644518 4.73634439,9.67955279 6.39442231,9.67955279 Z" id="path-3"></path>
        <rect id="path-5" x="0" y="0" width="42" height="32"></rect>
        <mask id="mask-6" maskContentUnits="userSpaceOnUse" maskUnits="objectBoundingBox" x="0" y="0" width="42" height="32" fill="white">
            <use xlink:href="#path-5"></use>
        </mask>
    </defs>
    <g id="Page-1" stroke="none" stroke-width="1" fill="none" fill-rule="evenodd">
        <g id="Group-126">
            <g id="Group-124">
                <g id="Group-64-Copy" transform="translate(6.000000, 9.000000)">
                    <g id="Group-63">
                        <polygon id="Rectangle-17" fill="#E96313" points="24.8116865 1.09599042 29.7929705 0 21.5139442 12.9295528 17.3081287 12.9295524"></polygon>
                        <polygon id="Rectangle-18" fill="#E96313" points="18.4449517 2.12729228 22.4918784 1.39539314 29.9111255 12.929553 25.6972112 12.9295528"></polygon>
                        <rect id="Rectangle-16" fill="#E96313" x="13.3864542" y="0.161695651" width="4.06374502" height="12.7678571"></rect>
                        <mask id="mask-2" fill="white">
                            <use xlink:href="#path-1"></use>
                        </mask>
                        <use id="Mask" fill="#E96313" xlink:href="#path-1"></use>
                        <mask id="mask-4" fill="white">
                            <use xlink:href="#path-3"></use>
                        </mask>
                        <use id="Mask" fill="#FFFFFF" xlink:href="#path-3"></use>
                    </g>
                    <polygon id="Rectangle-15" fill="#FFFFFF" points="7.4462556 5.84079174 17.5697211 1.67062422 29.7950039 0.0234597849 7.07540687 6.20999323"></polygon>
                </g>
                <use id="Rectangle-22" stroke="#212121" mask="url(#mask-6)" opacity="0.3" xlink:href="#path-5"></use>
            </g>
            <path d="M34.5,0.5 L41.5,7.5" id="Path" stroke="#212121" stroke-width="0.5" fill="#D8D8D8" opacity="0.3"></path>
        </g>
    </g>
</svg>