<?xml version="1.0" encoding="UTF-8" standalone="no"?>
<svg width="251px" height="112px" viewBox="0 0 251 112" version="1.1" xmlns="http://www.w3.org/2000/svg" xmlns:xlink="http://www.w3.org/1999/xlink">
    <!-- Generator: Sketch 39.1 (31720) - http://www.bohemiancoding.com/sketch -->
    <title>Group 66</title>
    <desc>Created with Sketch.</desc>
    <defs>
        <path d="M54,111 C83.8233765,111 108,86.3756612 108,56 C108,25.6243388 83.8233765,1 54,1 C24.1766235,1 0,25.6243388 0,56 C0,86.3756612 24.1766235,111 54,111 Z" id="path-1"></path>
        <path d="M53.5,84 C67.3725853,84 73,71.9116882 73,57 C73,42.0883118 67.4804802,30 53.5,30 C39.5195198,30 34,42.0883118 34,57 C34,71.9116882 39.6274147,84 53.5,84 Z" id="path-3"></path>
    </defs>
    <g id="Page-1" stroke="none" stroke-width="1" fill="none" fill-rule="evenodd">
        <g id="Group-66">
            <polygon id="Rectangle-17" fill="#E96313" points="207.59111 10.0493088 249.267853 0.606929779 180 112 144.811344 111.999996"></polygon>
            <polygon id="Rectangle-18" fill="#E96313" points="154.322762 18.934371 188.18205 12.6287784 250.256417 112.000002 215 112"></polygon>
            <rect id="Rectangle-16" fill="#E96313" x="112" y="2" width="34" height="110"></rect>
            <polygon id="Rectangle-15" fill="#FFFFFF" points="62.3003385 50.927597 147 15 249.284866 0.809044849 59.1975708 54.1084099"></polygon>
            <mask id="mask-2" fill="white">
                <use xlink:href="#path-1"></use>
            </mask>
            <use id="Mask" fill="#E96313" xlink:href="#path-1"></use>
            <mask id="mask-4" fill="white">
                <use xlink:href="#path-3"></use>
            </mask>
            <use id="Mask" fill="#FFFFFF" xlink:href="#path-3"></use>
        </g>
    </g>
</svg>