<?xml version="1.0" encoding="UTF-8" standalone="no"?>
<svg width="102px" height="94px" viewBox="0 0 102 94" version="1.1" xmlns="http://www.w3.org/2000/svg" xmlns:xlink="http://www.w3.org/1999/xlink">
    <!-- Generator: Sketch 39.1 (31720) - http://www.bohemiancoding.com/sketch -->
    <title>Group 130</title>
    <desc>Created with Sketch.</desc>
    <defs>
        <rect id="path-1" x="2.20268248e-13" y="-9.59232693e-14" width="47.4210553" height="42.2090986" rx="5"></rect>
        <mask id="mask-2" maskContentUnits="userSpaceOnUse" maskUnits="objectBoundingBox" x="0" y="0" width="47.4210553" height="42.2090986" fill="white">
            <use xlink:href="#path-1"></use>
        </mask>
    </defs>
    <g id="Page-1" stroke="none" stroke-width="1" fill="none" fill-rule="evenodd">
        <g id="Group-130">
            <g id="Group-129" transform="translate(42.000000, 46.500000) rotate(-180.000000) translate(-42.000000, -46.500000) ">
                <path d="M6.43569187,63.9650081 L39.5,81.5000003" id="Line-Copy-12" stroke="#164591" stroke-linecap="square" opacity="0.3"></path>
                <path d="M6.43569187,64.3946604 L48.1785545,52.4296942" id="Line-Copy-12" stroke="#164591" stroke-linecap="square" opacity="0.3"></path>
                <path d="M47.4067618,52.9650081 L40.4356919,76.9677594" id="Line-Copy-12" stroke="#164591" stroke-linecap="square" opacity="0.3"></path>
                <path d="M47.9164425,51.0010737 L66.9164429,70.0010729" id="Line-Copy-12" stroke="#164591" stroke-linecap="square" opacity="0.3"></path>
                <path d="M47.7878262,51.5363875 L73.5,24.5" id="Line-Copy-12" stroke="#164591" stroke-linecap="square" opacity="0.3"></path>
                <path d="M66.7460002,70.4300376 L73.5,24.5" id="Line-Copy-12" stroke="#164591" stroke-linecap="square" opacity="0.3"></path>
                <path d="M66.8875122,69.9990101 L39.5,80.5000001" id="Line-Copy-12" stroke="#164591" stroke-linecap="square" opacity="0.3"></path>
                <path d="M6.43569187,63.483822 L40.5,3.5" id="Line" stroke="#164591" stroke-linecap="square" opacity="0.3"></path>
                <ellipse id="Oval-6-Copy-5" stroke="#000000" opacity="0.3" cx="40.8497508" cy="2.80349916" rx="2.84975082" ry="2.80349916"></ellipse>
                <path d="M40.5,3.50000006 L72.5,25.5000001" id="Line" stroke="#164591" stroke-linecap="square" opacity="0.3"></path>
                <path d="M6.43569187,36.9093489 L40.5,3.5" id="Line" stroke="#164591" stroke-linecap="square" opacity="0.3"></path>
                <path d="M6.43569187,37.7659022 L49.1785545,51.3754111" id="Line" stroke="#164591" stroke-linecap="square" opacity="0.3"></path>
                <path d="M5.5,37.7659022 L5.5,63.4831358" id="Line" stroke="#164591" stroke-linecap="square" opacity="0.3"></path>
                <ellipse id="Oval-6-Copy-31" stroke="#000000" opacity="0.3" cx="5.78368873" cy="37.2262066" rx="5.78368873" ry="5.68981906"></ellipse>
                <ellipse id="Oval-2-Copy" stroke="#164591" fill="#FFFFFF" cx="67.1495293" cy="69.5" rx="9.14952926" ry="8.96361249"></ellipse>
                <path d="M65,67.3230402 L66.0076585,67.3230402 L66.0076585,65.5363875 L67.3433918,65.5363875 L67.3433918,67.3230402 L68.5502385,67.3230402 L68.5502385,68.3028175 L67.3433918,68.3028175 L67.3433918,71.484212 C67.3433918,71.6225342 67.3492502,71.7416432 67.3609672,71.8415426 C67.3726842,71.9414419 67.4000235,72.0259709 67.4429859,72.095132 C67.4859483,72.1642931 67.5503909,72.2161631 67.6363157,72.2507437 C67.7222405,72.2853242 67.8394089,72.3026142 67.9878245,72.3026142 C68.0815606,72.3026142 68.1752954,72.3006931 68.2690315,72.2968508 C68.3627676,72.2930085 68.4565024,72.2795608 68.5502385,72.2565071 L68.5502385,73.2708647 C68.401823,73.2862339 68.2573152,73.3016028 68.116711,73.3169719 C67.9761068,73.332341 67.8315991,73.3400255 67.6831836,73.3400255 C67.331673,73.3400255 67.048516,73.3073666 66.833704,73.2420477 C66.6188921,73.1767289 66.4509507,73.0806733 66.3298748,72.953878 C66.208799,72.8270826 66.1267811,72.6676303 66.0838187,72.4755161 C66.0408563,72.2834019 66.0154698,72.0643951 66.0076585,71.818489 L66.0076585,68.3028175 L65,68.3028175 L65,67.3230402 Z" id="t" fill="#164591" transform="translate(66.775119, 69.438206) rotate(-180.000000) translate(-66.775119, -69.438206) "></path>
                <ellipse id="Oval-2-Copy" stroke="#164591" fill="#FFFFFF" cx="74.1495293" cy="24.5" rx="9.14952926" ry="8.96361249"></ellipse>
                <path d="M70,21.5363875 L71.2797014,21.5363875 L71.2797014,22.7290597 L70,22.7290597 L70,21.5363875 Z M70,23.7119099 L71.2797014,23.7119099 L71.2797014,29.4212756 L70,29.4212756 L70,23.7119099 Z M72.6716572,23.7119099 L73.8840059,23.7119099 L73.8840059,24.5511977 L73.9064568,24.5732842 C74.1010322,24.2567091 74.3554732,24.0082382 74.6697874,23.8278641 C74.9841016,23.6474899 75.3320871,23.5573042 75.7137543,23.5573042 C76.3498663,23.5573042 76.8512648,23.7192704 77.2179647,24.0432077 C77.5846646,24.3671449 77.7680117,24.8530435 77.7680117,25.5009181 L77.7680117,29.4212756 L76.4883104,29.4212756 L76.4883104,25.8322159 C76.473343,25.3831211 76.3760568,25.0573481 76.1964487,24.8548873 C76.0168406,24.6524265 75.7362071,24.5511977 75.3545399,24.5511977 C75.1375134,24.5511977 74.9429409,24.5898487 74.7708165,24.6671519 C74.598692,24.7444551 74.4527626,24.8512056 74.3330239,24.9874065 C74.2132852,25.1236074 74.1197407,25.283733 74.0523876,25.4677883 C73.9850346,25.6518436 73.9513586,25.8469392 73.9513586,26.0530811 L73.9513586,29.4212756 L72.6716572,29.4212756 L72.6716572,23.7119099 Z" id="in" fill="#164591" transform="translate(73.884006, 25.478832) rotate(-180.000000) translate(-73.884006, -25.478832) "></path>
                <ellipse id="Oval-2-Copy" stroke="#164591" fill="#FFFFFF" transform="translate(39.149529, 83.500000) rotate(-180.000000) translate(-39.149529, -83.500000) " cx="39.1495293" cy="83.5" rx="9.14952926" ry="8.96361249"></ellipse>
                <path d="M39.7162773,86.8028201 L39.0191703,86.8028201 L38.8536074,86.0827375 C38.5631447,86.4084908 38.2726864,86.6342287 37.9822237,86.759958 C37.691761,86.8856874 37.3577339,86.9485511 36.9801324,86.9485511 C36.5153921,86.9485511 36.0985843,86.8642565 35.7296967,86.6956649 C35.3608091,86.5270733 35.0485664,86.2970493 34.7929592,86.0055858 C34.537352,85.7141224 34.3412926,85.3740868 34.2047752,84.9854689 C34.0682577,84.596851 34,84.1825219 34,83.7424693 C34,83.3081316 34.0682577,82.89666 34.2047752,82.5080421 C34.3412926,82.1194242 34.537352,81.7793886 34.7929592,81.4879251 C35.0485664,81.1964617 35.3608091,80.9650089 35.7296967,80.7935598 C36.0985843,80.6221108 36.5153921,80.5363875 36.9801324,80.5363875 C37.3170691,80.5363875 37.6380256,80.5806779 37.9430114,80.6692599 C38.2479973,80.7578419 38.5195758,80.8892842 38.7577552,81.0635908 C38.9959346,81.2378974 39.1934463,81.4564917 39.3502962,81.7193802 C39.507146,81.9822688 39.6059018,82.2851577 39.6465666,82.6280558 L38.5834785,82.6280558 C38.5544322,82.4280319 38.4919837,82.2522992 38.396131,82.1008525 C38.3002783,81.9494059 38.1797381,81.8222497 38.0345067,81.7193802 C37.8892754,81.6165108 37.7266187,81.5393599 37.5465318,81.4879251 C37.3664449,81.4364904 37.177647,81.4107734 36.9801324,81.4107734 C36.6490049,81.4107734 36.3629034,81.4764946 36.1218194,81.6079389 C35.8807354,81.7393832 35.684676,81.9151159 35.5336354,82.1351422 C35.3825948,82.3551685 35.2707683,82.6051947 35.1981526,82.8852282 C35.125537,83.1652617 35.0892297,83.4510059 35.0892297,83.7424693 C35.0892297,84.0339327 35.125537,84.3196769 35.1981526,84.5997104 C35.2707683,84.8797439 35.3825948,85.1297701 35.5336354,85.3497964 C35.684676,85.5698227 35.8807354,85.7455554 36.1218194,85.8769997 C36.3629034,86.008444 36.6490049,86.0741651 36.9801324,86.0741651 C37.2589766,86.0798801 37.5058662,86.0441621 37.7208086,85.96701 C37.935751,85.8898579 38.1172874,85.7784177 38.2654234,85.632686 C38.4135594,85.4869542 38.5253858,85.3083641 38.6009061,85.0969103 C38.6764264,84.8854564 38.7170906,84.6511462 38.7228999,84.3939725 L37.0672708,84.3939725 L37.0672708,83.5795935 L39.7162773,83.5795935 L39.7162773,86.8028201 Z M42.4088531,82.46518 L43.2976645,82.46518 L43.2976645,84.1968071 L45.0491458,84.1968071 L45.0491458,85.071193 L43.2976645,85.071193 L43.2976645,86.8028201 L42.4088531,86.8028201 L42.4088531,85.071193 L40.6573718,85.071193 L40.6573718,84.1968071 L42.4088531,84.1968071 L42.4088531,82.46518 Z" id="G+" fill="#164591" transform="translate(39.733705, 83.742469) rotate(-180.000000) translate(-39.733705, -83.742469) "></path>
                <ellipse id="Oval-2-Copy" stroke="#164591" fill="#FFFFFF" cx="48.1495293" cy="50.5" rx="9.14952926" ry="8.96361249"></ellipse>
                <path d="M46,49.0195808 L47.0891048,49.0195808 L47.0891048,48.477564 C47.0891048,48.0657972 47.1403563,47.7317669 47.2428608,47.4754631 C47.3453653,47.2191593 47.4820359,47.0216823 47.6528767,46.8830262 C47.8237176,46.74437 48.0180461,46.651934 48.2358681,46.6057152 C48.4536902,46.5594965 48.6821864,46.5363875 48.9213635,46.5363875 C49.3911758,46.5363875 49.7328523,46.565799 49.9464033,46.6246228 L49.9464033,47.7464715 C49.8524409,47.7212613 49.7520734,47.702354 49.6452979,47.6897489 C49.5385224,47.6771437 49.4125292,47.6708413 49.2673145,47.6708413 C49.0708475,47.6708413 48.9021447,47.7170593 48.761201,47.8094967 C48.6202574,47.9019342 48.5497866,48.0826046 48.5497866,48.3515136 L48.5497866,49.0195808 L49.7926474,49.0195808 L49.7926474,50.0910094 L48.5497866,50.0910094 L48.5497866,55.5363875 L47.0891048,55.5363875 L47.0891048,50.0910094 L46,50.0910094 L46,49.0195808 Z" id="f" fill="#164591" transform="translate(47.973202, 51.036388) rotate(-180.000000) translate(-47.973202, -51.036388) "></path>
            </g>
            <g id="Group-128" transform="translate(54.000000, 27.000000)">
                <g id="Group-27-Copy" transform="translate(24.000000, 21.500000) rotate(-180.000000) translate(-24.000000, -21.500000) " stroke="#000000" stroke-width="2" fill="#FFFFFF">
                    <use id="Rectangle-10" mask="url(#mask-2)" xlink:href="#path-1"></use>
                </g>
                <path d="M5.89313568,11.4510869 L42.7512687,11.4510869" id="Line" stroke="#000000" stroke-linecap="square"></path>
                <path d="M5.41151386,32.951087 L14.561632,32.951087" id="Line-Copy-7" stroke="#000000" stroke-linecap="square"></path>
                <path d="M5.41151386,36.391087 L22.7142857,36.3910869" id="Line-Copy-8" stroke="#000000" stroke-linecap="square"></path>
                <g id="Group-127" transform="translate(5.142857, 18.060000)" fill="#FFFFFF" stroke="#164591">
                    <g id="Group-51">
                        <ellipse id="Oval-2-Copy" cx="23.793701" cy="3.85435337" rx="3.8771681" ry="3.85435337"></ellipse>
                        <ellipse id="Oval-2-Copy-4" cx="33.5400894" cy="3.85435337" rx="3.8771681" ry="3.85435337"></ellipse>
                        <ellipse id="Oval-2-Copy" cx="4.23756019" cy="3.85435337" rx="3.8771681" ry="3.85435337"></ellipse>
                        <ellipse id="Oval-2-Copy-5" cx="14.0473126" cy="3.85435337" rx="3.8771681" ry="3.85435337"></ellipse>
                    </g>
                </g>
            </g>
        </g>
    </g>
</svg>