<?xml version="1.0" encoding="UTF-8" standalone="no"?>
<svg width="81px" height="94px" viewBox="0 0 81 94" version="1.1" xmlns="http://www.w3.org/2000/svg" xmlns:xlink="http://www.w3.org/1999/xlink">
    <!-- Generator: Sketch 39.1 (31720) - http://www.bohemiancoding.com/sketch -->
    <title>Group 36</title>
    <desc>Created with Sketch.</desc>
    <defs></defs>
    <g id="Page-1" stroke="none" stroke-width="1" fill="none" fill-rule="evenodd">
        <g id="Group-36" transform="translate(-7.000000, -7.000000)">
            <g id="Group-37" opacity="0.3">
                <g id="Group-35" transform="translate(47.143629, 51.757554) rotate(6.000000) translate(-47.143629, -51.757554) translate(5.643629, 4.757554)">
                    <path d="M77.412715,91.7460916 C79.2071158,91.7460916 80.6617651,90.2958107 80.6617651,88.5067984 C80.6617651,86.7177862 79.2071158,85.2675052 77.412715,85.2675052 C75.6183142,85.2675052 74.1636649,86.7177862 74.1636649,88.5067984 C74.1636649,90.2958107 75.6183142,91.7460916 77.412715,91.7460916 Z" id="Oval-6-Copy-36" stroke="#000000" transform="translate(77.412715, 88.506798) rotate(-45.000000) translate(-77.412715, -88.506798) "></path>
                    <path d="M55.3247635,8.29752537 C57.1191643,8.29752537 58.5738136,6.8472444 58.5738136,5.05823216 C58.5738136,3.26921993 57.1191643,1.81893896 55.3247635,1.81893896 C53.5303626,1.81893896 52.0757133,3.26921993 52.0757133,5.05823216 C52.0757133,6.8472444 53.5303626,8.29752537 55.3247635,8.29752537 Z" id="Oval-6-Copy-33" stroke="#000000" transform="translate(55.324763, 5.058232) rotate(-45.000000) translate(-55.324763, -5.058232) "></path>
                    <ellipse id="Oval-6-Copy-17" stroke="#000000" transform="translate(28.070714, 53.444331) rotate(-45.000000) translate(-28.070714, -53.444331) " cx="28.070714" cy="53.4443313" rx="2.46372552" ry="2.45632695"></ellipse>
                    <ellipse id="Oval-6-Copy-35" stroke="#000000" transform="translate(18.973374, 68.690360) rotate(-45.000000) translate(-18.973374, -68.690360) " cx="18.9733737" cy="68.6903596" rx="5.76069845" ry="5.74339905"></ellipse>
                    <path d="M7.36915441,51.6520091 C10.1011902,51.6520091 12.3159427,49.4439075 12.3159427,46.720076 C12.3159427,43.9962446 10.1011902,41.7881429 7.36915441,41.7881429 C4.63711866,41.7881429 2.42236609,43.9962446 2.42236609,46.720076 C2.42236609,49.4439075 4.63711866,51.6520091 7.36915441,51.6520091 Z" id="Oval-6-Copy-20" stroke="#000000" transform="translate(7.369154, 46.720076) rotate(-45.000000) translate(-7.369154, -46.720076) "></path>
                    <path d="M19.1137551,68.659459 L27.9594393,53.4011325" id="Line" stroke="#164591" stroke-linecap="square"></path>
                    <path d="M19.1137547,68.659459 L7.32297384,46.6740341" id="Line" stroke="#164591" stroke-linecap="square"></path>
                    <path d="M27.9594396,53.4011331 L55.547752,5.04421773" id="Line" stroke="#164591" stroke-linecap="square"></path>
                    <path d="M77.3614569,88.219712 L55.5477524,5.0442177" id="Line" stroke="#164591" stroke-linecap="square"></path>
                </g>
                <path d="M15.5633694,50.2473658 L63.4826626,8.8714593" id="Line" stroke="#164591" stroke-linecap="square" transform="translate(39.413559, 29.432271) rotate(6.000000) translate(-39.413559, -29.432271) "></path>
                <path d="M21.399513,73.9867607 L79.6567914,93.5464149" id="Line" stroke="#164591" stroke-linecap="square" transform="translate(50.899513, 83.986761) rotate(6.000000) translate(-50.899513, -83.986761) "></path>
                <path d="M33.0062309,56.7158431 L13.5119302,47.6458221" id="Line" stroke="#164591" stroke-linecap="square"></path>
            </g>
            <g id="Group" transform="translate(31.056801, 32.745073)" stroke="#000000" fill="#FFFFFF">
                <path d="M35.9030363,12.4945577 C35.9030363,5.77788872 30.4464522,0.337690749 23.7095523,0.337690749 C16.9726524,0.337690749 11.5160683,5.77788872 11.5160683,12.4945577 C11.5160683,19.2112267 16.9726524,24.6514247 23.7095523,24.6514247 C30.4464522,24.6514247 35.9030363,19.2112267 35.9030363,12.4945577 Z M23.3708444,28.7037137 C15.6838688,28.7037137 0.33870789,32.5500113 0.33870789,40.1851991 L0.33870789,45.9259419 L46.4029809,45.9259419 L46.4029809,40.1851991 C46.4029809,32.5500113 31.05782,28.7037137 23.3708444,28.7037137 L23.3708444,28.7037137 Z" id="Shape"></path>
            </g>
            <path d="M31.0348028,59.2236347 L80.4441275,94.0434093" id="Line" stroke="#164591" stroke-linecap="square" opacity="0.3" transform="translate(56.034803, 76.723635) rotate(6.000000) translate(-56.034803, -76.723635) "></path>
            <g id="Group-Copy-6" transform="translate(59.894541, 22.379335)">
                <g id="Group-4">
                    <ellipse id="Oval-2-Copy-2" stroke="#164591" fill="#FFFFFF" cx="13.6460105" cy="13.5484724" rx="13.6460105" ry="13.5484724"></ellipse>
                    <g id="ic_check_circle_black_24px-(3)" transform="translate(6.823005, 8.314186)" fill="#164591">
                        <g id="Group">
                            <polygon id="Shape" points="4.927726 10.0148148 0.189527923 5.29084556 1.52569978 3.95868623 4.927726 7.34104822 12.1203107 0.170062893 13.4564825 1.51167016"></polygon>
                        </g>
                    </g>
                </g>
            </g>
        </g>
    </g>
</svg>