<?xml version="1.0" encoding="UTF-8" standalone="no"?>
<svg width="323px" height="384px" viewBox="0 0 323 384" version="1.1" xmlns="http://www.w3.org/2000/svg" xmlns:xlink="http://www.w3.org/1999/xlink">
    <!-- Generator: Sketch 3.8.3 (29802) - http://www.bohemiancoding.com/sketch -->
    <title>Group 57</title>
    <desc>Created with Sketch.</desc>
    <defs>
        <rect id="path-1" x="0" y="0.496855346" width="358" height="394.503145"></rect>
        <linearGradient x1="50%" y1="0%" x2="50%" y2="100%" id="linearGradient-3">
            <stop stop-color="#ECEFF0" offset="0%"></stop>
            <stop stop-color="#EDEFF0" offset="100%"></stop>
        </linearGradient>
        <rect id="path-4" x="3" y="0" width="314.655305" height="649.551609" rx="20"></rect>
        <filter x="-50%" y="-50%" width="200%" height="200%" filterUnits="objectBoundingBox" id="filter-5">
            <feGaussianBlur stdDeviation="1" in="SourceAlpha" result="shadowBlurInner1"></feGaussianBlur>
            <feOffset dx="0" dy="0" in="shadowBlurInner1" result="shadowOffsetInner1"></feOffset>
            <feComposite in="shadowOffsetInner1" in2="SourceAlpha" operator="arithmetic" k2="-1" k3="1" result="shadowInnerInner1"></feComposite>
            <feColorMatrix values="0 0 0 0 0   0 0 0 0 0   0 0 0 0 0  0 0 0 0.200000003 0" type="matrix" in="shadowInnerInner1"></feColorMatrix>
        </filter>
        <rect id="path-6" x="8" y="5" width="304.822327" height="639.747056" rx="17.1"></rect>
        <rect id="path-7" x="10.4517577" y="7.30676162" width="299.905837" height="634.84478" rx="16.2"></rect>
        <filter x="-50%" y="-50%" width="200%" height="200%" filterUnits="objectBoundingBox" id="filter-8">
            <feGaussianBlur stdDeviation="0.5" in="SourceAlpha" result="shadowBlurInner1"></feGaussianBlur>
            <feOffset dx="0" dy="1" in="shadowBlurInner1" result="shadowOffsetInner1"></feOffset>
            <feComposite in="shadowOffsetInner1" in2="SourceAlpha" operator="arithmetic" k2="-1" k3="1" result="shadowInnerInner1"></feComposite>
            <feColorMatrix values="0 0 0 0 1   0 0 0 0 1   0 0 0 0 1  0 0 0 1 0" type="matrix" in="shadowInnerInner1"></feColorMatrix>
        </filter>
        <linearGradient x1="50%" y1="100%" x2="50%" y2="0%" id="linearGradient-9">
            <stop stop-color="#E0E2E3" stop-opacity="0" offset="0%"></stop>
            <stop stop-color="#E6E9EB" offset="100%"></stop>
        </linearGradient>
        <path d="M135.340315,38.6813299 L181.649304,38.6813299 C183.116768,38.6813299 184.306377,39.7787395 184.306377,41.132468 C184.306377,42.4861966 183.116768,43.5836062 181.649304,43.5836062 L135.340315,43.5836062 C133.872851,43.5836062 132.683242,42.4861966 132.683242,41.132468 C132.683242,39.7787395 133.872851,38.6813299 135.340315,38.6813299 L135.340315,38.6813299 Z" id="path-10"></path>
        <filter x="-50%" y="-50%" width="200%" height="200%" filterUnits="objectBoundingBox" id="filter-11">
            <feOffset dx="0" dy="1" in="SourceAlpha" result="shadowOffsetInner1"></feOffset>
            <feComposite in="shadowOffsetInner1" in2="SourceAlpha" operator="arithmetic" k2="-1" k3="1" result="shadowInnerInner1"></feComposite>
            <feColorMatrix values="0 0 0 0 0   0 0 0 0 0   0 0 0 0 0  0 0 0 0.01 0" type="matrix" in="shadowInnerInner1"></feColorMatrix>
        </filter>
        <rect id="path-12" x="0" y="0" width="280" height="305"></rect>
        <polygon id="path-14" points="0 18.9377926 3.66367786 18.9377926 3.66367786 4.87920452 0 4.87920452"></polygon>
        <filter x="-50%" y="-50%" width="200%" height="200%" filterUnits="objectBoundingBox" id="filter-15">
            <feGaussianBlur stdDeviation="0.5" in="SourceAlpha" result="shadowBlurInner1"></feGaussianBlur>
            <feOffset dx="0" dy="-1" in="shadowBlurInner1" result="shadowOffsetInner1"></feOffset>
            <feComposite in="shadowOffsetInner1" in2="SourceAlpha" operator="arithmetic" k2="-1" k3="1" result="shadowInnerInner1"></feComposite>
            <feColorMatrix values="0 0 0 0 1   0 0 0 0 1   0 0 0 0 1  0 0 0 0.17 0" type="matrix" in="shadowInnerInner1"></feColorMatrix>
        </filter>
        <polygon id="path-16" points="0.0113860396 19.2799383 13.7506531 19.2799383 13.7506531 0.00649913756 0.0113860396 0.00649913756"></polygon>
        <path d="M9.30283359,15.0469421 C9.84696466,14.2795922 10.1202127,13.2826814 10.1202127,12.0611028 C10.1202127,10.3507088 9.68356485,9.12791742 8.81145165,8.39394146 C8.27656964,7.94870454 7.65464523,7.72550057 6.94698767,7.72550057 C5.86780565,7.72550057 5.07728678,8.13088113 4.57074316,8.9380874 C4.06787382,9.74633922 3.81401075,10.7485614 3.81401075,11.9457996 C3.81401075,13.2352971 4.07175926,14.2680912 4.58353978,15.0405852 C5.09667176,15.8156303 5.87409838,16.2018146 6.92118325,16.2018146 C7.96412928,16.2018146 8.75988506,15.8169687 9.30283359,15.0469421 M8.43342331,5.09113329 C9.09682061,5.46330719 9.62899971,5.97792681 10.0869753,6.63737598 L10.0869753,0.00649913756 L13.7506531,0.00649913756 L13.7506531,18.9024698 L10.2396056,18.9024698 L10.2396056,16.9062643 C9.62899971,17.7351761 9.07920941,18.3394203 8.40808346,18.7154 C7.73155168,19.0900832 6.87869677,19.2799551 5.8770547,19.2799551 C4.22768381,19.2799551 2.8312891,18.6191676 1.70535506,17.2974672 C0.578027336,15.9772723 0.0113860396,14.282227 0.0113860396,12.2150496 C0.0113860396,9.82989956 0.563710321,7.95255216 1.67296229,6.58463844 C2.78212979,5.21823032 4.2808975,4.53427346 6.13780176,4.53427346 C6.9915858,4.53427346 7.76884349,4.71912667 8.43342331,5.09113329" id="path-18"></path>
        <filter x="-50%" y="-50%" width="200%" height="200%" filterUnits="objectBoundingBox" id="filter-19">
            <feGaussianBlur stdDeviation="0.5" in="SourceAlpha" result="shadowBlurInner1"></feGaussianBlur>
            <feOffset dx="0" dy="-1" in="shadowBlurInner1" result="shadowOffsetInner1"></feOffset>
            <feComposite in="shadowOffsetInner1" in2="SourceAlpha" operator="arithmetic" k2="-1" k3="1" result="shadowInnerInner1"></feComposite>
            <feColorMatrix values="0 0 0 0 1   0 0 0 0 1   0 0 0 0 1  0 0 0 0.17 0" type="matrix" in="shadowInnerInner1"></feColorMatrix>
        </filter>
        <polygon id="path-20" points="0 2.15818208 11.9069847 2.15818208 11.9069847 0.041821992 0 0.041821992"></polygon>
        <filter x="-50%" y="-50%" width="200%" height="200%" filterUnits="objectBoundingBox" id="filter-21">
            <feGaussianBlur stdDeviation="0.5" in="SourceAlpha" result="shadowBlurInner1"></feGaussianBlur>
            <feOffset dx="0" dy="-1" in="shadowBlurInner1" result="shadowOffsetInner1"></feOffset>
            <feComposite in="shadowOffsetInner1" in2="SourceAlpha" operator="arithmetic" k2="-1" k3="1" result="shadowInnerInner1"></feComposite>
            <feColorMatrix values="0 0 0 0 1   0 0 0 0 1   0 0 0 0 1  0 0 0 0.17 0" type="matrix" in="shadowInnerInner1"></feColorMatrix>
        </filter>
        <linearGradient x1="50%" y1="0%" x2="50%" y2="100%" id="linearGradient-22">
            <stop stop-color="#FFFFFF" stop-opacity="0.234714674" offset="0%"></stop>
            <stop stop-color="#000000" stop-opacity="0" offset="100%"></stop>
        </linearGradient>
        <rect id="path-23" x="0.20468031" y="0.527937447" width="93.6722961" height="41.7070583" rx="10"></rect>
    </defs>
    <g id="Landing-page" stroke="none" stroke-width="1" fill="none" fill-rule="evenodd">
        <g id="Group-57" transform="translate(-19.000000, -11.000000)">
            <g id="Group-24">
                <mask id="mask-2" fill="white">
                    <use xlink:href="#path-1"></use>
                </mask>
                <g id="Mask"></g>
                <g id="Group-22" mask="url(#mask-2)">
                    <g transform="translate(19.000000, 11.454927)">
                        <path d="M3.22830055,83.329754 L3.22830055,83.329754 C3.00804184,83.329754 3.22830055,83.5023141 3.22830055,83.329754 L3.22830055,110.292274 C3.22830055,110.119713 3.00804184,110.292274 3.22830055,110.292274 L3.22830055,110.292274 C1.43034047,110.292274 0.770055983,109.774978 0.770055983,110.292274 L0.770055983,83.329754 C0.770055983,83.8470492 1.43034047,83.329754 3.22830055,83.329754 L3.22830055,83.329754 Z" id="Shape-Copy-17" fill="#DEDEDE" fill-rule="evenodd"></path>
                        <path d="M320.266212,137.631891 L322.724456,137.631891 C322.311778,137.631891 322.724456,138.134468 322.724456,137.631891 L322.724456,186.654654 C322.724456,186.152077 322.311778,186.654654 322.724456,186.654654 L320.266212,186.654654 C320.403873,186.654654 320.266212,186.487004 320.266212,186.654654 L320.266212,137.631891 C320.266212,137.799542 320.403873,137.631891 320.266212,137.631891 L320.266212,137.631891 Z" id="Shape-Copy-18" fill="#DEDEDE" fill-rule="evenodd"></path>
                        <path d="M0.770055983,197.9676 L3.22830055,197.9676 C3.1059346,197.9676 3.22830055,198.13525 3.22830055,197.9676 L3.22830055,246.990363 C3.22830055,246.822712 3.1059346,246.990363 3.22830055,246.990363 L0.770055983,246.990363 C1.1368807,246.990363 0.770055983,246.487786 0.770055983,246.990363 L0.770055983,197.9676 C0.770055983,198.470176 1.1368807,197.9676 0.770055983,197.9676 L0.770055983,197.9676 Z" id="Shape-Copy-19" fill="#DEDEDE" fill-rule="evenodd"></path>
                        <path d="M0.770055983,140.04532 L3.22830055,140.04532 C3.1059346,140.04532 3.22830055,140.21297 3.22830055,140.04532 L3.22830055,189.068083 C3.22830055,188.900432 3.1059346,189.068083 3.22830055,189.068083 L0.770055983,189.068083 C1.1368807,189.068083 0.770055983,188.565506 0.770055983,189.068083 L0.770055983,140.04532 C0.770055983,140.547897 1.1368807,140.04532 0.770055983,140.04532 L0.770055983,140.04532 Z" id="Shape-Copy-20" fill="#DEDEDE" fill-rule="evenodd"></path>
                        <g id="base-copy-5" fill="none">
                            <use fill="url(#linearGradient-3)" fill-rule="evenodd" xlink:href="#path-4"></use>
                            <use fill-opacity="0.04" fill="#000000" fill-rule="evenodd" style="mix-blend-mode: multiply;" xlink:href="#path-4"></use>
                            <use fill="black" fill-opacity="1" filter="url(#filter-5)" xlink:href="#path-4"></use>
                        </g>
                        <g id="front-copy-5" fill="none" fill-rule="evenodd">
                            <use fill="url(#linearGradient-3)" xlink:href="#path-6"></use>
                            <use fill-opacity="0.8" fill="#FFFFFF" style="mix-blend-mode: screen;" xlink:href="#path-6"></use>
                        </g>
                        <g id="inner-copy-5" fill="none">
                            <use fill="black" fill-opacity="1" filter="url(#filter-8)" xlink:href="#path-7"></use>
                            <use stroke-opacity="0.1" stroke="#000000" stroke-width="0.5" xlink:href="#path-7"></use>
                        </g>
                        <path d="M135.340315,38.6813299 L181.649304,38.6813299 C183.116768,38.6813299 184.306377,39.7787395 184.306377,41.132468 C184.306377,42.4861966 183.116768,43.5836062 181.649304,43.5836062 L135.340315,43.5836062 C133.872851,43.5836062 132.683242,42.4861966 132.683242,41.132468 C132.683242,39.7787395 133.872851,38.6813299 135.340315,38.6813299 L135.340315,38.6813299 Z" id="earborder-copy-5" fill="#E7E8E8" fill-rule="evenodd"></path>
                        <g id="ear-copy-5" fill="none">
                            <use fill="url(#linearGradient-9)" fill-rule="evenodd" xlink:href="#path-10"></use>
                            <use fill="black" fill-opacity="1" filter="url(#filter-11)" xlink:href="#path-10"></use>
                        </g>
                        <ellipse id="circle-copy-9" fill="#E7E8E8" fill-rule="evenodd" cx="110.937232" cy="41.132468" rx="2.45824457" ry="2.45113815"></ellipse>
                        <ellipse id="circle-copy-10" fill="#E7E8E8" fill-rule="evenodd" opacity="0.4" cx="160.555953" cy="19.4116131" rx="2.45824457" ry="2.45113815"></ellipse>
                        <rect id="screen-copy-5" fill="#582119" fill-rule="evenodd" x="20.1334594" y="78.5028973" width="280.239881" height="495.129906" rx="0.6"></rect>
                        <g id="ic_check_box_black_24px-copy-2" stroke-width="1" fill="none" fill-rule="evenodd" transform="translate(69.752181, 171.419888)"></g>
                    </g>
                </g>
            </g>
            <g id="Group-56" transform="translate(39.000000, 90.000000)">
                <g id="Group-5">
                    <mask id="mask-13" fill="white">
                        <use xlink:href="#path-12"></use>
                    </mask>
                    <use id="Mask" fill="#D7D7D7" xlink:href="#path-12"></use>
                </g>
                <g id="Group-5" transform="translate(70.000000, 48.000000)">
                    <g id="Group-3">
                        <rect id="Rectangle-26-Copy-4" fill="#F1F1F1" x="0.20468031" y="0.527937447" width="132.512029" height="41.7070583" rx="6"></rect>
                        <g id="Group-9-Copy-6" transform="translate(102.548709, 10.638882)">
                            <g id="Page-1" transform="translate(0.215052, 0.293193)">
                                <g id="Fill-1">
                                    <use fill="#9B9B9B" fill-rule="evenodd" xlink:href="#path-14"></use>
                                    <use fill="black" fill-opacity="1" filter="url(#filter-15)" xlink:href="#path-14"></use>
                                </g>
                                <g id="Group-4" transform="translate(5.025737, 0.035340)">
                                    <mask id="mask-17" fill="white">
                                        <use xlink:href="#path-16"></use>
                                    </mask>
                                    <g id="Clip-3"></g>
                                    <g id="Fill-2" mask="url(#mask-17)">
                                        <use fill="#9B9B9B" fill-rule="evenodd" xlink:href="#path-18"></use>
                                        <use fill="black" fill-opacity="1" filter="url(#filter-19)" xlink:href="#path-18"></use>
                                    </g>
                                </g>
                                <g id="Fill-5">
                                    <use fill="#9B9B9B" fill-rule="evenodd" xlink:href="#path-20"></use>
                                    <use fill="black" fill-opacity="1" filter="url(#filter-21)" xlink:href="#path-20"></use>
                                </g>
                            </g>
                        </g>
                        <g id="Rectangle-55-Copy-53">
                            <use fill="#00ADEE" xlink:href="#path-23"></use>
                            <use fill="url(#linearGradient-22)" xlink:href="#path-23"></use>
                        </g>
                        <text id="Connect" fill="#FFFFFF" font-family="HelveticaNeue-Bold, Helvetica Neue" font-size="14.4616613" font-weight="bold">
                            <tspan x="16.9223252" y="25.7747985">Connect</tspan>
                        </text>
                    </g>
                </g>
                <g id="Group-8" transform="translate(46.000000, 139.000000)">
                    <rect id="Rectangle-187" fill="#363636" opacity="0.67344916" x="0" y="0" width="188" height="166"></rect>
                    <text id="Run-For-Your-Life" font-family="HelveticaNeue-Bold, Helvetica Neue" font-size="17" font-weight="bold" fill="#FFFFFF">
                        <tspan x="24.443" y="32.9851852">Run For Your Life</tspan>
                    </text>
                    <text id="Marathon-for-charity" font-family="HelveticaNeue, Helvetica Neue" font-size="14" font-weight="normal" fill="#FFFFFF">
                        <tspan x="31.234" y="63.4148148">Marathon for charity</tspan>
                    </text>
                    <text id="Raised" font-family="HelveticaNeue-Bold, Helvetica Neue" font-size="14" font-weight="bold" fill="#FFFFFF">
                        <tspan x="16" y="107.451852">Raised</tspan>
                    </text>
                    <text id="" font-family="HelveticaNeue-Bold, Helvetica Neue" font-size="14" font-weight="bold" fill="#FFFFFF">
                        <tspan x="45" y="108">		  £ 2,980.00</tspan>
                    </text>
                    <text id="Goal" font-family="HelveticaNeue, Helvetica Neue" font-size="14" font-weight="normal" fill="#FFFFFF">
                        <tspan x="16" y="143.340741">Goal</tspan>
                    </text>
                    <text id="£-5,000.00" font-family="HelveticaNeue, Helvetica Neue" font-size="14" font-weight="normal" fill="#FFFFFF">
                        <tspan x="108" y="143">£ 5,000.00</tspan>
                    </text>
                    <path d="M15.5,122.348148 L173.550629,122.348148" id="Line" stroke="#FFFFFF" stroke-linecap="square"></path>
                </g>
            </g>
        </g>
    </g>
</svg>