<?xml version="1.0" encoding="UTF-8" standalone="no"?>
<svg width="42px" height="32px" viewBox="0 0 42 32" version="1.1" xmlns="http://www.w3.org/2000/svg" xmlns:xlink="http://www.w3.org/1999/xlink">
    <!-- Generator: Sketch 39.1 (31720) - http://www.bohemiancoding.com/sketch -->
    <title>Group 125</title>
    <desc>Created with Sketch.</desc>
    <defs>
        <rect id="path-1" x="0" y="0" width="42" height="32"></rect>
        <mask id="mask-2" maskContentUnits="userSpaceOnUse" maskUnits="objectBoundingBox" x="0" y="0" width="42" height="32" fill="white">
            <use xlink:href="#path-1"></use>
        </mask>
    </defs>
    <g id="Page-1" stroke="none" stroke-width="1" fill="none" fill-rule="evenodd">
        <g id="Group-125">
            <g id="Group-Copy-10" transform="translate(10.000000, 9.000000)" fill="#4990E2">
                <path d="M14.7951667,8.09715618 C13.6667667,8.09715618 11.9083433,8.41016224 10.5636667,9.01776224 C9.21899,8.40095618 7.46056667,8.09715618 6.33216667,8.09715618 C4.29164333,8.09715618 0.22,9.09141072 0.22,11.0891259 L0.22,13.6207925 L20.9073333,13.6207925 L20.9073333,11.0891259 C20.9073333,9.09141072 16.83569,8.09715618 14.7951667,8.09715618 L14.7951667,8.09715618 Z M11.0338333,12.2398834 L1.6305,12.2398834 L1.6305,11.0891259 C1.6305,10.5919986 4.03775333,9.47806527 6.33216667,9.47806527 C8.62658,9.47806527 11.0338333,10.5919986 11.0338333,11.0891259 L11.0338333,12.2398834 L11.0338333,12.2398834 Z M19.4968333,12.2398834 L12.4443333,12.2398834 L12.4443333,11.0891259 C12.4443333,10.6656471 12.2562667,10.2974047 11.95536,9.96598648 C12.7828533,9.68980466 13.7984133,9.47806527 14.7951667,9.47806527 C17.08958,9.47806527 19.4968333,10.5919986 19.4968333,11.0891259 L19.4968333,12.2398834 L19.4968333,12.2398834 Z M6.33216667,7.17655012 C8.14701,7.17655012 9.62333333,5.7311986 9.62333333,3.9544289 C9.62333333,2.17765921 8.14701,0.732307692 6.33216667,0.732307692 C4.51732333,0.732307692 3.041,2.17765921 3.041,3.9544289 C3.041,5.7311986 4.51732333,7.17655012 6.33216667,7.17655012 L6.33216667,7.17655012 Z M6.33216667,2.11321678 C7.36653333,2.11321678 8.21283333,2.94176224 8.21283333,3.9544289 C8.21283333,4.96709557 7.36653333,5.79564103 6.33216667,5.79564103 C5.2978,5.79564103 4.4515,4.96709557 4.4515,3.9544289 C4.4515,2.94176224 5.2978,2.11321678 6.33216667,2.11321678 L6.33216667,2.11321678 Z M14.7951667,7.17655012 C16.61001,7.17655012 18.0863333,5.7311986 18.0863333,3.9544289 C18.0863333,2.17765921 16.61001,0.732307692 14.7951667,0.732307692 C12.9803233,0.732307692 11.504,2.17765921 11.504,3.9544289 C11.504,5.7311986 12.9803233,7.17655012 14.7951667,7.17655012 L14.7951667,7.17655012 Z M14.7951667,2.11321678 C15.8295333,2.11321678 16.6758333,2.94176224 16.6758333,3.9544289 C16.6758333,4.96709557 15.8295333,5.79564103 14.7951667,5.79564103 C13.7608,5.79564103 12.9145,4.96709557 12.9145,3.9544289 C12.9145,2.94176224 13.7608,2.11321678 14.7951667,2.11321678 L14.7951667,2.11321678 Z" id="Shape"></path>
            </g>
            <g id="Group-124-Copy" stroke="#212121">
                <use id="Rectangle-22" mask="url(#mask-2)" opacity="0.300000012" xlink:href="#path-1"></use>
                <path d="M34.5,0.5 L41.5,7.5" id="Line" stroke-width="0.5" stroke-linecap="square" opacity="0.3"></path>
            </g>
        </g>
    </g>
</svg>