<?xml version="1.0" encoding="UTF-8" standalone="no"?>
<svg width="88px" height="100px" viewBox="0 0 88 100" version="1.1" xmlns="http://www.w3.org/2000/svg" xmlns:xlink="http://www.w3.org/1999/xlink">
    <!-- Generator: Sketch 39.1 (31720) - http://www.bohemiancoding.com/sketch -->
    <title>Group 39</title>
    <desc>Created with Sketch.</desc>
    <defs>
        <rect id="path-1" x="12" y="24" width="66.1464275" height="45.1539195"></rect>
        <mask id="mask-2" maskContentUnits="userSpaceOnUse" maskUnits="objectBoundingBox" x="0" y="0" width="66.1464275" height="45.1539195" fill="white">
            <use xlink:href="#path-1"></use>
        </mask>
    </defs>
    <g id="Page-1" stroke="none" stroke-width="1" fill="none" fill-rule="evenodd">
        <g id="Group-39" transform="translate(0.000000, -1.000000)">
            <ellipse id="Oval-6-Copy-5" stroke="#000000" opacity="0.3" transform="translate(47.998763, 9.930414) rotate(-45.000000) translate(-47.998763, -9.930414) " cx="47.9987632" cy="9.93041375" rx="3.28438906" ry="3.25629845"></ellipse>
            <ellipse id="Oval-6-Copy-32" stroke="#000000" opacity="0.3" transform="translate(50.195053, 91.989135) rotate(-45.000000) translate(-50.195053, -91.989135) " cx="50.1950526" cy="91.9891347" rx="7.76969412" ry="7.70324174"></ellipse>
            <ellipse id="Oval-6-Copy-29" stroke="#000000" opacity="0.3" transform="translate(64.608417, 7.608417) rotate(-45.000000) translate(-64.608417, -7.608417) " cx="64.6084172" cy="7.60841719" rx="5.40306898" ry="5.35685779"></ellipse>
            <ellipse id="Oval-6-Copy-30" stroke="#000000" opacity="0.3" transform="translate(81.608417, 24.608417) rotate(-45.000000) translate(-81.608417, -24.608417) " cx="81.6084172" cy="24.6084172" rx="5.40306898" ry="5.35685779"></ellipse>
            <ellipse id="Oval-6-Copy-7" stroke="#000000" opacity="0.3" transform="translate(4.644828, 58.123631) rotate(-45.000000) translate(-4.644828, -58.123631) " cx="4.64482756" cy="58.1236308" rx="3.28438906" ry="3.25629845"></ellipse>
            <path d="M47.9520803,9.88413014 L65.0309034,7.27909139" id="Line" stroke="#164591" stroke-linecap="square" opacity="0.3"></path>
            <path d="M65.0309034,7.27909139 L81.5000003,24.4999993" id="Line" stroke="#164591" stroke-linecap="square" opacity="0.3"></path>
            <path d="M81.5000002,24.5 L4.59814469,58.0773472" id="Line" stroke="#164591" stroke-linecap="square" opacity="0.3"></path>
            <path d="M4.59814469,58.0773472 L11.1669228,21.6068046" id="Line" stroke="#164591" stroke-linecap="square" opacity="0.3"></path>
            <path d="M11.1669228,21.6068046 L47.9520803,9.88413014" id="Line" stroke="#164591" stroke-linecap="square" opacity="0.3"></path>
            <ellipse id="Oval-6-Copy-31" stroke="#000000" opacity="0.3" transform="translate(11.213606, 21.653088) rotate(-45.000000) translate(-11.213606, -21.653088) " cx="11.2136057" cy="21.6530882" rx="6.66580527" ry="6.6087942"></ellipse>
            <use id="Rectangle-10" stroke="#000000" mask="url(#mask-2)" stroke-width="2" fill="#FFFFFF" transform="translate(45.073214, 46.576960) rotate(-90.000000) translate(-45.073214, -46.576960) " xlink:href="#path-1"></use>
            <path d="M32.996,49 L33.764,46.144 L33.148,46.144 L32.68,48.112 L32.672,48.112 L32.184,46.144 L31.596,46.144 L31.1,48.088 L31.092,48.088 L30.64,46.144 L30.012,46.144 L30.768,49 L31.404,49 L31.88,47.056 L31.888,47.056 L32.372,49 L32.996,49 Z M34.442,46.144 L34.442,49 L35.07,49 L35.07,47.768 L36.226,47.768 L36.226,49 L36.854,49 L36.854,46.144 L36.226,46.144 L36.226,47.24 L35.07,47.24 L35.07,46.144 L34.442,46.144 Z M37.796,46.144 L37.796,49 L38.424,49 L38.424,46.144 L37.796,46.144 Z M39.998,46.672 L39.998,49 L40.626,49 L40.626,46.672 L41.482,46.672 L41.482,46.144 L39.142,46.144 L39.142,46.672 L39.998,46.672 Z M42.1999999,46.144 L42.1999999,49 L44.3679999,49 L44.3679999,48.472 L42.8279999,48.472 L42.8279999,47.772 L44.2119999,47.772 L44.2119999,47.284 L42.8279999,47.284 L42.8279999,46.672 L44.3359999,46.672 L44.3359999,46.144 L42.1999999,46.144 Z M45.8099999,47.488 L45.8099999,46.632 L46.2979999,46.632 C46.3700003,46.632 46.4393329,46.6373333 46.5059999,46.648 C46.5726669,46.6586667 46.631333,46.6793332 46.6819999,46.71 C46.7326668,46.7406668 46.7733331,46.7839997 46.8039999,46.84 C46.8346667,46.8960003 46.8499999,46.9693329 46.8499999,47.06 C46.8499999,47.1506671 46.8346667,47.2239997 46.8039999,47.28 C46.7733331,47.3360003 46.7326668,47.3793332 46.6819999,47.41 C46.631333,47.4406668 46.5726669,47.4613333 46.5059999,47.472 C46.4393329,47.4826667 46.3700003,47.488 46.2979999,47.488 L45.8099999,47.488 Z M45.1819999,46.144 L45.1819999,49 L45.8099999,49 L45.8099999,47.976 L46.4699999,47.976 C46.6486675,47.976 46.800666,47.9500003 46.9259999,47.898 C47.0513339,47.8459997 47.1533329,47.7773338 47.2319999,47.692 C47.310667,47.6066662 47.3679997,47.5086672 47.4039999,47.398 C47.4400001,47.2873328 47.4579999,47.1746672 47.4579999,47.06 C47.4579999,46.9426661 47.4400001,46.8293339 47.4039999,46.72 C47.3679997,46.6106661 47.310667,46.5133338 47.2319999,46.428 C47.1533329,46.3426662 47.0513339,46.2740003 46.9259999,46.222 C46.800666,46.1699997 46.6486675,46.144 46.4699999,46.144 L45.1819999,46.144 Z M48.6639999,47.896 L49.0359999,46.848 L49.0439999,46.848 L49.4039999,47.896 L48.6639999,47.896 Z M48.7239999,46.144 L47.6439999,49 L48.2759999,49 L48.4999999,48.364 L49.5679999,48.364 L49.7839999,49 L50.4359999,49 L49.3679999,46.144 L48.7239999,46.144 Z M51.7019999,47.488 L51.7019999,46.632 L52.1899999,46.632 C52.2620003,46.632 52.3313329,46.6373333 52.3979999,46.648 C52.4646669,46.6586667 52.523333,46.6793332 52.5739999,46.71 C52.6246668,46.7406668 52.6653331,46.7839997 52.6959999,46.84 C52.7266667,46.8960003 52.7419999,46.9693329 52.7419999,47.06 C52.7419999,47.1506671 52.7266667,47.2239997 52.6959999,47.28 C52.6653331,47.3360003 52.6246668,47.3793332 52.5739999,47.41 C52.523333,47.4406668 52.4646669,47.4613333 52.3979999,47.472 C52.3313329,47.4826667 52.2620003,47.488 52.1899999,47.488 L51.7019999,47.488 Z M51.0739999,46.144 L51.0739999,49 L51.7019999,49 L51.7019999,47.976 L52.3619999,47.976 C52.5406675,47.976 52.6926659,47.9500003 52.8179999,47.898 C52.9433339,47.8459997 53.0453328,47.7773338 53.1239999,47.692 C53.202667,47.6066662 53.2599997,47.5086672 53.2959999,47.398 C53.3320001,47.2873328 53.3499999,47.1746672 53.3499999,47.06 C53.3499999,46.9426661 53.3320001,46.8293339 53.2959999,46.72 C53.2599997,46.6106661 53.202667,46.5133338 53.1239999,46.428 C53.0453328,46.3426662 52.9433339,46.2740003 52.8179999,46.222 C52.6926659,46.1699997 52.5406675,46.144 52.3619999,46.144 L51.0739999,46.144 Z M54.1319999,46.144 L54.1319999,49 L56.2999999,49 L56.2999999,48.472 L54.7599999,48.472 L54.7599999,47.772 L56.1439999,47.772 L56.1439999,47.284 L54.7599999,47.284 L54.7599999,46.672 L56.2679999,46.672 L56.2679999,46.144 L54.1319999,46.144 Z M57.7419999,47.436 L57.7419999,46.632 L58.4299999,46.632 C58.5740006,46.632 58.6819995,46.663333 58.7539999,46.726 C58.8260002,46.788667 58.8619999,46.8893326 58.8619999,47.028 C58.8619999,47.1720007 58.8260002,47.2759997 58.7539999,47.34 C58.6819995,47.4040003 58.5740006,47.436 58.4299999,47.436 L57.7419999,47.436 Z M57.1139999,46.144 L57.1139999,49 L57.7419999,49 L57.7419999,47.884 L58.3699999,47.884 C58.527334,47.884 58.6406662,47.9186663 58.7099999,47.988 C58.7793336,48.0573337 58.8246664,48.1666659 58.8459999,48.316 C58.862,48.4306672 58.8739998,48.550666 58.8819999,48.676 C58.8899999,48.801334 58.911333,48.9093329 58.9459999,49 L59.5739999,49 C59.5446664,48.9599998 59.5226666,48.9113336 59.5079999,48.854 C59.4933331,48.7966664 59.4826666,48.7360003 59.4759999,48.672 C59.4693332,48.6079997 59.4646666,48.5453336 59.4619999,48.484 C59.4593332,48.4226664 59.4566666,48.3693336 59.4539999,48.324 C59.4486665,48.2519996 59.4386666,48.1800004 59.4239999,48.108 C59.4093331,48.0359996 59.386,47.9700003 59.3539999,47.91 C59.3219997,47.8499997 59.2806668,47.7980002 59.2299999,47.754 C59.179333,47.7099998 59.1153336,47.6773334 59.0379999,47.656 L59.0379999,47.648 C59.1980007,47.5839997 59.3133329,47.4906673 59.3839999,47.368 C59.4546669,47.2453327 59.4899999,47.1000008 59.4899999,46.932 C59.4899999,46.8226661 59.4706667,46.7206671 59.4319999,46.626 C59.393333,46.5313329 59.3373336,46.4480004 59.2639999,46.376 C59.1906662,46.3039996 59.1026671,46.2473335 58.9999999,46.206 C58.8973327,46.1646665 58.7820005,46.144 58.6539999,46.144 L57.1139999,46.144 Z" id="WHITEPAPER" fill="#164591"></path>
            <path d="M4.59814469,58.0773472 L47.9520803,9.88413014" id="Line" stroke="#164591" stroke-linecap="square" opacity="0.3"></path>
            <polyline id="Line" stroke="#164591" stroke-linecap="square" opacity="0.3" points="4.59814469 56.7191528 14.0860261 64.1197172 49.7566291 91.9428511 81.5981447 24.8168821"></polyline>
        </g>
    </g>
</svg>