<?xml version="1.0" encoding="UTF-8"?>
<svg width="57px" height="18px" viewBox="0 0 57 18" version="1.1" xmlns="http://www.w3.org/2000/svg" xmlns:xlink="http://www.w3.org/1999/xlink">
    <!-- Generator: Sketch 41 (35326) - http://www.bohemiancoding.com/sketch -->
    <title>Logo Copy</title>
    <desc>Created with Sketch.</desc>
    <defs>
        <polyline id="path-1" points="0 0.0172310081 56.8670862 0.0172310081 56.8670862 16.5832258 0 16.5832258"></polyline>
        <polygon id="path-3" points="0 0.0172310081 56.8670862 0.0172310081 56.8670862 16.5832258 0 16.5832258"></polygon>
    </defs>
    <g id="Dashboard" stroke="none" stroke-width="1" fill="none" fill-rule="evenodd">
        <g id="Group-2-Copy" transform="translate(-305.000000, -10.413903)">
            <g id="Logo-Copy" transform="translate(305.000000, 11.000000)">
                <polygon id="Fill-1" fill="#00ADEE" points="30.2717296 4.16303746 33.2543864 4.16303746 33.2543864 16.2117875 30.2717296 16.2117875"></polygon>
                <g id="Group-11">
                    <g id="Group-4">
                        <mask id="mask-2" fill="white">
                            <use xlink:href="#path-1"></use>
                        </mask>
                        <g id="Clip-3"></g>
                        <path d="M41.9368134,12.9074372 C42.3797379,12.2498087 42.6021944,11.3953839 42.6021944,10.3484382 C42.6021944,8.88263648 42.2467611,7.83465434 41.5367645,7.20552821 C41.1012967,6.82398446 40.5949907,6.63262958 40.0188408,6.63262958 C39.1403241,6.63262958 38.4966916,6.98009999 38.0843393,7.67193144 C37.6749696,8.36466979 37.4682964,9.2234995 37.4682964,10.2495866 C37.4682964,11.3548327 37.6780766,12.2399624 38.0947786,12.9019958 C38.5124748,13.5662318 39.1454195,13.8972485 39.9978379,13.8972485 C40.8469009,13.8972485 41.4947588,13.5673978 41.9368134,12.9074372 M41.2290538,4.37497886 C41.7690389,4.69394684 42.2023941,5.134957 42.5752262,5.70008225 L42.5752262,0.0172180524 L45.557883,0.0172180524 L45.557883,16.2117745 L42.6995036,16.2117745 L42.6995036,14.5009816 C42.2023941,15.2113396 41.7547471,15.7291767 41.2084237,16.0515132 C40.6576265,16.3725541 39.9632888,16.535277 39.147905,16.535277 C37.8050881,16.535277 36.6681987,15.9689857 35.7515288,14.8362737 C34.8338648,13.7047276 34.3725472,12.2520111 34.3725472,10.4804562 C34.3725472,8.43618495 34.8221827,6.82722337 35.725182,5.65486704 C36.6281814,4.48380628 37.8483366,3.89769289 39.3601707,3.89769289 C40.0551298,3.89769289 40.6879501,4.05614043 41.2290538,4.37497886" id="Fill-2" fill="#00ADEE" mask="url(#mask-2)"></path>
                    </g>
                    <mask id="mask-4" fill="white">
                        <use xlink:href="#path-3"></use>
                    </mask>
                    <g id="Clip-6"></g>
                    <polygon id="Fill-5" fill="#00ADEE" mask="url(#mask-4)" points="30.2717296 1.83102133 39.9653642 1.83102133 39.9653642 0.0172310081 30.2717296 0.0172310081"></polygon>
                    <polygon id="Fill-7" fill="#FFFFFF" mask="url(#mask-4)" points="8.2111672 4.16301155 11.4370348 4.16301155 7.28815919 16.2117615 4.11933489 16.2117615 3.72832101e-05 4.16301155 3.37342213 4.16301155 5.76601 12.9978547"></polygon>
                    <path d="M14.4075497,7.11610835 C13.9814026,7.57253573 13.7165676,8.17924859 13.6059607,8.9565873 L18.7811188,8.9565873 C18.7273067,8.17924859 18.4603589,7.50749839 17.9826367,7.07763008 C17.5025533,6.64879823 16.9086317,6.43205029 16.2018663,6.43205029 C15.4298553,6.43205029 14.8304656,6.65981053 14.4075497,7.11610835 M18.901295,4.42547996 C19.7030083,4.79937988 20.3645368,5.39002775 20.8876202,6.19703488 C21.3570158,6.90855892 21.6618682,7.72359855 21.8021773,8.66275327 C21.8834547,9.21284996 21.9161397,9.99303892 21.9003565,11.0294905 L13.5331342,11.0294905 C13.5794896,12.1954986 13.9802841,13.084515 14.7335293,13.567631 C15.1933555,13.8676837 15.7461412,14.0227628 16.3917622,14.0227628 C17.0752877,14.0227628 17.6301861,13.8724773 18.0595644,13.5062212 C18.2915903,13.309425 18.4995063,12.9728373 18.6767258,12.7137244 L21.7441398,12.7137244 C21.6641052,13.3615067 21.2917702,14.1181163 20.6302418,14.8494625 C19.6007281,16.0152115 18.159732,16.5831869 16.3084963,16.5831869 C14.7798847,16.5831869 13.4297354,16.084265 12.2609068,15.0998951 C11.0920781,14.1191528 10.5076017,12.5162804 10.5076017,10.3015128 C10.5076017,8.22757315 11.0351591,6.63441746 12.0900254,5.52709847 C13.1460102,4.41977948 14.5151739,3.86463008 16.1976409,3.86463008 C17.1988194,3.86463008 18.1007002,4.0517096 18.901295,4.42547996" id="Fill-8" fill="#FFFFFF" mask="url(#mask-4)"></path>
                    <path d="M29.2774858,4.2935915 L29.2774858,7.5036117 C29.0289311,7.48145754 28.8923503,7.46616988 28.7445845,7.4595625 C28.5979372,7.45191867 28.464339,7.44855021 28.3736165,7.44855021 C27.1647706,7.44855021 26.3332307,7.85872593 25.9176472,8.67804093 C25.6866156,9.14107569 25.5491648,9.85039726 25.5491648,10.8104106 L25.5491648,16.2117486 L22.566508,16.2117486 L22.566508,4.16299859 L25.4248874,4.16299859 L25.4248874,6.64685488 C25.9219969,5.84749158 26.290355,5.30076335 26.6332363,5.00952045 C27.1965856,4.51785371 27.9383972,4.27273291 28.8392838,4.27273291 C28.8942144,4.27273291 28.9546132,4.27389892 28.993512,4.27713783 C29.0325351,4.28154275 29.0289311,4.28698412 29.2774858,4.2935915 Z" id="Fill-9" fill="#FFFFFF" mask="url(#mask-4)"></path>
                    <path d="M49.5347215,4.16301155 L49.5347215,11.4019783 C49.5347215,12.0838339 49.624574,12.5962297 49.7785537,12.9414976 C50.0517153,13.5496356 50.5935647,13.8531863 51.3911768,13.8531863 C52.4100027,13.8531863 53.0998663,13.420986 53.4784152,12.5567149 C53.6737792,12.0881092 53.760152,11.4680521 53.760152,10.6992641 L53.760152,4.16301155 L56.8670862,4.16301155 L56.8670862,16.2117615 L53.8844293,16.2117615 L53.8844293,14.4689682 C53.8844293,14.505244 53.800915,14.6164034 53.6903081,14.7989484 C53.57734,14.9814935 53.4521927,15.1420139 53.2972188,15.2816758 C52.8288174,15.7216495 52.3793062,16.0218318 51.9403585,16.1835182 C51.5037721,16.3440387 50.9908794,16.4242341 50.4023018,16.4242341 C48.7070342,16.4242341 47.5373357,15.7865573 46.9486338,14.5131469 C46.6196716,13.8103032 46.4277873,12.7732038 46.4277873,11.4019783 L46.4277873,4.16301155 L49.5347215,4.16301155 Z" id="Fill-10" fill="#FFFFFF" mask="url(#mask-4)"></path>
                </g>
            </g>
        </g>
    </g>
</svg>