<?xml version="1.0" encoding="UTF-8" standalone="no"?>
<svg width="14px" height="13px" viewBox="0 0 14 13" version="1.1" xmlns="http://www.w3.org/2000/svg" xmlns:xlink="http://www.w3.org/1999/xlink">
    <!-- Generator: sketchtool 3.6.1 (26313) - http://www.bohemiancoding.com/sketch -->
    <title>Fill 12 Copy 2</title>
    <desc>Created with sketchtool.</desc>
    <defs></defs>
    <g id="OLC" stroke="none" stroke-width="1" fill="none" fill-rule="evenodd">
        <g id="4" transform="translate(-372.000000, -189.000000)" fill="#4A4A4A">
            <path d="M384.434323,201.835415 L381.080623,201.835415 L381.080623,196.864804 L382.791351,196.864804 L383.047315,194.927884 L381.080623,194.927884 L381.080623,193.690912 C381.080623,193.130114 381.240152,192.747975 382.065044,192.747975 L383.116862,192.747625 L383.116862,191.014886 C382.934748,190.991461 382.310612,190.938668 381.583947,190.938668 C380.067522,190.938668 379.029327,191.841398 379.029327,193.499318 L379.029327,194.927884 L377.314298,194.927884 L377.314298,196.864804 L379.029327,196.864804 L379.029327,201.835415 L372.726306,201.835415 C372.325153,201.835415 372,201.517956 372,201.126726 L372,189.708689 C372,189.317109 372.325153,189 372.726306,189 L384.434323,189 C384.835477,189 385.16063,189.317109 385.16063,189.708689 L385.16063,201.126726 C385.16063,201.517956 384.835477,201.835415 384.434323,201.835415 Z" id="Fill-12-Copy-2"></path>
        </g>
    </g>
</svg>