<?xml version="1.0" encoding="UTF-8" standalone="no"?>
<svg width="35px" height="31px" viewBox="0 0 35 31" version="1.1" xmlns="http://www.w3.org/2000/svg" xmlns:xlink="http://www.w3.org/1999/xlink">
    <!-- Generator: Sketch 3.7 (28169) - http://www.bohemiancoding.com/sketch -->
    <title>Group 7 Copy 2</title>
    <desc>Created with Sketch.</desc>
    <defs></defs>
    <g id="Buttons-&amp;-components" stroke="none" stroke-width="1" fill="none" fill-rule="evenodd">
        <g id="Tryit0.0-Copy" transform="translate(-1162.000000, -300.000000)" fill="#000000">
            <g id="Group-7-Copy-2" transform="translate(1162.000000, 300.000000)">
                <polygon id="Fill-5" points="1.67841844 30.6274915 8.28291844 30.6274915 8.28291844 10.3194723 1.67841844 10.3194723"></polygon>
                <path d="M26.3247482,10.1242628 C22.541695,10.1242628 20.1712021,12.1137945 19.7331064,13.5070014 L19.7331064,10.3194723 L12.3148688,10.3194723 C12.4103865,12.0121786 12.3148688,30.6274915 12.3148688,30.6274915 L19.7331064,30.6274915 L19.7331064,19.6378251 C19.7331064,19.0272386 19.7027979,18.416652 19.8947518,17.9780994 C20.4044858,16.7569263 21.5001844,15.4902935 23.4702376,15.4902935 C26.0455426,15.4902935 27.2174716,17.3675128 27.2174716,20.118272 L27.2174716,30.6274915 L34.7055106,30.6274915 L34.7055106,19.3356516 C34.7055106,13.0452732 31.0179752,10.1242628 26.3247482,10.1242628" id="Fill-6"></path>
                <path d="M4.85805674,0.733709232 C2.41959929,0.733709232 0.824269504,2.25349033 0.824269504,4.25995793 C0.824269504,6.22720537 2.3736773,7.77996706 4.76437589,7.77996706 L4.81213475,7.77996706 C7.2946773,7.77996706 8.84041135,6.22185717 8.84041135,4.25371836 C8.79265248,2.24992486 7.2946773,0.733709232 4.85805674,0.733709232" id="Fill-7"></path>
            </g>
        </g>
    </g>
</svg>