<?xml version="1.0" encoding="UTF-8"?>
<svg width="54px" height="55px" viewBox="0 0 54 55" version="1.1" xmlns="http://www.w3.org/2000/svg" xmlns:xlink="http://www.w3.org/1999/xlink">
    <!-- Generator: Sketch 41.2 (35397) - http://www.bohemiancoding.com/sketch -->
    <title>Group 7</title>
    <desc>Created with Sketch.</desc>
    <defs></defs>
    <g id="Calculator" stroke="none" stroke-width="1" fill="none" fill-rule="evenodd">
        <g id="Front-Page-Copy-14" transform="translate(-470.000000, -70.000000)" fill="#164591">
            <g id="Group-7" transform="translate(470.000000, 70.000000)">
                <path d="M51.4741784,21.3872123 C52.5589528,21.3872123 53.4389671,20.5099383 53.4389671,19.426985 C53.4389671,18.3440317 52.5589528,17.4667577 51.4741784,17.4667577 C50.389404,17.4667577 49.5093897,18.3440317 49.5093897,19.426985 C49.5093897,20.5099383 50.389404,21.3872123 51.4741784,21.3872123 Z M51.4741784,20.3872123 C50.9409918,20.3872123 50.5093897,19.9569542 50.5093897,19.426985 C50.5093897,18.8970158 50.9409918,18.4667577 51.4741784,18.4667577 C52.007365,18.4667577 52.4389671,18.8970158 52.4389671,19.426985 C52.4389671,19.9569542 52.007365,20.3872123 51.4741784,20.3872123 Z" id="Oval"></path>
                <path d="M31.028169,43.4343434 C32.1129434,43.4343434 32.9929577,42.5570695 32.9929577,41.4741162 C32.9929577,40.3911628 32.1129434,39.5138889 31.028169,39.5138889 C29.9433947,39.5138889 29.0633803,40.3911628 29.0633803,41.4741162 C29.0633803,42.5570695 29.9433947,43.4343434 31.028169,43.4343434 Z M31.028169,42.4343434 C30.4949824,42.4343434 30.0633803,42.0040853 30.0633803,41.4741162 C30.0633803,40.944147 30.4949824,40.5138889 31.028169,40.5138889 C31.5613556,40.5138889 31.9929577,40.944147 31.9929577,41.4741162 C31.9929577,42.0040853 31.5613556,42.4343434 31.028169,42.4343434 Z" id="Oval-Copy-4"></path>
                <path d="M6.92018779,54.4277405 C8.00496215,54.4277405 8.88497653,53.5504666 8.88497653,52.4675132 C8.88497653,51.3845599 8.00496215,50.507286 6.92018779,50.507286 C5.83541344,50.507286 4.95539906,51.3845599 4.95539906,52.4675132 C4.95539906,53.5504666 5.83541344,54.4277405 6.92018779,54.4277405 Z M6.92018779,53.4277405 C6.38700119,53.4277405 5.95539906,52.9974824 5.95539906,52.4675132 C5.95539906,51.9375441 6.38700119,51.507286 6.92018779,51.507286 C7.45337439,51.507286 7.88497653,51.9375441 7.88497653,52.4675132 C7.88497653,52.9974824 7.45337439,53.4277405 6.92018779,53.4277405 Z" id="Oval-Copy-5"></path>
                <path d="M28.5511502,4.80146242 C29.6359246,4.80146242 30.515939,3.92418848 30.515939,2.84123516 C30.515939,1.75828183 29.6359246,0.881007893 28.5511502,0.881007893 C27.4663759,0.881007893 26.5863615,1.75828183 26.5863615,2.84123516 C26.5863615,3.92418848 27.4663759,4.80146242 28.5511502,4.80146242 Z M28.5511502,3.80146242 C28.0179636,3.80146242 27.5863615,3.37120433 27.5863615,2.84123516 C27.5863615,2.31126598 28.0179636,1.88100789 28.5511502,1.88100789 C29.0843368,1.88100789 29.515939,2.31126598 29.515939,2.84123516 C29.515939,3.37120433 29.0843368,3.80146242 28.5511502,3.80146242 Z" id="Oval-Copy"></path>
                <path d="M2.77666667,22.8418965 C3.86144102,22.8418965 4.7414554,21.9646226 4.7414554,20.8816693 C4.7414554,19.798716 3.86144102,18.921442 2.77666667,18.921442 C1.69189231,18.921442 0.811877934,19.798716 0.811877934,20.8816693 C0.811877934,21.9646226 1.69189231,22.8418965 2.77666667,22.8418965 Z M2.77666667,21.8418965 C2.24348007,21.8418965 1.81187793,21.4116385 1.81187793,20.8816693 C1.81187793,20.3517001 2.24348007,19.921442 2.77666667,19.921442 C3.30985327,19.921442 3.7414554,20.3517001 3.7414554,20.8816693 C3.7414554,21.4116385 3.30985327,21.8418965 2.77666667,21.8418965 Z" id="Oval"></path>
                <path d="M26.6821007,48.8296741 C36.4532702,48.8296741 44.3757037,40.95947 44.3757037,31.2494216 C44.3757037,21.5393732 36.4532702,13.6691691 26.6821007,13.6691691 C16.9109312,13.6691691 8.98849768,21.5393732 8.98849768,31.2494216 C8.98849768,40.95947 16.9109312,48.8296741 26.6821007,48.8296741 Z M26.6821007,47.8296741 C17.4617407,47.8296741 9.98849768,40.4056992 9.98849768,31.2494216 C9.98849768,22.0931441 17.4617407,14.6691691 26.6821007,14.6691691 C35.9024607,14.6691691 43.3757037,22.0931441 43.3757037,31.2494216 C43.3757037,40.4056992 35.9024607,47.8296741 26.6821007,47.8296741 Z" id="Oval-6-Copy-191"></path>
                <polygon id="Line-Copy-81" opacity="0.304404438" points="30.0948212 40.2167143 4 21.5 3 22 29.5 41"></polygon>
                <polygon id="Line-Copy-81" opacity="0.304404438" points="7.54354026 50.9276729 3.71330208 22 2.66976182 22.0723271 6.5 51"></polygon>
                <polygon id="Line-Copy-81" opacity="0.304404438" points="27.517062 2.84123516 4 20.16608 4.54872835 20.8816693 28.0657904 3.55682448"></polygon>
                <polygon id="Line-Copy-81" opacity="0.304404438" points="29.6141964 41.6654766 7.60424516 51.2888428 7.99004875 52.1233662 30 42.5"></polygon>
                <polygon id="Line-Copy-81" opacity="0.304404438" points="31.4976935 39.9359447 28.8015269 4.23706804 27.8038333 4.30112334 30.5 40"></polygon>
                <polygon id="Line-Copy-81" opacity="0.304404438" points="51 18.2150017 30.1861774 2.84123516 29.6732394 3.54767543 50.4870621 18.921442"></polygon>
                <polygon id="Line-Copy-81" opacity="0.304404438" points="50.8095858 20.5563949 31.7094373 40.135185 32.3740299 40.7093318 51.4741784 21.1305417"></polygon>
                <polygon id="Line" opacity="0.304404438" points="8 51.5 14.5166565 42.4885785 13.8385227 41.8905226 7.32186615 50.9019442"></polygon>
                <polygon id="Line" opacity="0.304404438" points="4 21.9059155 11.257389 24.0744434 11.5103785 23.2429713 4.25298942 21.0744434"></polygon>
                <polygon id="Line" opacity="0.304404438" points="49.8091883 19.1371201 41 22.1493024 41.1908117 23.0575746 50 20.0453923"></polygon>
                <polygon id="Line" opacity="0.304404438" points="28.0719853 4.23706804 25.6796384 14.3064524 26.6604091 14.4699116 29.0527559 4.40052728"></polygon>
            </g>
        </g>
    </g>
</svg>