<?xml version="1.0" encoding="UTF-8"?>
<svg width="341px" height="332px" viewBox="0 0 341 332" version="1.1" xmlns="http://www.w3.org/2000/svg" xmlns:xlink="http://www.w3.org/1999/xlink">
    <!-- Generator: Sketch 41.2 (35397) - http://www.bohemiancoding.com/sketch -->
    <title>Logo</title>
    <desc>Created with Sketch.</desc>
    <defs></defs>
    <g id="Calculator" stroke="none" stroke-width="1" fill="none" fill-rule="evenodd" opacity="0.0904664855">
        <g id="Front-Page-Copy-10" transform="translate(-41.000000, -183.000000)" fill="#5DBDF9">
            <g id="Group" transform="translate(41.358574, 44.000000)">
                <g id="Logo" transform="translate(0.000000, 139.000000)">
                    <polygon id="Fill-1" points="0.555385958 83.3239664 66.7255971 83.3239664 66.7255971 331.299664 0.555385958 331.299664"></polygon>
                    <path d="M259.345152,258.344748 C269.171428,245.182191 274.106623,228.08072 274.106623,207.125908 C274.106623,177.787616 266.221339,156.812059 250.470072,144.219983 C240.809221,136.583314 229.576828,132.753311 216.794949,132.753311 C197.305065,132.753311 183.026084,139.707995 173.878053,153.55513 C164.796191,167.420416 160.211147,184.610052 160.211147,205.147376 C160.211147,227.269081 164.865119,244.985116 174.109648,258.235838 C183.376235,271.530643 197.418105,278.156005 216.329,278.156005 C235.165454,278.156005 249.538175,271.553981 259.345152,258.344748 M273.508334,114.088203 L273.508334,0.344622511 L339.678545,0.344622511 L340.246721,331.299664 L276.833602,331.299664 L276.265426,290.239834 C265.237058,304.457781 255.306012,314.822388 243.185835,321.274011 C230.966402,327.699704 215.562529,330.956633 197.473247,330.956633 C167.682867,330.956633 142.460988,319.622209 122.124676,296.950767 C101.766308,274.302663 91.5319821,245.226273 91.5319821,209.768273 C91.5319821,168.851805 101.507141,136.648141 121.540173,113.183212 C141.573204,89.7442138 168.642335,78.0130457 202.182361,78.0130457 C217.60002,78.0130457 231.639133,81.1844026 243.643512,87.5660128 C255.623077,93.9502161 265.237058,102.777116 273.508334,114.088203 Z" id="Fill-2"></path>
                    <polygon id="Fill-5" points="0.555385958 36.6482313 215.608572 36.6482313 215.608572 0.34488182 0.555385958 0.34488182"></polygon>
                </g>
            </g>
        </g>
    </g>
</svg>