<?xml version="1.0" encoding="UTF-8" standalone="no"?>
<svg width="46px" height="29px" viewBox="0 0 46 29" version="1.1" xmlns="http://www.w3.org/2000/svg" xmlns:xlink="http://www.w3.org/1999/xlink">
    <!-- Generator: Sketch 3.7 (28169) - http://www.bohemiancoding.com/sketch -->
    <title>GooglePlus Copy 2</title>
    <desc>Created with Sketch.</desc>
    <defs></defs>
    <g id="Buttons-&amp;-components" stroke="none" stroke-width="1" fill="none" fill-rule="evenodd">
        <g id="Tryit0.0-Copy" transform="translate(-1161.000000, -332.000000)" fill="#000000">
            <path d="M1201.6075,343.820609 L1201.6075,338.836015 L1198.02027,338.836015 L1198.02027,343.820609 L1192.85465,343.820609 L1192.85465,347.381034 L1198.02027,347.381034 L1198.02027,352.508045 L1201.6075,352.508045 L1201.6075,347.381034 L1206.62963,347.381034 L1206.62963,343.820609 L1201.6075,343.820609 L1201.6075,343.820609 Z M1175.49243,343.535775 L1175.49243,349.232455 C1175.49243,349.232455 1181.06039,349.225049 1183.32752,349.225049 C1182.09983,352.918064 1180.19085,354.929134 1175.49243,354.929134 C1170.73762,354.929134 1167.02655,351.103386 1167.02655,346.384115 C1167.02655,341.664844 1170.73762,337.839096 1175.49243,337.839096 C1178.00636,337.839096 1179.62995,338.7161 1181.11922,339.938465 C1182.31133,338.755265 1182.21175,338.586643 1185.24469,335.743858 C1182.67006,333.417903 1179.24812,332 1175.49243,332 C1167.48845,332 1161,338.439953 1161,346.384115 C1161,354.328134 1167.48845,360.76823 1175.49243,360.76823 C1187.45615,360.76823 1190.38032,350.428757 1189.4109,343.535775 L1175.49243,343.535775 L1175.49243,343.535775 Z" id="GooglePlus-Copy-2"></path>
        </g>
    </g>
</svg>