<?xml version="1.0" encoding="UTF-8" standalone="no"?>
<svg width="49px" height="43px" viewBox="0 0 49 43" version="1.1" xmlns="http://www.w3.org/2000/svg" xmlns:xlink="http://www.w3.org/1999/xlink">
    <!-- Generator: Sketch 3.8.3 (29802) - http://www.bohemiancoding.com/sketch -->
    <title>Group 58</title>
    <desc>Created with Sketch.</desc>
    <defs></defs>
    <g id="Landing-page" stroke="none" stroke-width="1" fill="none" fill-rule="evenodd">
        <g id="Group-58" transform="translate(-5.000000, -8.000000)">
            <polygon id="Shape-Copy" points="0 0 67 0 67 62 0 62"></polygon>
            <g id="Group-52" transform="translate(5.000000, 8.000000)" fill="#71CAF8">
                <g id="Verified" transform="translate(18.604167, 16.567073)">
                    <g id="AdobeStock_79449965-Copy-5" style="mix-blend-mode: multiply;">
                        <g id="Group-47" transform="translate(0.590800, 0.051825)">
                            <path d="M25.799134,1.72905695 C25.4805237,0.788111603 24.588415,0.118286103 23.5370011,0.118286103 L6.01343641,0.118286103 C4.96202252,0.118286103 4.08584429,0.788111603 3.75130351,1.72905695 L0.437756726,11.2820444 L0.437756726,24.0406254 C0.437756726,24.9177778 1.15462983,25.635448 2.03080806,25.635448 L3.6238594,25.635448 C4.50003764,25.635448 5.21691074,24.9177778 5.21691074,24.0406254 L5.21691074,22.4458028 L24.3335268,22.4458028 L24.3335268,24.0406254 C24.3335268,24.9177778 25.0503999,25.635448 25.9265781,25.635448 L27.5196295,25.635448 C28.3958077,25.635448 29.1126808,24.9177778 29.1126808,24.0406254 L29.1126808,11.2820444 L25.799134,1.72905695 L25.799134,1.72905695 Z M6.01343641,17.6613349 C4.6912038,17.6613349 3.6238594,16.5928038 3.6238594,15.269101 C3.6238594,13.9453982 4.6912038,12.8768671 6.01343641,12.8768671 C7.33566902,12.8768671 8.40301341,13.9453982 8.40301341,15.269101 C8.40301341,16.5928038 7.33566902,17.6613349 6.01343641,17.6613349 L6.01343641,17.6613349 Z M23.5370011,17.6613349 C22.2147685,17.6613349 21.1474241,16.5928038 21.1474241,15.269101 C21.1474241,13.9453982 22.2147685,12.8768671 23.5370011,12.8768671 C24.8592337,12.8768671 25.9265781,13.9453982 25.9265781,15.269101 C25.9265781,16.5928038 24.8592337,17.6613349 23.5370011,17.6613349 L23.5370011,17.6613349 Z M3.6238594,9.68722183 L6.01343641,2.51052003 L23.5370011,2.51052003 L25.9265781,9.68722183 L3.6238594,9.68722183 L3.6238594,9.68722183 Z" id="Shape"></path>
                        </g>
                    </g>
                </g>
                <path d="M8.66030093,0.125 C3.87981481,0.125 0,4.03018098 0,8.84192182 C0,13.6536627 3.87981481,17.5588436 8.66030093,17.5588436 C13.440787,17.5588436 17.3206019,13.6536627 17.3206019,8.84192182 C17.3206019,4.03018098 13.440787,0.125 8.66030093,0.125 L8.66030093,0.125 Z M6.92824074,13.2003827 L2.59809028,8.84192182 L3.81919271,7.61283585 L6.92824074,10.7334939 L13.5014091,4.11735019 L14.7225116,5.35515309 L6.92824074,13.2003827 L6.92824074,13.2003827 Z" id="Shape"></path>
            </g>
        </g>
    </g>
</svg>