<?xml version="1.0" encoding="UTF-8" standalone="no"?>
<svg width="46px" height="30px" viewBox="0 0 46 30" version="1.1" xmlns="http://www.w3.org/2000/svg" xmlns:xlink="http://www.w3.org/1999/xlink">
    <!-- Generator: Sketch 39.1 (31720) - http://www.bohemiancoding.com/sketch -->
    <title>Group 119</title>
    <desc>Created with Sketch.</desc>
    <defs>
        <polygon id="path-1" points="14.6299571 10.944715 36.4964407 5.5865136 31.1292599 27.4440178 9.55994316 32.4698702"></polygon>
        <mask id="mask-2" maskContentUnits="userSpaceOnUse" maskUnits="objectBoundingBox" x="0" y="0" width="26.9364975" height="26.8833566" fill="white">
            <use xlink:href="#path-1"></use>
        </mask>
    </defs>
    <g id="Page-1" stroke="none" stroke-width="1" fill="none" fill-rule="evenodd">
        <g id="Group-119" transform="translate(-1.000000, -3.000000)">
            <path d="M1.75,4.49888399 L1.75,32.5011578" id="Line" stroke="#164591" stroke-linecap="square" opacity="0.3"></path>
            <path d="M45.75,32.5011559 L45.75,4.49888399" id="Line" stroke="#164591" stroke-linecap="square" opacity="0.3"></path>
            <path d="M2.01574654,4 L45.5028763,4" id="Line" stroke="#164591" stroke-linecap="square" opacity="0.3"></path>
            <path d="M2.5,32.5 L45.5,32.5" id="Line" stroke="#164591" stroke-linecap="square" opacity="0.3"></path>
            <path d="M23,25 C26.3137085,25 29,22.3137085 29,19 C29,15.6862915 26.3137085,13 23,13 C19.6862915,13 17,15.6862915 17,19 C17,22.3137085 19.6862915,25 23,25 Z" id="Oval-11" stroke="#212121"></path>
            <use id="Rectangle-20" stroke="#212121" mask="url(#mask-2)" stroke-width="2" transform="translate(23.028192, 19.028192) rotate(-315.000000) translate(-23.028192, -19.028192) " xlink:href="#path-1"></use>
            <path d="M20,14 C20,14 26.4040251,15.6820483 27.3011844,23.1801645" id="Path-2" stroke="#212121"></path>
        </g>
    </g>
</svg>