<?xml version="1.0" encoding="UTF-8" standalone="no"?>
<svg width="102px" height="98px" viewBox="0 0 102 98" version="1.1" xmlns="http://www.w3.org/2000/svg" xmlns:xlink="http://www.w3.org/1999/xlink">
    <!-- Generator: Sketch 39.1 (31720) - http://www.bohemiancoding.com/sketch -->
    <title>Group 96</title>
    <desc>Created with Sketch.</desc>
    <defs></defs>
    <g id="Page-1" stroke="none" stroke-width="1" fill="none" fill-rule="evenodd">
        <g id="Group-96" transform="translate(1.000000, 1.000000)">
            <g id="Group-92" stroke="#164591">
                <circle id="Oval-6-Copy" cx="18" cy="31" r="2"></circle>
                <circle id="Oval-6-Copy" cx="46" cy="46" r="2"></circle>
                <ellipse id="Oval-6-Copy" cx="53" cy="31" rx="2" ry="2"></ellipse>
                <circle id="Oval-6-Copy" cx="15" cy="55" r="2"></circle>
                <circle id="Oval-6-Copy-91" cx="14" cy="68" r="2"></circle>
                <circle id="Oval-6-Copy-92" cx="15" cy="84" r="2"></circle>
                <circle id="Oval-6-Copy" cx="32" cy="67" r="2"></circle>
                <circle id="Oval-6-Copy" cx="28" cy="56" r="2"></circle>
                <ellipse id="Oval-6-Copy" cx="44" cy="60" rx="2" ry="2"></ellipse>
                <ellipse id="Oval-6-Copy-78" cx="44" cy="74" rx="2" ry="2"></ellipse>
                <ellipse id="Oval-6-Copy-79" cx="28" cy="79" rx="2" ry="2"></ellipse>
                <ellipse id="Oval-6-Copy-80" cx="7" cy="40" rx="2" ry="2"></ellipse>
                <ellipse id="Oval-6-Copy-90" cx="24" cy="41" rx="2" ry="2"></ellipse>
                <circle id="Oval-6-Copy" cx="60" cy="43" r="2"></circle>
                <circle id="Oval-6-Copy" cx="37" cy="94" r="2"></circle>
                <ellipse id="Oval-6-Copy" cx="2" cy="64" rx="2" ry="2"></ellipse>
                <ellipse id="Oval-6-Copy" cx="11" cy="21" rx="2" ry="2"></ellipse>
                <ellipse id="Oval-6-Copy" cx="10" cy="10" rx="2" ry="2"></ellipse>
                <circle id="Oval-6-Copy" cx="24" cy="12" r="2"></circle>
                <circle id="Oval-6-Copy-93" cx="31" cy="23" r="2"></circle>
                <circle id="Oval-6-Copy-99" cx="37" cy="34" r="2"></circle>
                <path d="M34,4 C35.1045695,4 36,3.1045695 36,2 C36,0.8954305 35.1045695,0 34,0 C32.8954305,0 32,0.8954305 32,2 C32,3.1045695 32.8954305,4 34,4 Z" id="Oval-6-Copy"></path>
                <ellipse id="Oval-6-Copy" cx="47" cy="19" rx="2" ry="2"></ellipse>
                <ellipse id="Oval-6-Copy-98" cx="47" cy="4" rx="2" ry="2"></ellipse>
            </g>
            <g id="Group-94" transform="translate(60.000000, 10.000000)" fill="#D0011B">
                <circle id="Oval-6-Copy" cx="12" cy="59" r="2"></circle>
                <circle id="Oval-6-Copy" cx="23" cy="52" r="2"></circle>
                <circle id="Oval-6-Copy" cx="29" cy="61" r="2"></circle>
                <circle id="Oval-6-Copy" cx="33" cy="46" r="2"></circle>
                <circle id="Oval-6-Copy" cx="2" cy="77" r="2"></circle>
                <circle id="Oval-6-Copy-101" cx="12" cy="71" r="2"></circle>
                <circle id="Oval-6-Copy-103" cx="24" cy="74" r="2"></circle>
                <circle id="Oval-6-Copy-3" cx="4" cy="51" r="2"></circle>
                <circle id="Oval-6-Copy" cx="10" cy="10" r="2"></circle>
                <circle id="Oval-6-Copy" cx="18" cy="16" r="2"></circle>
                <circle id="Oval-6-Copy-2" cx="28" cy="13" r="2"></circle>
                <circle id="Oval-6-Copy-104" cx="20" cy="2" r="2"></circle>
                <ellipse id="Oval-6-Copy-4" cx="35" cy="35" rx="2" ry="2"></ellipse>
                <circle id="Oval-6-Copy-5" cx="30" cy="25" r="2"></circle>
                <circle id="Oval-6-Copy-75" cx="23" cy="39" r="2"></circle>
                <circle id="Oval-6-Copy-6" cx="39" cy="20" r="2"></circle>
                <circle id="Oval-6-Copy-7" cx="20" cy="26" r="2"></circle>
            </g>
            <polyline id="Line" stroke="#212121" stroke-linecap="square" points="70.6043529 4 58.0943569 16.5099964 63.3591997 30.5952249 69.8328958 38.0077394 72.0590115 43.7658727 68.81465 51.7665798 60.2901511 52.3232876 55.025756 50.4148817 52.7352396 53.0460059 57.0128737 64.3697863 59.4937297 71.7515315 55.9545564 77.5812212 51 83.2835407 53.9109092 96.8742238"></polyline>
        </g>
    </g>
</svg>