<?xml version="1.0" encoding="UTF-8" standalone="no"?>
<svg width="105px" height="96px" viewBox="0 0 105 96" version="1.1" xmlns="http://www.w3.org/2000/svg" xmlns:xlink="http://www.w3.org/1999/xlink">
    <!-- Generator: Sketch 39.1 (31720) - http://www.bohemiancoding.com/sketch -->
    <title>Group 100</title>
    <desc>Created with Sketch.</desc>
    <defs></defs>
    <g id="Page-1" stroke="none" stroke-width="1" fill="none" fill-rule="evenodd">
        <g id="Group-100">
            <g id="Group-98">
                <g id="Group-5">
                    <g id="Group-95" transform="translate(68.000000, 38.000000)">
                        <ellipse id="Oval-2-Copy" stroke="#D0011B" fill="#D0011B" cx="14.5" cy="14.4269715" rx="14.4537255" ry="14.3936382"></ellipse>
                        <g id="Group-93" transform="translate(5.642857, 4.428571)">
                            <g id="Group" transform="translate(0.492063, 0.730423)">
                                <polygon id="Shape" points="0 0 18.7177588 0 18.7177588 18.7177588 0 18.7177588"></polygon>
                                <polygon id="Shape" fill="#FFFFFF" points="11.2306553 4.6794397 10.9186926 3.11962646 3.89953308 3.11962646 3.89953308 16.3780389 5.45934631 16.3780389 5.45934631 10.9186926 9.82682336 10.9186926 10.138786 12.4785059 15.5981323 12.4785059 15.5981323 4.6794397"></polygon>
                            </g>
                        </g>
                    </g>
                    <g id="Group" transform="translate(16.000000, 30.000000)">
                        <g id="Group-4">
                            <path d="M22.6891892,45.1897305 C35.2200824,45.1897305 45.3783784,35.0736648 45.3783784,22.5948653 C45.3783784,10.1160658 35.2200824,0 22.6891892,0 C10.158296,0 0,10.1160658 0,22.5948653 C0,35.0736648 10.158296,45.1897305 22.6891892,45.1897305 Z" id="Oval-2-Copy-2" stroke="#164591" stroke-width="2"></path>
                            <g id="ic_check_circle_black_24px-(3)" transform="translate(11.344595, 13.865616)" fill="#164591">
                                <g id="Group">
                                    <polygon id="Shape" points="8.19331832 16.7017643 0.315127628 8.82357357 2.5367774 6.6019238 8.19331832 12.2427083 20.1524118 0.283614865 22.3740616 2.52102102"></polygon>
                                </g>
                            </g>
                        </g>
                    </g>
                    <circle id="Oval-6-Copy" fill="#212121" opacity="0.3" cx="7" cy="51" r="2"></circle>
                    <path d="M14,30 C15.1045695,30 16,29.1045695 16,28 C16,26.8954305 15.1045695,26 14,26 C12.8954305,26 12,26.8954305 12,28 C12,29.1045695 12.8954305,30 14,30 Z" id="Oval-6-Copy-106" fill="#212121" opacity="0.3"></path>
                    <circle id="Oval-6-Copy-107" fill="#212121" opacity="0.3" cx="25" cy="25" r="2"></circle>
                    <circle id="Oval-6-Copy-137" fill="#212121" opacity="0.3" cx="37" cy="22" r="2"></circle>
                    <circle id="Oval-6-Copy-109" fill="#212121" opacity="0.3" cx="4" cy="28" r="2"></circle>
                    <path d="M10,21 C11.1045695,21 12,20.1045695 12,19 C12,17.8954305 11.1045695,17 10,17 C8.8954305,17 8,17.8954305 8,19 C8,20.1045695 8.8954305,21 10,21 Z" id="Oval-6-Copy-127" fill="#212121" opacity="0.3"></path>
                    <path d="M22,17 C23.1045695,17 24,16.1045695 24,15 C24,13.8954305 23.1045695,13 22,13 C20.8954305,13 20,13.8954305 20,15 C20,16.1045695 20.8954305,17 22,17 Z" id="Oval-6-Copy-136" fill="#212121" opacity="0.3"></path>
                    <circle id="Oval-6-Copy-110" fill="#212121" opacity="0.3" cx="11" cy="9" r="2"></circle>
                    <circle id="Oval-6-Copy-110" fill="#212121" opacity="0.3" cx="2" cy="14" r="2"></circle>
                    <ellipse id="Oval-6-Copy-90" fill="#212121" opacity="0.3" cx="9" cy="40" rx="2" ry="2"></ellipse>
                    <ellipse id="Oval-6-Copy-111" fill="#212121" opacity="0.3" cx="3" cy="2" rx="2" ry="2"></ellipse>
                </g>
            </g>
            <g id="Group-99" transform="translate(95.383074, 76.825267) rotate(-330.000000) translate(-95.383074, -76.825267) translate(78.883074, 64.325267)" fill="#212121" opacity="0.3">
                <path d="M13,4 C14.1045695,4 15,3.1045695 15,2 C15,0.8954305 14.1045695,-5.75539616e-13 13,-5.75539616e-13 C11.8954305,-5.75539616e-13 11,0.8954305 11,2 C11,3.1045695 11.8954305,4 13,4 Z" id="Oval-6-Copy-4"></path>
                <path d="M31,25 C32.1045695,25 33,24.1045695 33,23 C33,21.8954305 32.1045695,21 31,21 C29.8954305,21 29,21.8954305 29,23 C29,24.1045695 29.8954305,25 31,25 Z" id="Oval-6-Copy-128"></path>
                <circle id="Oval-6-Copy-5" cx="19" cy="10" r="2"></circle>
                <circle id="Oval-6-Copy-134" cx="12" cy="17" r="2"></circle>
                <circle id="Oval-6-Copy-135" cx="2.73205081" cy="16" r="2"></circle>
                <circle id="Oval-6-Copy-129" cx="23" cy="19" r="2"></circle>
                <circle id="Oval-6-Copy-7" cx="11" cy="10" r="2"></circle>
            </g>
        </g>
    </g>
</svg>