<?xml version="1.0" encoding="UTF-8"?>
<svg width="84px" height="82px" viewBox="0 0 84 82" version="1.1" xmlns="http://www.w3.org/2000/svg" xmlns:xlink="http://www.w3.org/1999/xlink">
    <!-- Generator: Sketch 41 (35326) - http://www.bohemiancoding.com/sketch -->
    <title>Group</title>
    <desc>Created with Sketch.</desc>
    <defs></defs>
    <g id="End-user-page" stroke="none" stroke-width="1" fill="none" fill-rule="evenodd">
        <g id="Front-Page-Copy-5" transform="translate(-388.000000, -920.000000)" stroke="#164591">
            <g id="Group-7" transform="translate(386.000000, 546.000000)">
                <g id="Group" transform="translate(0.000000, 373.000000)">
                    <g id="Group-13" transform="translate(11.125000, 12.066667)">
                        <ellipse id="Oval-6-Copy-191" cx="31.5056736" cy="30.7086397" rx="30.9533152" ry="30.7086397"></ellipse>
                    </g>
                    <path d="M12.0990011,48.2817011 C12.0990011,48.2817011 -8.64119096,60.5591899 19.0955035,57.62599 C46.8321979,54.6927901 71.1928976,37.9216251 75.1315915,35.1788633 C79.0702854,32.4361015 90.0136825,23.471474 69.7544894,26.9936474" id="Path-2" opacity="0.3" transform="translate(43.140656, 42.132070) rotate(-60.000000) translate(-43.140656, -42.132070) "></path>
                    <path d="M10.0395463,46.4580645 C7.24746105,47.0098495 5.1597276,47.7031694 5.1597276,47.7031694 C5.1597276,47.7031694 -15.0335398,52.7062177 12.5709619,51.4185417 C13.5819114,51.3713836 14.6569682,51.3157883 15.7994718,51.251201 C48.1386282,49.4230245 77.4303752,40.3252745 82.9435501,38.6113795 C88.4567249,36.8974845 87.4548507,36.4013694 77.4779921,36.4551517 C75.6014149,36.4652677 74.0440205,36.4135641 71.9193358,36.6608187" id="Path-2" opacity="0.3" transform="translate(42.155211, 44.040839) rotate(-315.000000) translate(-42.155211, -44.040839) "></path>
                    <path d="M11.9318932,43.7681539 C9.13980796,44.1679009 7.05207451,44.6701845 7.05207451,44.6701845 C7.05207451,44.6701845 -14.6473378,48.5650402 17.6918187,47.2405967 C50.0309751,45.9161532 79.3227221,39.3251837 84.835897,38.0835328 C90.3490718,36.8418819 89.3471976,36.4824656 79.370339,36.5214288 C77.4937618,36.5287575 75.9363674,36.4913002 73.8116827,36.6704266" id="Path-2" opacity="0.3" transform="translate(44.047558, 42.016967) rotate(-15.000000) translate(-44.047558, -42.016967) "></path>
                    <ellipse id="Oval" fill="#164591" cx="61.1875" cy="38.6266667" rx="2.225" ry="2.21333333"></ellipse>
                    <ellipse id="Oval-Copy" fill="#164591" cx="44.5" cy="7.64" rx="2.225" ry="2.21333333"></ellipse>
                    <ellipse id="Oval" fill="#164591" cx="15.575" cy="28.6666667" rx="2.225" ry="2.21333333"></ellipse>
                </g>
            </g>
        </g>
    </g>
</svg>