<?xml version="1.0" encoding="UTF-8"?>
<svg width="79px" height="52px" viewBox="0 0 79 52" version="1.1" xmlns="http://www.w3.org/2000/svg" xmlns:xlink="http://www.w3.org/1999/xlink">
    <!-- Generator: Sketch 41 (35326) - http://www.bohemiancoding.com/sketch -->
    <title>Group 18</title>
    <desc>Created with Sketch.</desc>
    <defs></defs>
    <g id="End-user-page" stroke="none" stroke-width="1" fill="none" fill-rule="evenodd" stroke-linecap="square">
        <g id="Front-Page-Copy-5" transform="translate(-390.000000, -1512.000000)" stroke="#164591">
            <g id="Group-18" transform="translate(390.000000, 1512.000000)">
                <g id="Group-16" transform="translate(0.000000, 9.000000)" opacity="0.3">
                    <g id="Group-14-Copy" transform="translate(0.401182, 0.000000)">
                        <g id="Group-109-Copy-2" transform="translate(0.000000, 0.399551)">
                            <path d="M0.651921453,23.9926492 L23.4691723,23.9926492" id="Line"></path>
                            <path d="M0.651921453,23.9926492 L0.651921453,0.959705967" id="Line"></path>
                            <path d="M0.651921453,0.959705967 L23.6864794,0.959705967" id="Line"></path>
                            <path d="M23.6864794,0.959705967 L23.6864794,23.9926492" id="Line"></path>
                        </g>
                    </g>
                </g>
                <g id="Group-16-Copy" transform="translate(14.000000, 27.000000)" opacity="0.3">
                    <g id="Group-14-Copy" transform="translate(0.401182, 0.000000)">
                        <g id="Group-109-Copy-2" transform="translate(0.000000, 0.399551)">
                            <path d="M0.651921453,23.9926492 L23.4691723,23.9926492" id="Line"></path>
                            <path d="M0.651921453,23.9926492 L0.651921453,0.959705967" id="Line"></path>
                            <path d="M0.651921453,0.959705967 L23.6864794,0.959705967" id="Line"></path>
                            <path d="M23.6864794,0.959705967 L23.6864794,23.9926492" id="Line"></path>
                        </g>
                    </g>
                </g>
                <g id="Group-16-Copy-3" transform="translate(27.000000, 0.000000)" opacity="0.3">
                    <g id="Group-14-Copy" transform="translate(0.401182, 0.000000)">
                        <g id="Group-109-Copy-2" transform="translate(0.000000, 0.399551)">
                            <path d="M0.651921453,23.9926492 L23.4691723,23.9926492" id="Line"></path>
                            <path d="M0.651921453,23.9926492 L0.651921453,0.959705967" id="Line"></path>
                            <path d="M0.651921453,0.959705967 L23.6864794,0.959705967" id="Line"></path>
                            <path d="M23.6864794,0.959705967 L23.6864794,23.9926492" id="Line"></path>
                        </g>
                    </g>
                </g>
                <g id="Group-16-Copy-2" transform="translate(54.000000, 15.000000)" opacity="0.3">
                    <g id="Group-14-Copy" transform="translate(0.401182, 0.000000)">
                        <g id="Group-109-Copy-2" transform="translate(0.000000, 0.399551)">
                            <path d="M0.651921453,23.9926492 L23.4691723,23.9926492" id="Line"></path>
                            <path d="M0.651921453,23.9926492 L0.651921453,0.959705967" id="Line"></path>
                            <path d="M0.651921453,0.959705967 L23.6864794,0.959705967" id="Line"></path>
                            <path d="M23.6864794,0.959705967 L23.6864794,23.9926492" id="Line"></path>
                        </g>
                    </g>
                </g>
                <polyline id="Line" points="4 22.4496094 8.84377209 27.2933815 21.1371536 15"></polyline>
                <polyline id="Line-Copy-2" points="18 40.4496094 22.8437721 45.2933815 35.1371536 33"></polyline>
                <polyline id="Line-Copy-4" points="31 13.4496094 35.8437721 18.2933815 48.1371536 6"></polyline>
                <polyline id="Line-Copy-3" points="58 28.4496094 62.8437721 33.2933815 75.1371536 21"></polyline>
            </g>
        </g>
    </g>
</svg>