<?xml version="1.0" encoding="UTF-8" standalone="no"?>
<svg width="47px" height="425px" viewBox="0 0 47 425" version="1.1" xmlns="http://www.w3.org/2000/svg" xmlns:xlink="http://www.w3.org/1999/xlink">
    <!-- Generator: Sketch 3.6.1 (26313) - http://www.bohemiancoding.com/sketch -->
    <title>Group 4</title>
    <desc>Created with Sketch.</desc>
    <defs></defs>
    <g id="Buttons" stroke="none" stroke-width="1" fill="none" fill-rule="evenodd">
        <g id="Tryit0.0-Copy" transform="translate(-884.000000, -300.000000)">
            <g id="Group-4" transform="translate(884.000000, 299.000000)">
                <g id="Group-7" fill="#FFFFFF">
                    <path d="M2.67841844,31.6274915 L9.28291844,31.6274915 L9.28291844,11.3194723 L2.67841844,11.3194723 L2.67841844,31.6274915 Z" id="Fill-5"></path>
                    <path d="M27.3247482,11.1242628 C23.541695,11.1242628 21.1712021,13.1137945 20.7331064,14.5070014 L20.7331064,11.3194723 L13.3148688,11.3194723 C13.4103865,13.0121786 13.3148688,31.6274915 13.3148688,31.6274915 L20.7331064,31.6274915 L20.7331064,20.6378251 C20.7331064,20.0272386 20.7027979,19.416652 20.8947518,18.9780994 C21.4044858,17.7569263 22.5001844,16.4902935 24.4702376,16.4902935 C27.0455426,16.4902935 28.2174716,18.3675128 28.2174716,21.118272 L28.2174716,31.6274915 L35.7055106,31.6274915 L35.7055106,20.3356516 C35.7055106,14.0452732 32.0179752,11.1242628 27.3247482,11.1242628" id="Fill-6"></path>
                    <path d="M5.85805674,1.73370923 C3.41959929,1.73370923 1.8242695,3.25349033 1.8242695,5.25995793 C1.8242695,7.22720537 3.3736773,8.77996706 5.76437589,8.77996706 L5.81213475,8.77996706 C8.2946773,8.77996706 9.84041135,7.22185717 9.84041135,5.25371836 C9.79265248,3.24992486 8.2946773,1.73370923 5.85805674,1.73370923" id="Fill-7"></path>
                </g>
                <path d="M38.5335319,99.761405 C38.5335319,100.925085 37.5815035,101.86934 36.4069504,101.86934 L26.5875177,101.86934 L26.5875177,87.0846776 L31.5964255,87.0846776 L32.3458723,81.3234742 L26.5875177,81.3234742 L26.5875177,77.6442074 C26.5875177,75.9761622 27.0546099,74.8395205 29.469844,74.8395205 L32.5495035,74.8384806 L32.5495035,69.6845953 C32.0162837,69.6149201 30.1888511,69.4578909 28.0612199,69.4578909 C23.6212199,69.4578909 20.5814468,72.1429861 20.5814468,77.0743266 L20.5814468,81.3234742 L15.5599433,81.3234742 L15.5599433,87.0846776 L20.5814468,87.0846776 L20.5814468,101.86934 L2.12658156,101.86934 C0.952028369,101.86934 0,100.925085 0,99.761405 L0,65.7994228 C0,64.6347029 0.952028369,63.6914879 2.12658156,63.6914879 L36.4069504,63.6914879 C37.5815035,63.6914879 38.5335319,64.6347029 38.5335319,65.7994228 L38.5335319,99.761405" id="Fill-12-Copy" fill="#FFFFFF"></path>
                <path d="M38.2291348,104.279251 C36.6693617,105.217266 34.945844,105.899459 33.1037163,106.265514 C31.6363121,104.673384 29.5391206,103.679212 27.217305,103.679212 C22.7668085,103.679212 19.1549787,107.34808 19.1549787,111.872808 C19.1549787,112.515484 19.2242553,113.138401 19.3628085,113.73844 C12.659773,113.396303 6.7177305,110.138207 2.73747518,105.174629 C2.04260993,106.389266 1.64584397,107.798369 1.64584397,109.298985 C1.64584397,112.14007 3.06916312,114.648377 5.23353191,116.118836 C3.91412766,116.078279 2.66819858,115.705984 1.57866667,115.096586 L1.57866667,115.197459 C1.57866667,119.167906 4.3591773,122.481118 8.05182979,123.230906 C7.37480851,123.423293 6.66209929,123.520006 5.92629787,123.520006 C5.4067234,123.520006 4.89974468,123.47009 4.40746099,123.374416 C5.43506383,126.628352 8.41080851,128.998349 11.9418156,129.061785 C9.18229787,131.260194 5.7027234,132.571543 1.92504965,132.571543 C1.2742695,132.571543 0.630836879,132.533066 0,132.458191 C3.56984397,134.779311 7.81146099,136.136418 12.363773,136.136418 C27.2015603,136.136418 35.3121702,123.653117 35.3121702,112.824343 C35.3121702,112.468687 35.3048227,112.111992 35.2911773,111.762576 C36.8677447,110.607215 38.2354326,109.164834 39.3134184,107.521748 C37.8691064,108.173783 36.3135319,108.613672 34.682383,108.811259 C36.3481702,107.798369 37.6266383,106.192719 38.2291348,104.279251" id="Fill-4" fill="#FFFFFF"></path>
                <path d="M40.6075006,44.8083336 L40.6075006,39.8237393 L37.0202655,39.8237393 L37.0202655,44.8083336 L31.8546471,44.8083336 L31.8546471,48.3687581 L37.0202655,48.3687581 L37.0202655,53.4957693 L40.6075006,53.4957693 L40.6075006,48.3687581 L45.6296296,48.3687581 L45.6296296,44.8083336 L40.6075006,44.8083336 L40.6075006,44.8083336 Z M14.4924295,44.5234996 L14.4924295,50.2201788 C14.4924295,50.2201788 20.0603923,50.2127731 22.3275248,50.2127731 C21.0998295,53.9057878 19.1908465,55.916858 14.4924295,55.916858 C9.73762124,55.916858 6.02655486,52.0911107 6.02655486,47.3718392 C6.02655486,42.6525677 9.73762124,38.8268204 14.4924295,38.8268204 C17.0063638,38.8268204 18.6299464,39.7038242 20.1192229,40.9261891 C21.3113329,39.7429888 21.2117512,39.5743671 24.2446867,36.7315818 C21.6700564,34.4056277 18.2481211,32.9877242 14.4924295,32.9877242 C6.48844724,32.9877242 0,39.4276776 0,47.3718392 C0,55.3158583 6.48844724,61.7559542 14.4924295,61.7559542 C26.4561454,61.7559542 29.3803159,51.4164814 28.4109015,44.5234996 L14.4924295,44.5234996 L14.4924295,44.5234996 Z" id="GooglePlus" fill="#FFFFFF"></path>
                <path d="M28.3795035,164.646447 C28.2136558,164.644513 28.0439057,164.683193 27.8858626,164.756685 C27.708308,164.826309 27.5268511,164.907537 27.3551499,164.979095 L27.1034516,165.083531 L26.7756584,165.213109 L26.7756584,165.216977 C23.2148102,166.648136 19.4744563,167.487491 16.0131167,167.560983 C15.886292,167.564851 15.7575161,167.564851 15.6345937,167.564851 C10.190886,167.568719 5.75006932,165.066125 1.27022962,162.600277 C1.11413765,162.519049 0.952192224,162.476501 0.796100249,162.476501 C0.59513183,162.476501 0.388309962,162.551927 0.238071436,162.691175 C0.0878329093,162.832357 -0.00191997664,163.035427 3.1173056e-05,163.242364 C-0.00191997664,163.51119 0.14441625,163.758742 0.349286968,163.919264 C4.55401456,167.537775 9.16263014,170.899065 15.3614327,170.902933 C15.482404,170.902933 15.6053264,170.899065 15.7282489,170.897131 C19.6715224,170.810101 24.1298995,169.48918 27.591239,167.334706 L27.6127017,167.321168 C28.0653684,167.052342 28.5180351,166.74677 28.9453369,166.40832 C29.2106933,166.212986 29.3941013,165.907415 29.3941013,165.590239 C29.3823944,165.027445 28.9004605,164.646447 28.3795035,164.646447 Z M33.1812829,162.646693 L33.1812829,162.644759 C33.1656737,162.302441 33.0934811,162.041351 32.9490961,161.824743 L32.9334869,161.803469 L32.9159265,161.782195 C32.7695903,161.623608 32.6291075,161.563654 32.4769178,161.497898 C32.0223,161.323838 31.3608602,161.231006 30.5647911,161.229072 C29.9931043,161.229072 29.3628829,161.283224 28.7287593,161.420538 L28.7268081,161.37799 L28.0887822,161.588796 L28.0770753,161.594598 L27.7161126,161.710638 L27.7161126,161.726109 C27.2927131,161.900169 26.9083366,162.116777 26.5512762,162.373999 C26.3288452,162.538389 26.1454371,162.756931 26.1356813,163.091513 C26.1298279,163.273308 26.2234831,163.48218 26.3776239,163.605956 C26.5317647,163.729732 26.7112705,163.77228 26.8693136,163.77228 C26.9063855,163.77228 26.9415062,163.770346 26.9727246,163.764544 L27.003943,163.76261 L27.0273567,163.758742 C27.3395407,163.692986 27.7941586,163.648504 28.3268224,163.575012 C28.7833915,163.524728 29.2672766,163.487982 29.6867738,163.487982 C29.9833485,163.486048 30.250656,163.507322 30.4340641,163.546002 C30.5257682,163.565342 30.5940584,163.58855 30.6311302,163.60789 C30.6447883,163.611758 30.654544,163.61756 30.6603975,163.621428 C30.6682021,163.64657 30.679909,163.712326 30.6779578,163.803224 C30.6818601,164.151344 30.5335727,164.797299 30.328702,165.427783 C30.1296848,166.058266 29.8877422,166.690684 29.7277479,167.110362 C29.6887249,167.207062 29.66336,167.313432 29.66336,167.429472 C29.6594577,167.597729 29.7296991,167.802733 29.8779865,167.938113 C30.0223715,168.073493 30.2096819,168.127645 30.3657739,168.127645 L30.3735785,168.127645 C30.6077164,168.125711 30.8067337,168.032879 30.9784349,167.899433 C32.5978891,166.45667 33.1617714,164.151344 33.1851852,162.853631 L33.1812829,162.646693 Z M17.5623296,155.80614 C17.0491772,156.821489 16.1692087,157.47518 15.2170476,157.695656 C15.0726626,157.695656 14.8521827,157.767214 14.6317027,157.767214 C13.0220042,157.767214 12.0698432,156.533323 12.0698432,154.719232 C12.0698432,152.394566 13.4610129,151.307659 15.2170476,150.797083 C16.1692087,150.580475 17.2696571,150.506983 18.3681544,150.506983 L18.3681544,151.379217 C18.3681544,153.048258 18.4403469,154.353707 17.5623296,155.80614 Z M18.3681544,147.170836 C17.4159934,147.242394 16.3155449,147.313952 15.2170476,147.457067 C13.5332055,147.677543 11.8493633,147.967643 10.4601447,148.621335 C7.74999776,149.710176 5.9178682,152.032908 5.9178682,155.442548 C5.9178682,159.728289 8.70020766,161.904037 12.2181306,161.904037 C13.3888204,161.904037 14.3409814,161.757053 15.2170476,161.54238 C16.6121197,161.105296 17.7808583,160.306554 19.1720281,158.854121 C19.9778529,159.942963 20.200284,160.453538 21.5895025,161.613938 C21.9563187,161.757053 22.3231348,161.757053 22.6138561,161.54238 C23.4938247,160.815196 25.0332818,159.507813 25.8371554,158.782564 C26.2039716,158.492464 26.131779,158.05538 25.909348,157.695656 C25.1054743,156.678373 24.2976983,155.80614 24.2976983,153.846999 L24.2976983,147.313952 C24.2976983,144.556069 24.5201294,142.014795 22.4694711,140.129147 C20.7856289,138.60709 18.1476745,138.024956 16.0970162,138.024956 L15.2170476,138.024956 C11.4844983,138.23963 7.531469,139.837113 6.64954933,144.41102 C6.50321311,144.993153 6.94417294,145.209761 7.23684539,145.281319 L11.3381621,145.789961 C11.7771707,145.716469 11.9976506,145.352877 12.0698432,144.993153 C12.4347082,143.39567 13.7536854,142.596929 15.2170476,142.449945 L15.5116712,142.449945 C16.3916398,142.449945 17.3438008,142.813537 17.855002,143.54072 C18.4403469,144.41102 18.3681544,145.573353 18.3681544,146.590636 L18.3681544,147.170836 L18.3681544,147.170836 Z" id="Amazon" fill="#FFFFFF"></path>
                <g id="ic_file_upload_black_24px" transform="translate(0.000000, 279.469715)" fill="#FFFFFF">
                    <g id="Group">
                        <path d="M7.84126984,26.8758591 L19.2698413,26.8758591 L19.2698413,15.5530864 L26.8888889,15.5530864 L13.5555556,2.34318491 L0.222222222,15.5530864 L7.84126984,15.5530864 L7.84126984,26.8758591 Z M0.222222222,30.6501167 L26.8888889,30.6501167 L26.8888889,34.4243743 L0.222222222,34.4243743 L0.222222222,30.6501167 Z" id="Shape"></path>
                    </g>
                </g>
                <path d="M27.56,406.852586 C22.0133333,403.589741 12.74,403.246283 7.45333333,404.877706 C6.58666667,405.135299 5.72,404.620113 5.46,403.847334 C5.2,402.98869 5.72,402.130046 6.5,401.872453 C12.6533333,400.069302 22.7933333,400.412759 29.2066667,404.190791 C29.9866667,404.620113 30.2466667,405.650485 29.8133333,406.423264 C29.38,407.024315 28.34,407.281908 27.56,406.852586 M27.3866667,411.66099 C26.9533333,412.262041 26.1733333,412.519634 25.5666667,412.090312 C20.8866667,409.256788 13.78,408.398145 8.32,410.115432 C7.62666667,410.287161 6.84666667,409.943703 6.67333333,409.256788 C6.5,408.569873 6.84666667,407.797094 7.54,407.625365 C13.8666667,405.73635 21.6666667,406.680857 27.04,409.943703 C27.56,410.201296 27.82,411.05994 27.3866667,411.66099 M25.3066667,416.38353 C24.96,416.898716 24.3533333,417.070445 23.8333333,416.726988 C19.76,414.236921 14.6466667,413.721735 8.58,415.095565 C7.97333333,415.267293 7.45333333,414.837972 7.28,414.322785 C7.10666667,413.721735 7.54,413.206549 8.06,413.03482 C14.6466667,411.575126 20.3666667,412.176176 24.8733333,414.923836 C25.48,415.181429 25.5666667,415.868344 25.3066667,416.38353 M17.3333333,391.56873 C7.8,391.56873 0,399.296523 0,408.741602 C0,418.186682 7.8,425.914474 17.3333333,425.914474 C26.8666667,425.914474 34.6666667,418.186682 34.6666667,408.741602 C34.6666667,399.296523 26.9533333,391.56873 17.3333333,391.56873" id="Spotify" fill="#FFFFFF"></path>
                <path d="M0,391.56873 L34.6666667,391.56873 L34.6666667,425.914474 L0,425.914474 L0,391.56873 Z" id="Shape"></path>
                <path d="M29.037037,242.722012 L4.14814815,242.722012 C3.5757037,242.722012 3.11111111,242.26172 3.11111111,241.694575 L3.11111111,226.283024 L7.25925926,226.283024 C6.71896296,227.053601 6.53644444,228.490985 6.53644444,229.403349 C6.53644444,234.905273 11.0651852,239.381815 16.630963,239.381815 C22.1977778,239.381815 26.7265185,234.905273 26.7265185,229.403349 C26.7265185,228.490985 26.5958519,227.075177 25.9259259,226.283024 L30.0740741,226.283024 L30.0740741,241.694575 C30.0740741,242.26172 29.6094815,242.722012 29.037037,242.722012 M16.630963,223.095915 C20.1558519,223.095915 23.0128889,225.920338 23.0128889,229.403349 C23.0128889,232.887387 20.1558519,235.711811 16.630963,235.711811 C13.1071111,235.711811 10.2500741,232.887387 10.2500741,229.403349 C10.2500741,225.920338 13.1071111,223.095915 16.630963,223.095915 M24.8888889,217.036093 L28,217.036093 C28.5724444,217.036093 29.037037,217.496384 29.037037,218.063529 L29.037037,221.14584 C29.037037,221.712985 28.5724444,222.173276 28,222.173276 L24.8888889,222.173276 C24.3164444,222.173276 23.8518519,221.712985 23.8518519,221.14584 L23.8518519,218.063529 C23.8518519,217.496384 24.3164444,217.036093 24.8888889,217.036093 M29.2402963,212.926345 L3.94488889,212.926345 C1.76607407,212.926345 0,214.67196 0,216.825468 L0,241.9052 C0,244.058707 1.76607407,245.804322 3.94488889,245.804322 L29.2402963,245.804322 C31.4191111,245.804322 33.1851852,244.058707 33.1851852,241.9052 L33.1851852,216.825468 C33.1851852,214.67196 31.4191111,212.926345 29.2402963,212.926345" id="Instagram" fill="#FFFFFF"></path>
                <path d="M20,196.506226 L11.76625,203.369162 L0,195.697354 L8.13625,189.19142 L19.9999762,196.506212 L31.8635,189.190297 L39.99975,195.697478 L28.2335,203.369287 L19.99975,196.506351 Z M11.7665,175.01268 L0.000250000002,182.684489 L8.1365,189.190422 L20.00025,181.875616 L11.7665,175.01268 Z M20.024125,197.982794 L11.766625,204.825757 L8.232875,202.521468 L8.232875,205.104119 L20.024125,212.165528 L31.815375,205.104119 L31.815375,202.521468 L28.281625,204.825757 L20.024125,197.982794 Z M40,182.684613 L28.23375,175.012805 L20,181.875741 L31.86375,189.190547 L40,182.684613 Z" id="Dropbox" fill="#FFFFFF"></path>
                <path d="M0,362.531409 C0,363.096625 0.203947954,363.523989 0.611757407,363.813676 C1.01961009,364.10332 1.45556073,364.205731 1.91965255,364.120997 C2.35560319,364.036219 2.66148189,363.880778 2.83733189,363.654718 C3.01309543,363.428657 3.10102043,363.054192 3.10102043,362.531409 L3.10102043,356.385003 C3.10102043,355.946954 2.94985341,355.57605 2.64747614,355.272291 C2.3451421,354.968489 1.97597815,354.816609 1.53998429,354.816609 C1.11808263,354.816609 0.755964777,354.968489 0.453587512,355.272291 C0.151210246,355.57605 0,355.946954 0,356.385003 L0,362.531409 L0,362.531409 Z M4.85186909,365.159528 C4.85186909,365.569346 4.99603323,365.876623 5.28431829,366.081532 C5.57264657,366.286441 5.94181053,366.388852 6.39181014,366.388852 C6.85590197,366.388852 7.2320688,366.286398 7.52039708,366.081532 C7.80868214,365.876666 7.95284629,365.569346 7.95284629,365.159528 L7.95284629,350.832042 C7.95284629,350.408152 7.80163604,350.044284 7.499302,349.740525 C7.19692474,349.436766 6.82776078,349.284843 6.39181014,349.284843 C5.96990848,349.284843 5.60774741,349.436766 5.30541337,349.740525 C5.00303611,350.044328 4.85186909,350.408152 4.85186909,350.832042 L4.85186909,365.159528 L4.85186909,365.159528 Z M9.68264309,365.837752 C9.68264309,366.247527 9.83030867,366.554847 10.1256398,366.759756 C10.420971,366.964622 10.8006825,367.067076 11.2648175,367.067076 C11.7148172,367.067076 12.0839811,366.964622 12.3722662,366.759756 C12.6605945,366.554847 12.8047586,366.247527 12.8047586,365.837752 L12.8047586,352.760742 C12.8047586,352.322737 12.6535484,351.948272 12.3512143,351.637433 C12.048837,351.326595 11.6867192,351.171198 11.2648175,351.171198 C10.8288237,351.171198 10.4561583,351.326595 10.1467781,351.637433 C9.837398,351.948272 9.68268632,352.322737 9.68268632,352.760742 L9.68268632,365.837752 L9.68264309,365.837752 Z M14.5345122,365.901335 C14.5345122,366.678496 15.0548431,367.067076 16.0955483,367.067076 C17.1362103,367.067076 17.6565412,366.678496 17.6565412,365.901335 L17.6565412,344.70683 C17.6565412,343.519938 17.2979248,342.848793 16.580692,342.693352 C16.1166002,342.580301 15.6595112,342.714547 15.2095116,343.096048 C14.7594688,343.477549 14.5344689,344.014448 14.5344689,344.70683 L14.5344689,365.901335 L14.5345122,365.901335 Z M19.4708048,366.515976 L19.4708048,343.456355 C19.4708048,342.721626 19.6887585,342.283621 20.1247524,342.142295 C21.066985,341.916235 22.0022148,341.803183 22.9303984,341.803183 C25.0820537,341.803183 27.0861298,342.311851 28.9424539,343.329188 C30.7988212,344.346524 32.3001167,345.734764 33.4462541,347.493908 C34.5924347,349.253095 35.2569298,351.192349 35.4397394,353.311843 C36.2975917,352.944457 37.2116832,352.760786 38.182057,352.760786 C40.1509458,352.760786 41.835051,353.460204 43.2343293,354.859042 C44.6336509,356.257922 45.3333333,357.939324 45.3333333,359.903377 C45.3333333,361.881545 44.6336509,363.570027 43.2343293,364.968864 C41.835051,366.367701 40.1579919,367.06712 38.2031521,367.06712 L19.8504299,367.045925 C19.7238161,367.003536 19.6288883,366.925794 19.565603,366.812786 C19.5023178,366.699777 19.4708048,366.600754 19.4708048,366.515976 L19.4708048,366.515976 L19.4708048,366.515976 Z" id="Soundcloud" fill="#FFFFFF"></path>
                <g id="ic_email_black_24px" transform="translate(0.000000, 362.222986)">
                    <g id="Group">
                        <path d="M28.8888889,5.72429065 L5.77777778,5.72429065 C4.18888889,5.72429065 2.90333333,7.01225605 2.90333333,8.58643598 L2.88888889,25.7593079 C2.88888889,27.3334879 4.18888889,28.6214533 5.77777778,28.6214533 L28.8888889,28.6214533 C30.4777778,28.6214533 31.7777778,27.3334879 31.7777778,25.7593079 L31.7777778,8.58643598 C31.7777778,7.01225605 30.4777778,5.72429065 28.8888889,5.72429065 L28.8888889,5.72429065 Z M28.8888889,11.4485813 L17.3333333,18.6039446 L5.77777778,11.4485813 L5.77777778,8.58643598 L17.3333333,15.7417993 L28.8888889,8.58643598 L28.8888889,11.4485813 L28.8888889,11.4485813 Z" id="Shape" fill="#FFFFFF"></path>
                        <path d="M0,0 L34.6666667,0 L34.6666667,34.3457439 L0,34.3457439 L0,0 Z" id="Shape"></path>
                    </g>
                </g>
                <g id="Group-2" transform="translate(0.000000, 245.914070)" fill="#FFFFFF">
                    <path d="M39.7405182,30.2715911 C36.1612227,32.9017575 31.7221892,34.4413282 26.4593071,34.8903034 L19.726032,34.8903034 C14.4253857,34.4413282 9.9935837,32.9017575 6.4726754,30.2715911 C2.15791557,27.0993111 0,22.9619469 0,17.8592331 C0,12.8255107 2.15791557,8.7560765 6.4726754,5.58485793 C10.7186026,2.34438256 16.2857409,0.758640606 23.1060611,0.758640606 C29.8575488,0.758640606 35.424687,2.34438256 39.7405182,5.58485793 C43.9856419,8.7560765 46.1435575,12.8255107 46.1435575,17.8592331 C46.1435575,22.9619469 43.9856419,27.0993111 39.7405182,30.2715911 Z M33.2678428,14.3430572 C32.7801223,14.4791827 31.4581077,15.4455937 29.1614556,17.3080975 C26.7255313,19.238266 25.4723493,20.4793161 25.2639767,21.1005045 L25.1249723,22.8236986 L25.0550684,23.8588358 L25.3336128,26.4778574 L29.6486405,26.5471142 L29.5787365,27.8568903 L22.5497758,27.8568903 L16.2857409,27.9264125 L16.4946492,26.6845664 L18.5124891,26.616371 C19.5570306,26.5471142 20.1837555,26.409662 20.3923959,26.2010955 C20.5314003,26.0649701 20.6007686,25.2370727 20.6007686,23.7885175 L20.6007686,22.8937515 L20.5314003,21.1005045 C20.3923959,20.6865558 19.2784862,19.1700706 17.1213741,16.5489262 C14.8943581,13.8598517 13.4322678,12.2733137 12.7359068,11.7211168 L8.69915575,11.1697159 L8.69915575,9.9968612 C8.90859971,9.86073576 11.1358836,9.86073576 15.2422707,9.92893116 C18.0952082,9.86073576 20.462032,9.86073576 22.3414032,9.9968612 L22.2018632,10.9630069 L17.9562038,11.3782823 C19.2784862,13.3084508 21.2971295,15.9967292 24.0115983,19.3757182 C27.5608967,16.6866438 29.4397322,14.9623882 29.5091004,14.2045436 L25.8907016,13.6523467 L25.6118894,12.411562 L31.6675517,12.411562 L37.3734265,12.4805534 L36.5385968,13.6523467 L33.2678428,14.3430572 Z" id="Combined-Shape"></path>
                </g>
                <g id="ic_people_black_24px" transform="translate(0.000000, 305.173479)">
                    <g id="Group">
                        <path d="M0,0 L45.3333333,0 L45.3333333,44.9136651 L0,44.9136651 L0,0 Z" id="Shape"></path>
                        <path d="M30.2222222,20.5854299 C33.3577778,20.5854299 35.87,18.0777502 35.87,14.9712217 C35.87,11.8646932 33.3577778,9.35701357 30.2222222,9.35701357 C27.0866667,9.35701357 24.5555556,11.8646932 24.5555556,14.9712217 C24.5555556,18.0777502 27.0866667,20.5854299 30.2222222,20.5854299 L30.2222222,20.5854299 Z M15.1111111,20.5854299 C18.2466667,20.5854299 20.7588889,18.0777502 20.7588889,14.9712217 C20.7588889,11.8646932 18.2466667,9.35701357 15.1111111,9.35701357 C11.9755556,9.35701357 9.44444444,11.8646932 9.44444444,14.9712217 C9.44444444,18.0777502 11.9755556,20.5854299 15.1111111,20.5854299 L15.1111111,20.5854299 Z M15.1111111,24.3282353 C10.71,24.3282353 1.88888889,26.5177765 1.88888889,30.8781448 L1.88888889,35.5566516 L28.3333333,35.5566516 L28.3333333,30.8781448 C28.3333333,26.5177765 19.5122222,24.3282353 15.1111111,24.3282353 L15.1111111,24.3282353 Z M30.2222222,24.3282353 C29.6744444,24.3282353 29.0511111,24.3656633 28.39,24.4218054 C30.5811111,25.9937837 32.1111111,28.1084688 32.1111111,30.8781448 L32.1111111,35.5566516 L43.4444444,35.5566516 L43.4444444,30.8781448 C43.4444444,26.5177765 34.6233333,24.3282353 30.2222222,24.3282353 L30.2222222,24.3282353 Z" id="Shape" fill="#FFFFFF"></path>
                    </g>
                </g>
            </g>
        </g>
    </g>
</svg>