<?xml version="1.0" encoding="UTF-8"?>
<svg width="98px" height="57px" viewBox="0 0 98 57" version="1.1" xmlns="http://www.w3.org/2000/svg" xmlns:xlink="http://www.w3.org/1999/xlink">
    <!-- Generator: Sketch 39.1 (31720) - http://www.bohemiancoding.com/sketch -->
    <title>Group 60</title>
    <desc>Created with Sketch.</desc>
    <defs></defs>
    <g id="Page-1" stroke="none" stroke-width="1" fill="none" fill-rule="evenodd">
        <g id="Group-60" transform="translate(1.000000, 0.000000)">
            <g id="Group-51-Copy" transform="translate(18.000000, 0.000000)">
                <path d="M0.757138097,36.4649662 L25.5000008,45.5000001" id="Line-Copy-12" stroke="#164591" stroke-linecap="square" opacity="0.3"></path>
                <path d="M0.757138097,36.4649662 L34.5000008,26.5" id="Line-Copy-12" stroke="#164591" stroke-linecap="square" opacity="0.3"></path>
                <path d="M40.5000001,31.5 L38.5,39.5" id="Line-Copy-12" stroke="#164591" stroke-linecap="square" opacity="0.3"></path>
                <path d="M49.5,30.5 L54.5,35.4999998" id="Line-Copy-12" stroke="#164591" stroke-linecap="square" opacity="0.3"></path>
                <path d="M52.5,21.4999999 L59.4999999,19.5" id="Line-Copy-12" stroke="#164591" stroke-linecap="square" opacity="0.3"></path>
                <path d="M64.5,33.5000004 L66.5000001,25.5" id="Line-Copy-12" stroke="#164591" stroke-linecap="square" opacity="0.3"></path>
                <path d="M52.5,43.5 L45.5,45.5" id="Line-Copy-12" stroke="#164591" stroke-linecap="square" opacity="0.3"></path>
                <path d="M0.757138097,36.4649645 L24.5000008,3.5" id="Line" stroke="#164591" stroke-linecap="square" opacity="0.3"></path>
                <path d="M27.2241135,1.45619654 C25.9207537,0.173990376 23.8042749,0.182932595 22.4926965,1.47322397 C21.1765932,2.76796678 21.1674424,4.86408411 22.4753881,6.15080178 C23.7787479,7.43300794 25.8952268,7.42406572 27.2068052,6.13377434 L26.505507,5.42090628 C25.5817531,6.32966762 24.0895406,6.33597228 23.1766863,5.43793371 C22.268418,4.54440665 22.2747656,3.09040195 23.1939946,2.18609204 C24.1177486,1.2773307 25.6099611,1.27102603 26.5228153,2.16906461 C27.4310837,3.06259167 27.424736,4.51659636 26.505507,5.42090628 L27.2068052,6.13377434 C28.5229084,4.83903154 28.5320592,2.74291421 27.2241135,1.45619654 Z" id="Oval-6-Copy-5" fill-opacity="0.200000018" fill="#000000"></path>
                <path d="M24.5,3.5 L59.4999995,14.5" id="Line" stroke="#164591" stroke-linecap="square" opacity="0.3"></path>
                <g id="Group-53" transform="translate(52.000000, 32.000000)" fill="#164591">
                    <path d="M19.7990585,9.96361249 C19.7990585,4.7346801 15.4765457,0.5 10.1495293,0.5 C4.82251277,0.5 0.5,4.7346801 0.5,9.96361249 C0.5,15.1925449 4.82251277,19.427225 10.1495293,19.427225 C15.4765457,19.427225 19.7990585,15.1925449 19.7990585,9.96361249 Z M1.5,9.96361249 C1.5,5.29161192 5.37025479,1.5 10.1495293,1.5 C14.9288037,1.5 18.7990585,5.29161192 18.7990585,9.96361249 C18.7990585,14.6356131 14.9288037,18.427225 10.1495293,18.427225 C5.37025479,18.427225 1.5,14.6356131 1.5,9.96361249 Z" id="Oval-2-Copy"></path>
                    <path d="M8,7.78665271 L9.00765845,7.78665271 L9.00765845,6 L10.3433918,6 L10.3433918,7.78665271 L11.5502385,7.78665271 L11.5502385,8.76643001 L10.3433918,8.76643001 L10.3433918,11.9478245 C10.3433918,12.0861467 10.3492502,12.2052557 10.3609672,12.3051551 C10.3726842,12.4050544 10.4000235,12.4895834 10.4429859,12.5587445 C10.4859483,12.6279056 10.5503909,12.6797756 10.6363157,12.7143562 C10.7222405,12.7489367 10.8394089,12.7662267 10.9878245,12.7662267 C11.0815606,12.7662267 11.1752954,12.7643056 11.2690315,12.7604633 C11.3627676,12.756621 11.4565024,12.7431733 11.5502385,12.7201196 L11.5502385,13.7344772 C11.401823,13.7498464 11.2573152,13.7652153 11.116711,13.7805844 C10.9761068,13.7959535 10.8315991,13.803638 10.6831836,13.803638 C10.331673,13.803638 10.048516,13.7709791 9.83370405,13.7056602 C9.61889206,13.6403414 9.45095067,13.5442858 9.32987482,13.4174905 C9.20879897,13.2906951 9.12678108,13.1312428 9.08381869,12.9391286 C9.04085629,12.7470144 9.0154698,12.5280076 9.00765845,12.2821015 L9.00765845,8.76643001 L8,8.76643001 L8,7.78665271 Z" id="t"></path>
                </g>
                <g id="Group-55" transform="translate(59.000000, 7.000000)" fill="#164591">
                    <path d="M19.374599,9.711689 C19.374599,4.48275661 15.0520862,0.248076508 9.72506973,0.248076508 C4.39805324,0.248076508 0.0755404701,4.48275661 0.0755404701,9.711689 C0.0755404701,14.9406214 4.39805324,19.1753015 9.72506973,19.1753015 C15.0520862,19.1753015 19.374599,14.9406214 19.374599,9.711689 Z M1.07554047,9.711689 C1.07554047,5.03968842 4.94579526,1.24807651 9.72506973,1.24807651 C14.5043442,1.24807651 18.374599,5.03968842 18.374599,9.711689 C18.374599,14.3836896 14.5043442,18.1753015 9.72506973,18.1753015 C4.94579526,18.1753015 1.07554047,14.3836896 1.07554047,9.711689 Z" id="Oval-2-Copy"></path>
                    <path d="M6,5 L7.27970136,5 L7.27970136,6.19267215 L6,6.19267215 L6,5 Z M6,7.17552235 L7.27970136,7.17552235 L7.27970136,12.8848881 L6,12.8848881 L6,7.17552235 Z M8.67165722,7.17552235 L9.88400587,7.17552235 L9.88400587,8.01481016 L9.90645678,8.03689668 C10.1010322,7.72032162 10.3554732,7.47185074 10.6697874,7.29147658 C10.9841016,7.11110243 11.3320871,7.0209167 11.7137543,7.0209167 C12.3498663,7.0209167 12.8512648,7.1828829 13.2179647,7.50682017 C13.5846646,7.83075743 13.7680117,8.31665604 13.7680117,8.96453057 L13.7680117,12.8848881 L12.4883104,12.8848881 L12.4883104,9.29582839 C12.473343,8.84673355 12.3760568,8.52096062 12.1964487,8.31849982 C12.0168406,8.11603903 11.7362071,8.01481016 11.3545399,8.01481016 C11.1375134,8.01481016 10.9429409,8.05346118 10.7708165,8.13076439 C10.598692,8.2080676 10.4527626,8.31481806 10.3330239,8.45101895 C10.2132852,8.58721985 10.1197407,8.74734553 10.0523876,8.93140079 C9.98503459,9.11545605 9.95135858,9.31055171 9.95135858,9.5166936 L9.95135858,12.8848881 L8.67165722,12.8848881 L8.67165722,7.17552235 Z" id="in"></path>
                </g>
                <g id="Group-54" transform="translate(25.000000, 37.000000)" fill="#164591">
                    <path d="M20.2620169,10.2861637 C20.2620169,5.0572313 15.9395041,0.822551197 10.6124877,0.822551197 C5.28547117,0.822551197 0.962958394,5.0572313 0.962958394,10.2861637 C0.962958394,15.5150961 5.28547117,19.7497762 10.6124877,19.7497762 C15.9395041,19.7497762 20.2620169,15.5150961 20.2620169,10.2861637 Z M1.96295839,10.2861637 C1.96295839,5.61416311 5.83321318,1.8225512 10.6124877,1.8225512 C15.3917621,1.8225512 19.2620169,5.61416311 19.2620169,10.2861637 C19.2620169,14.9581643 15.3917621,18.7497762 10.6124877,18.7497762 C5.83321318,18.7497762 1.96295839,14.9581643 1.96295839,10.2861637 Z" id="Oval-2-Copy"></path>
                    <path d="M11.2180994,13.3239269 L10.5209924,13.3239269 L10.3554294,12.6038443 C10.0649668,12.9295976 9.77450841,13.1553355 9.48404571,13.2810648 C9.19358301,13.4067941 8.85955592,13.4696579 8.48195441,13.4696579 C8.01721409,13.4696579 7.60040637,13.3853633 7.23151874,13.2167717 C6.86263112,13.0481801 6.5503884,12.8181561 6.29478123,12.5266926 C6.03917405,12.2352292 5.84311467,11.8951936 5.7065972,11.5065757 C5.57007973,11.1179578 5.50182202,10.7036287 5.50182202,10.2635761 C5.50182202,9.8292384 5.57007973,9.41776677 5.7065972,9.02914886 C5.84311467,8.64053094 6.03917405,8.30049536 6.29478123,8.00903193 C6.5503884,7.71756849 6.86263112,7.4861157 7.23151874,7.31466662 C7.60040637,7.14321754 8.01721409,7.05749428 8.48195441,7.05749428 C8.81889114,7.05749428 9.13984761,7.10178463 9.44483344,7.19036666 C9.74981928,7.27894868 10.0213978,7.41039101 10.2595772,7.58469757 C10.4977567,7.75900414 10.6952683,7.97759844 10.8521182,8.24048703 C11.008968,8.50337562 11.1077239,8.80626445 11.1483887,9.14916261 L10.0853005,9.14916261 C10.0562542,8.94913869 9.99380568,8.77340601 9.89795299,8.62195933 C9.8021003,8.47051264 9.68156008,8.34335648 9.53632873,8.24048703 C9.39109738,8.13761758 9.22844071,8.06046665 9.04835384,8.00903193 C8.86826697,7.9575972 8.67946905,7.93188022 8.48195441,7.93188022 C8.15082693,7.93188022 7.86472547,7.99760139 7.62364143,8.12904568 C7.38255739,8.26048998 7.18649801,8.43622265 7.0354574,8.65624897 C6.8844168,8.87627529 6.77259034,9.12630145 6.69997466,9.40633495 C6.62735899,9.68636845 6.5910517,9.97211263 6.5910517,10.2635761 C6.5910517,10.5550395 6.62735899,10.8407837 6.69997466,11.1208172 C6.77259034,11.4008507 6.8844168,11.6508768 7.0354574,11.8709032 C7.18649801,12.0909295 7.38255739,12.2666622 7.62364143,12.3981065 C7.86472547,12.5295508 8.15082693,12.5952719 8.48195441,12.5952719 C8.7607986,12.6009869 9.00768819,12.5652689 9.22263059,12.4881168 C9.43757299,12.4109647 9.61910945,12.2995245 9.76724542,12.1537927 C9.9153814,12.008061 10.0272079,11.8294709 10.1027282,11.618017 C10.1782485,11.4065632 10.2189126,11.1722529 10.2247219,10.9150793 L8.56909278,10.9150793 L8.56909278,10.1007003 L11.2180994,10.1007003 L11.2180994,13.3239269 Z M13.9106751,8.9862868 L14.7994865,8.9862868 L14.7994865,10.7179139 L16.5509678,10.7179139 L16.5509678,11.5922998 L14.7994865,11.5922998 L14.7994865,13.3239269 L13.9106751,13.3239269 L13.9106751,11.5922998 L12.1591938,11.5922998 L12.1591938,10.7179139 L13.9106751,10.7179139 L13.9106751,8.9862868 Z" id="G+"></path>
                </g>
                <path d="M52.7990585,22.9636125 C52.7990585,17.7346801 48.4765457,13.5 43.1495293,13.5 C37.8225128,13.5 33.5,17.7346801 33.5,22.9636125 C33.5,28.1925449 37.8225128,32.427225 43.1495293,32.427225 C48.4765457,32.427225 52.7990585,28.1925449 52.7990585,22.9636125 Z M34.5,22.9636125 C34.5,18.2916119 38.3702548,14.5 43.1495293,14.5 C47.9288037,14.5 51.7990585,18.2916119 51.7990585,22.9636125 C51.7990585,27.6356131 47.9288037,31.427225 43.1495293,31.427225 C38.3702548,31.427225 34.5,27.6356131 34.5,22.9636125 Z" id="Oval-2-Copy" fill="#164591"></path>
                <path d="M41,21.4831933 L42.0891048,21.4831933 L42.0891048,20.9411765 C42.0891048,20.5294097 42.1403563,20.1953794 42.2428608,19.9390756 C42.3453653,19.6827718 42.4820359,19.4852948 42.6528767,19.3466387 C42.8237176,19.2079825 43.0180461,19.1155464 43.2358681,19.0693277 C43.4536902,19.023109 43.6821864,19 43.9213635,19 C44.3911758,19 44.7328523,19.0294115 44.9464033,19.0882353 L44.9464033,20.210084 C44.8524409,20.1848738 44.7520734,20.1659664 44.6452979,20.1533613 C44.5385224,20.1407562 44.4125292,20.1344538 44.2673145,20.1344538 C44.0708475,20.1344538 43.9021447,20.1806718 43.761201,20.2731092 C43.6202574,20.3655467 43.5497866,20.5462171 43.5497866,20.8151261 L43.5497866,21.4831933 L44.7926474,21.4831933 L44.7926474,22.5546218 L43.5497866,22.5546218 L43.5497866,28 L42.0891048,28 L42.0891048,22.5546218 L41,22.5546218 L41,21.4831933 Z" id="f" fill="#164591"></path>
            </g>
            <g id="Group" transform="translate(0.000000, 1.000000)" stroke="#000000" fill="#FFFFFF">
                <path d="M31.6208207,11.0043108 C31.6208207,5.08875019 26.8150525,0.297413804 20.881674,0.297413804 C14.9482955,0.297413804 10.1425274,5.08875019 10.1425274,11.0043108 C10.1425274,16.9198713 14.9482955,21.7112077 20.881674,21.7112077 C26.8150525,21.7112077 31.6208207,16.9198713 31.6208207,11.0043108 Z M20.5833644,25.2801733 C13.8132274,25.2801733 0.298309629,28.6677166 0.298309629,35.3922427 L0.298309629,40.4482774 L40.8684191,40.4482774 L40.8684191,35.3922427 C40.8684191,28.6677166 27.3535014,25.2801733 20.5833644,25.2801733 L20.5833644,25.2801733 Z" id="Shape"></path>
            </g>
        </g>
    </g>
</svg>