<?xml version="1.0" encoding="UTF-8" standalone="no"?>
<svg width="78px" height="22px" viewBox="0 0 78 22" version="1.1" xmlns="http://www.w3.org/2000/svg" xmlns:xlink="http://www.w3.org/1999/xlink">
    <!-- Generator: Sketch 3.8.3 (29802) - http://www.bohemiancoding.com/sketch -->
    <title>Logo</title>
    <desc>Created with Sketch.</desc>
    <defs>
        <polyline id="path-1" points="0 0.0222989516 77.9288122 0.0222989516 77.9288122 21.4606452 0 21.4606452"></polyline>
        <polygon id="path-3" points="0 0.0222989516 77.9288122 0.0222989516 77.9288122 21.4606452 0 21.4606452"></polygon>
    </defs>
    <g id="Landing-page" stroke="none" stroke-width="1" fill="none" fill-rule="evenodd">
        <g id="Homepage-Desktop-Copy-7" transform="translate(-25.000000, -10.000000)">
            <g id="Group-10">
                <g id="Logo" transform="translate(25.000000, 10.000000)">
                    <polygon id="Fill-1" fill="#00ADEE" points="41.4833974 5.38746024 45.5707336 5.38746024 45.5707336 20.9799602 41.4833974 20.9799602"></polygon>
                    <g id="Group-4">
                        <mask id="mask-2" fill="white">
                            <use xlink:href="#path-1"></use>
                        </mask>
                        <g id="Clip-3"></g>
                        <path d="M57.4688502,16.7037423 C58.0758197,15.8526936 58.3806668,14.7469673 58.3806668,13.3920965 C58.3806668,11.4951766 57.8935926,10.1389644 56.9206362,9.32480122 C56.3238852,8.83103872 55.6300598,8.58340299 54.8405227,8.58340299 C53.6366319,8.58340299 52.7546188,9.03307057 52.1895445,9.92838186 C51.6285576,10.8248668 51.3453393,11.9362935 51.3453393,13.2641709 C51.3453393,14.6944894 51.6328153,15.8399513 52.2038502,16.6967005 C52.7762476,17.5562999 53.6436144,17.9846745 54.811741,17.9846745 C55.9752694,17.9846745 56.8630729,17.5578089 57.4688502,16.7037423 M56.4989594,5.66173735 C57.2389376,6.07451944 57.8327934,6.64523848 58.3437105,7.37657702 L58.3437105,0.0222821855 L62.4310467,0.0222821855 L62.4310467,20.9799435 L58.5140162,20.9799435 L58.5140162,18.7659761 C57.8327934,19.685263 57.2193524,20.3554052 56.4706886,20.7725465 C55.7158939,21.1880111 54.7643961,21.3985937 53.6470205,21.3985937 C51.8068677,21.3985937 50.2489114,20.6657462 48.9927367,19.1998836 C47.7351996,17.7355298 47.1030249,15.8555438 47.1030249,13.5629433 C47.1030249,10.9174158 47.7191908,8.83523025 48.9566319,7.31806323 C50.1940729,5.80257283 51.8661341,5.04407315 53.9379026,5.04407315 C54.890252,5.04407315 55.7574485,5.24912291 56.4989594,5.66173735" id="Fill-2" fill="#00ADEE" mask="url(#mask-2)"></path>
                    </g>
                    <mask id="mask-4" fill="white">
                        <use xlink:href="#path-3"></use>
                    </mask>
                    <g id="Clip-6"></g>
                    <polygon id="Fill-5" fill="#00ADEE" mask="url(#mask-4)" points="41.4833974 2.36955702 54.7672402 2.36955702 54.7672402 0.0222989516 41.4833974 0.0222989516"></polygon>
                    <polygon id="Fill-7" fill="#212121" mask="url(#mask-4)" points="11.2523175 5.38742671 15.6729419 5.38742671 9.98745721 20.9799267 5.64500306 20.9799267 5.10917016e-05 5.38742671 4.62282838 5.38742671 7.90155328 16.8207531"></polygon>
                    <path d="M19.7436393,9.2090814 C19.1596611,9.79975212 18.7967397,10.5849099 18.6451677,11.5908777 L25.7370367,11.5908777 C25.6632943,10.5849099 25.2974777,9.71558615 24.6428227,9.15928599 C23.9849319,8.60432712 23.171041,8.32382978 22.2025127,8.32382978 C21.1445738,8.32382978 20.3231895,8.61857833 19.7436393,9.2090814 M25.9017223,5.72709172 C27.0003642,6.2109622 27.9069013,6.97533002 28.6237179,8.0196922 C29.2669624,8.94048801 29.6847223,9.99524519 29.8769974,11.2106219 C29.9883773,11.9225117 30.0331677,12.932168 30.0115389,14.2734583 L18.5453686,14.2734583 C18.6088926,15.7824099 19.1581284,16.9329017 20.1903511,17.5581107 C20.8204821,17.9464142 21.5780017,18.1471048 22.4627397,18.1471048 C23.399421,18.1471048 24.1598358,17.9526177 24.7482419,17.4786392 C25.0662026,17.2239617 25.351124,16.7883777 25.5939799,16.4530551 L29.7974646,16.4530551 C29.6877878,17.2913616 29.177552,18.2705035 28.2710148,19.2169515 C26.8602026,20.7255678 24.8855083,21.4605949 22.3486349,21.4605949 C20.2538751,21.4605949 18.4036742,20.8149312 16.8019493,19.5410408 C15.2002245,18.2718448 14.3992769,16.1975393 14.3992769,13.3313695 C14.3992769,10.6474476 15.1222245,8.58571672 16.567779,7.15271567 C18.0148664,5.71971462 19.891124,5.00128599 22.1967223,5.00128599 C23.5687048,5.00128599 24.8046131,5.2433889 25.9017223,5.72709172" id="Fill-8" fill="#212121" mask="url(#mask-4)"></path>
                    <path d="M39.7317694,5.53511954 C39.7852454,5.54082002 39.7803066,5.5478618 40.1209179,5.55641252 L40.1209179,9.71055631 C39.7803066,9.68188623 39.5931406,9.6621022 39.3906472,9.65355148 C39.1896865,9.64365946 39.0066079,9.63930027 38.8822847,9.63930027 C37.2257214,9.63930027 36.0862061,10.1701159 35.5167039,11.2304059 C35.2001057,11.8296274 35.0117476,12.7475729 35.0117476,13.9899431 L35.0117476,20.9799099 L30.9244114,20.9799099 L30.9244114,5.38740994 L34.8414419,5.38740994 L34.8414419,8.6018122 C35.5226646,7.56734204 36.0274507,6.8598114 36.497324,6.48290881 C37.2693197,5.84663422 38.2858742,5.52941906 39.5204201,5.52941906 C39.5956952,5.52941906 39.6784638,5.53092801 39.7317694,5.53511954" id="Fill-9" fill="#212121" mask="url(#mask-4)"></path>
                    <path d="M67.8807773,5.38742671 L67.8807773,14.7555013 C67.8807773,15.6379027 68.0039083,16.3010031 68.214917,16.7478204 C68.5892489,17.5348225 69.3317817,17.9276529 70.4248035,17.9276529 C71.8209694,17.9276529 72.7663362,17.3683349 73.2850873,16.2498664 C73.5528079,15.6434355 73.6711703,14.8410086 73.6711703,13.8461065 L73.6711703,5.38742671 L77.9288122,5.38742671 L77.9288122,20.9799267 L73.841476,20.9799267 L73.841476,18.724547 C73.841476,18.7714922 73.7270306,18.9153456 73.5754585,19.1515803 C73.4206507,19.3878151 73.2491528,19.5955474 73.0367817,19.7762863 C72.3948996,20.345664 71.7789039,20.7341353 71.1773843,20.9433765 C70.5791004,21.1511089 69.8762489,21.2548912 69.0696812,21.2548912 C66.7465415,21.2548912 65.1436245,20.4296624 64.3368865,18.7817195 C63.8860873,17.872157 63.6231354,16.5300284 63.6231354,14.7555013 L63.6231354,5.38742671 L67.8807773,5.38742671 Z" id="Fill-10" fill="#212121" mask="url(#mask-4)"></path>
                </g>
            </g>
        </g>
    </g>
</svg>