<?xml version="1.0" encoding="UTF-8" standalone="no"?>
<svg width="101px" height="57px" viewBox="0 0 101 57" version="1.1" xmlns="http://www.w3.org/2000/svg" xmlns:xlink="http://www.w3.org/1999/xlink">
    <!-- Generator: Sketch 39.1 (31720) - http://www.bohemiancoding.com/sketch -->
    <title>Group 51</title>
    <desc>Created with Sketch.</desc>
    <defs>
        <rect id="path-1" x="1.91846539e-13" y="6.21724894e-14" width="41.4649247" height="28.4666014" rx="5"></rect>
        <mask id="mask-2" maskContentUnits="userSpaceOnUse" maskUnits="objectBoundingBox" x="0" y="0" width="41.4649247" height="28.4666014" fill="white">
            <use xlink:href="#path-1"></use>
        </mask>
    </defs>
    <g id="Page-1" stroke="none" stroke-width="1" fill="none" fill-rule="evenodd">
        <g id="Group-51" transform="translate(-1.000000, 1.000000)">
            <path d="M23.7571381,35.4649662 L58.5000008,47.5000001" id="Line-Copy-12" stroke="#164591" stroke-linecap="square" opacity="0.3"></path>
            <path d="M23.7571381,35.4649662 L65.5000008,23.5" id="Line-Copy-12" stroke="#164591" stroke-linecap="square" opacity="0.3"></path>
            <path d="M65.5835576,24.0353139 L58.6124877,48.0380652" id="Line-Copy-12" stroke="#164591" stroke-linecap="square" opacity="0.3"></path>
            <path d="M65.5,22.5 L84.5000004,41.4999993" id="Line-Copy-12" stroke="#164591" stroke-linecap="square" opacity="0.3"></path>
            <path d="M65.5,22.6063494 L90.5000004,16.5" id="Line-Copy-12" stroke="#164591" stroke-linecap="square" opacity="0.3"></path>
            <path d="M84.5,41.4999994 L91.5000001,16.5" id="Line-Copy-12" stroke="#164591" stroke-linecap="square" opacity="0.3"></path>
            <path d="M84.4999999,41.5 L58.5,46.5" id="Line-Copy-12" stroke="#164591" stroke-linecap="square" opacity="0.3"></path>
            <path d="M23.7571381,35.4649645 L54.5000008,2.5" id="Line" stroke="#164591" stroke-linecap="square" opacity="0.3"></path>
            <ellipse id="Oval-6-Copy-5" stroke="#000000" opacity="0.3" cx="54.364461" cy="3.05327534" rx="2.84975082" ry="2.80349916"></ellipse>
            <path d="M54.5,2.5 L84.4280802,16.9246989" id="Line" stroke="#164591" stroke-linecap="square" opacity="0.3"></path>
            <path d="M23.7571381,8.89049148 L54.5000008,2.5" id="Line" stroke="#164591" stroke-linecap="square" opacity="0.3"></path>
            <path d="M23.7571381,8.89049148 L66.5000008,22.5000004" id="Line" stroke="#164591" stroke-linecap="square" opacity="0.3"></path>
            <path d="M23.5,8.89049148 L23.5,34.607725" id="Line" stroke="#164591" stroke-linecap="square" opacity="0.3"></path>
            <ellipse id="Oval-6-Copy-31" stroke="#000000" opacity="0.3" cx="23.6582877" cy="8.99235133" rx="5.78368873" ry="5.68981906"></ellipse>
            <g id="Group-53" transform="translate(76.000000, 32.000000)">
                <ellipse id="Oval-2-Copy" stroke="#164591" fill="#FFFFFF" cx="9.14952926" cy="8.96361249" rx="9.14952926" ry="8.96361249"></ellipse>
                <path d="M7,6.78665271 L8.00765845,6.78665271 L8.00765845,5 L9.34339175,5 L9.34339175,6.78665271 L10.5502385,6.78665271 L10.5502385,7.76643001 L9.34339175,7.76643001 L9.34339175,10.9478245 C9.34339175,11.0861467 9.34925017,11.2052557 9.36096719,11.3051551 C9.37268421,11.4050544 9.4000235,11.4895834 9.4429859,11.5587445 C9.4859483,11.6279056 9.55039093,11.6797756 9.63631572,11.7143562 C9.72224051,11.7489367 9.83940893,11.7662267 9.98782448,11.7662267 C10.0815606,11.7662267 10.1752954,11.7643056 10.2690315,11.7604633 C10.3627676,11.756621 10.4565024,11.7431733 10.5502385,11.7201196 L10.5502385,12.7344772 C10.401823,12.7498464 10.2573152,12.7652153 10.116711,12.7805844 C9.97610682,12.7959535 9.83159911,12.803638 9.68318356,12.803638 C9.33167304,12.803638 9.04851603,12.7709791 8.83370405,12.7056602 C8.61889206,12.6403414 8.45095067,12.5442858 8.32987482,12.4174905 C8.20879897,12.2906951 8.12678108,12.1312428 8.08381869,11.9391286 C8.04085629,11.7470144 8.0154698,11.5280076 8.00765845,11.2821015 L8.00765845,7.76643001 L7,7.76643001 L7,6.78665271 Z" id="t" fill="#164591"></path>
            </g>
            <g id="Group-55" transform="translate(82.000000, 6.000000)">
                <ellipse id="Oval-2-Copy" stroke="#164591" fill="#FFFFFF" cx="9.72506973" cy="9.711689" rx="9.14952926" ry="8.96361249"></ellipse>
                <path d="M6,5 L7.27970136,5 L7.27970136,6.19267215 L6,6.19267215 L6,5 Z M6,7.17552235 L7.27970136,7.17552235 L7.27970136,12.8848881 L6,12.8848881 L6,7.17552235 Z M8.67165722,7.17552235 L9.88400587,7.17552235 L9.88400587,8.01481016 L9.90645678,8.03689668 C10.1010322,7.72032162 10.3554732,7.47185074 10.6697874,7.29147658 C10.9841016,7.11110243 11.3320871,7.0209167 11.7137543,7.0209167 C12.3498663,7.0209167 12.8512648,7.1828829 13.2179647,7.50682017 C13.5846646,7.83075743 13.7680117,8.31665604 13.7680117,8.96453057 L13.7680117,12.8848881 L12.4883104,12.8848881 L12.4883104,9.29582839 C12.473343,8.84673355 12.3760568,8.52096062 12.1964487,8.31849982 C12.0168406,8.11603903 11.7362071,8.01481016 11.3545399,8.01481016 C11.1375134,8.01481016 10.9429409,8.05346118 10.7708165,8.13076439 C10.598692,8.2080676 10.4527626,8.31481806 10.3330239,8.45101895 C10.2132852,8.58721985 10.1197407,8.74734553 10.0523876,8.93140079 C9.98503459,9.11545605 9.95135858,9.31055171 9.95135858,9.5166936 L9.95135858,12.8848881 L8.67165722,12.8848881 L8.67165722,7.17552235 Z" id="in" fill="#164591"></path>
            </g>
            <g id="Group-54" transform="translate(49.000000, 37.000000)">
                <ellipse id="Oval-2-Copy" stroke="#164591" fill="#FFFFFF" cx="9.61248765" cy="9.28616369" rx="9.14952926" ry="8.96361249"></ellipse>
                <path d="M10.2180994,12.3239269 L9.52099236,12.3239269 L9.35542945,11.6038443 C9.06496675,11.9295976 8.77450841,12.1553355 8.48404571,12.2810648 C8.19358301,12.4067941 7.85955592,12.4696579 7.48195441,12.4696579 C7.01721409,12.4696579 6.60040637,12.3853633 6.23151874,12.2167717 C5.86263112,12.0481801 5.5503884,11.8181561 5.29478123,11.5266926 C5.03917405,11.2352292 4.84311467,10.8951936 4.7065972,10.5065757 C4.57007973,10.1179578 4.50182202,9.70362871 4.50182202,9.26357607 C4.50182202,8.8292384 4.57007973,8.41776677 4.7065972,8.02914886 C4.84311467,7.64053094 5.03917405,7.30049536 5.29478123,7.00903193 C5.5503884,6.71756849 5.86263112,6.4861157 6.23151874,6.31466662 C6.60040637,6.14321754 7.01721409,6.05749428 7.48195441,6.05749428 C7.81889114,6.05749428 8.13984761,6.10178463 8.44483344,6.19036666 C8.74981928,6.27894868 9.02139782,6.41039101 9.25957724,6.58469757 C9.49775665,6.75900414 9.69526832,6.97759844 9.85211818,7.24048703 C10.008968,7.50337562 10.1077239,7.80626445 10.1483887,8.14916261 L9.08530049,8.14916261 C9.05625422,7.94913869 8.99380568,7.77340601 8.89795299,7.62195933 C8.8021003,7.47051264 8.68156008,7.34335648 8.53632873,7.24048703 C8.39109738,7.13761758 8.22844071,7.06046665 8.04835384,7.00903193 C7.86826697,6.9575972 7.67946905,6.93188022 7.48195441,6.93188022 C7.15082693,6.93188022 6.86472547,6.99760139 6.62364143,7.12904568 C6.38255739,7.26048998 6.18649801,7.43622265 6.0354574,7.65624897 C5.8844168,7.87627529 5.77259034,8.12630145 5.69997466,8.40633495 C5.62735899,8.68636845 5.5910517,8.97211263 5.5910517,9.26357607 C5.5910517,9.55503951 5.62735899,9.84078369 5.69997466,10.1208172 C5.77259034,10.4008507 5.8844168,10.6508768 6.0354574,10.8709032 C6.18649801,11.0909295 6.38255739,11.2666622 6.62364143,11.3981065 C6.86472547,11.5295508 7.15082693,11.5952719 7.48195441,11.5952719 C7.7607986,11.6009869 8.00768819,11.5652689 8.22263059,11.4881168 C8.43757299,11.4109647 8.61910945,11.2995245 8.76724542,11.1537927 C8.9153814,11.008061 9.02720786,10.8294709 9.10272816,10.618017 C9.17824847,10.4065632 9.21891263,10.1722529 9.22472189,9.91507932 L7.56909278,9.91507932 L7.56909278,9.10070026 L10.2180994,9.10070026 L10.2180994,12.3239269 Z M12.9106751,7.9862868 L13.7994865,7.9862868 L13.7994865,9.71791386 L15.5509678,9.71791386 L15.5509678,10.5922998 L13.7994865,10.5922998 L13.7994865,12.3239269 L12.9106751,12.3239269 L12.9106751,10.5922998 L11.1591938,10.5922998 L11.1591938,9.71791386 L12.9106751,9.71791386 L12.9106751,7.9862868 Z" id="G+" fill="#164591"></path>
            </g>
            <g id="Group-29-Copy" transform="translate(0.000000, 18.000000)" stroke="#000000">
                <g id="Group-28">
                    <g id="Group-27-Copy" transform="translate(21.958762, 15.461378) rotate(-180.000000) translate(-21.958762, -15.461378) translate(0.958762, 0.961378)" stroke-width="2" fill="#FFFFFF">
                        <use id="Rectangle-10" mask="url(#mask-2)" xlink:href="#path-1"></use>
                    </g>
                    <polyline id="Line" stroke-linecap="square" points="5.62351968 15.1847826 17.9847768 15.1847826 38.8474003 15.1847826"></polyline>
                    <path d="M5.62351968,21.4891304 L16.2986575,21.4891304" id="Line-Copy-7" stroke-linecap="square"></path>
                    <path d="M5.62351968,25.2717391 L19.4145645,25.2717391" id="Line-Copy-8" stroke-linecap="square"></path>
                    <path d="M31.9518779,21.4891304 L38.8474003,21.4891304" id="Line-Copy-9" stroke-linecap="square"></path>
                </g>
            </g>
            <ellipse id="Oval-2-Copy" stroke="#164591" fill="#FFFFFF" cx="66.1495293" cy="21.9636125" rx="9.14952926" ry="8.96361249"></ellipse>
            <path d="M64,20.4831933 L65.0891048,20.4831933 L65.0891048,19.9411765 C65.0891048,19.5294097 65.1403563,19.1953794 65.2428608,18.9390756 C65.3453653,18.6827718 65.4820359,18.4852948 65.6528767,18.3466387 C65.8237176,18.2079825 66.0180461,18.1155464 66.2358681,18.0693277 C66.4536902,18.023109 66.6821864,18 66.9213635,18 C67.3911758,18 67.7328523,18.0294115 67.9464033,18.0882353 L67.9464033,19.210084 C67.8524409,19.1848738 67.7520734,19.1659664 67.6452979,19.1533613 C67.5385224,19.1407562 67.4125292,19.1344538 67.2673145,19.1344538 C67.0708475,19.1344538 66.9021447,19.1806718 66.761201,19.2731092 C66.6202574,19.3655467 66.5497866,19.5462171 66.5497866,19.8151261 L66.5497866,20.4831933 L67.7926474,20.4831933 L67.7926474,21.5546218 L66.5497866,21.5546218 L66.5497866,27 L65.0891048,27 L65.0891048,21.5546218 L64,21.5546218 L64,20.4831933 Z" id="f" fill="#164591"></path>
        </g>
    </g>
</svg>