<?xml version="1.0" encoding="UTF-8" standalone="no"?>
<svg width="54px" height="38px" viewBox="0 0 54 38" version="1.1" xmlns="http://www.w3.org/2000/svg" xmlns:xlink="http://www.w3.org/1999/xlink">
    <!-- Generator: Sketch 39.1 (31720) - http://www.bohemiancoding.com/sketch -->
    <title>Group 113</title>
    <desc>Created with Sketch.</desc>
    <defs></defs>
    <g id="Page-1" stroke="none" stroke-width="1" fill="none" fill-rule="evenodd">
        <g id="Group-113" transform="translate(-1.000000, 0.000000)">
            <g id="Group-110-Copy" stroke-linecap="square" stroke="#164591" opacity="0.3">
                <g id="Group-108-Copy-2">
                    <path d="M1.75,1.5 L1.75,28.5011578" id="Line"></path>
                    <path d="M2.5,28.5 L38.9166667,28.5" id="Line"></path>
                    <path d="M39.0833333,28.4811155 L39.0833333,37.5" id="Line"></path>
                    <path d="M39.0833333,37.5 L48.5,28.5" id="Line"></path>
                    <path d="M48.5833333,28.5 L53.5,28.5" id="Line"></path>
                    <path d="M54.25,28.5011559 L54.25,1.48214856" id="Line"></path>
                    <path d="M1.75,1.5 L54.2629598,1.5" id="Line"></path>
                </g>
            </g>
            <g id="Group-111-Copy" transform="translate(20.000000, 6.000000)" stroke="#212121">
                <ellipse id="Oval-10" cx="8.13043478" cy="8.86956522" rx="8.13043478" ry="8.13043478"></ellipse>
                <path d="M0.870453942,14.6825585 L2.51356185,16.5120032" id="Line" stroke-linecap="square" transform="translate(1.692008, 15.597281) rotate(-135.000000) translate(-1.692008, -15.597281) "></path>
                <path d="M3.75235575,12.5237363 L2.3578246,14.7982473" id="Line" stroke-linecap="square" transform="translate(3.055090, 13.660992) rotate(-135.000000) translate(-3.055090, -13.660992) "></path>
                <g id="Group-112" transform="translate(14.109459, 3.380522) rotate(-315.000000) translate(-14.109459, -3.380522) translate(12.609459, 0.880522)" stroke-linecap="square">
                    <path d="M0.108243151,0.67890946 L1.59375123,2.33288167" id="Line"></path>
                    <path d="M1.84782609,2.58695652 L0.587052352,4.64330626" id="Line"></path>
                </g>
            </g>
        </g>
    </g>
</svg>