<?xml version="1.0" encoding="UTF-8" standalone="no"?>
<svg width="54px" height="35px" viewBox="0 0 54 35" version="1.1" xmlns="http://www.w3.org/2000/svg" xmlns:xlink="http://www.w3.org/1999/xlink">
    <!-- Generator: Sketch 39.1 (31720) - http://www.bohemiancoding.com/sketch -->
    <title>Group 115</title>
    <desc>Created with Sketch.</desc>
    <defs></defs>
    <g id="Page-1" stroke="none" stroke-width="1" fill="none" fill-rule="evenodd">
        <g id="Group-115" transform="translate(-1.000000, 0.000000)">
            <g id="Group-110-Copy-2" stroke-linecap="square" stroke="#164591" opacity="0.3">
                <g id="Group-108-Copy-2">
                    <path d="M1.75,1.5 L1.75,28.5011578" id="Line"></path>
                    <path d="M2.5,28.5 L22.5,28.5" id="Line"></path>
                    <path d="M22.9773195,28.9773195 L28.5,34.5" id="Line"></path>
                    <path d="M28.5,34.5 L34.0226803,28.9773195" id="Line"></path>
                    <path d="M34.5,28.5 L53.5,28.5" id="Line"></path>
                    <path d="M54.25,28.5011559 L54.25,1.48214856" id="Line"></path>
                    <path d="M1.75,1.5 L54.2629598,1.5" id="Line"></path>
                </g>
            </g>
            <path d="M27.673853,19.1683943 L27.673853,21 L29.1822239,21 L29.1822239,19.1683943 L27.673853,19.1683943 Z M24.4955,12.4640262 L25.6267782,12.4640262 C25.6148069,12.0147622 25.6686768,11.6000632 25.7883894,11.2199167 C25.9081019,10.8397702 26.0876681,10.508587 26.3270932,10.226357 C26.5665184,9.94412704 26.8717809,9.72237825 27.2428899,9.56110398 C27.6139989,9.39982972 28.0389721,9.3191938 28.5178224,9.3191938 C28.8649889,9.3191938 29.1941935,9.37679088 29.5054462,9.49198679 C29.8166989,9.60718269 30.089041,9.76557468 30.3224805,9.96716751 C30.55592,10.1687603 30.7414717,10.413548 30.8791412,10.7015377 C31.0168106,10.9895275 31.0856443,11.3063115 31.0856443,11.6518992 C31.0856443,12.1011632 30.9749119,12.5101025 30.7534436,12.8787294 C30.5319753,13.2473563 30.2536478,13.5814194 29.9184526,13.8809288 C29.5353723,14.2149969 29.2091604,14.5145017 28.9398071,14.7794523 C28.6704539,15.0444029 28.4549744,15.3208689 28.2933625,15.6088587 C28.1317505,15.8968484 28.0150325,16.2193921 27.9432049,16.5764994 C27.8713774,16.9336067 27.8414497,17.3771043 27.853421,17.9070055 L28.9846991,17.9070055 C28.9966704,17.3771043 29.0206126,16.9710448 29.0565263,16.6888149 C29.0924401,16.4065849 29.1642666,16.167557 29.2720079,15.971724 C29.3797492,15.7758909 29.5443515,15.577181 29.7658198,15.3755881 C29.9872881,15.1739953 30.2835722,14.8946494 30.6546812,14.5375421 C31.109589,14.1228369 31.4836852,13.6908587 31.776981,13.2415947 C32.0702768,12.7923307 32.2169225,12.2451583 32.2169225,11.6000613 C32.2169225,11.0931993 32.1211539,10.643942 31.9296138,10.2522759 C31.7380737,9.86060988 31.4747099,9.52654677 31.1395147,9.2500766 C30.8043195,8.97360643 30.4182522,8.76337706 29.9813013,8.61938218 C29.5443504,8.4753873 29.0744856,8.40339094 28.5716928,8.40339094 C27.9252449,8.40339094 27.3506332,8.50130599 26.8478403,8.69713903 C26.3450475,8.89297206 25.9170815,9.16655823 25.5639294,9.51790574 C25.2107773,9.86925324 24.9444208,10.2954717 24.7648519,10.7965739 C24.5852831,11.2976761 24.4955,11.8534879 24.4955,12.4640262 L24.4955,12.4640262 Z" id="?" fill="#000000"></path>
        </g>
    </g>
</svg>