<?xml version="1.0" encoding="UTF-8" standalone="no"?>
<svg width="47px" height="30px" viewBox="0 0 47 30" version="1.1" xmlns="http://www.w3.org/2000/svg" xmlns:xlink="http://www.w3.org/1999/xlink">
    <!-- Generator: Sketch 39.1 (31720) - http://www.bohemiancoding.com/sketch -->
    <title>Group 118</title>
    <desc>Created with Sketch.</desc>
    <defs></defs>
    <g id="Page-1" stroke="none" stroke-width="1" fill="none" fill-rule="evenodd" stroke-linecap="square">
        <g id="Group-118" transform="translate(-1.000000, 0.000000)">
            <path d="M2.25,1.49888399 L2.25,29.5011578" id="Line-Copy-55" stroke="#164591" opacity="0.3"></path>
            <path d="M46.75,29.5011559 L46.75,1.49888399" id="Line-Copy-56" stroke="#164591" opacity="0.3"></path>
            <path d="M2.49712673,1 L46.5028419,1" id="Line-Copy-57" stroke="#164591" opacity="0.3"></path>
            <path d="M3,29.5 L46,29.5" id="Line-Copy-58" stroke="#164591" opacity="0.3"></path>
            <g id="Group-117" transform="translate(6.000000, 4.000000)" stroke="#212121">
                <path d="M20.8461538,0.566248754 L20.8461538,8.6577399" id="Line" transform="translate(20.846154, 4.611994) rotate(-180.000000) translate(-20.846154, -4.611994) "></path>
                <path d="M16.2307692,0.566248754 L16.2307692,8.6577399" id="Line-Copy-60" transform="translate(16.230769, 4.611994) rotate(-180.000000) translate(-16.230769, -4.611994) "></path>
                <path d="M20.5714286,8.70833333 L36.5384615,8.70833333" id="Line-Copy-59" transform="translate(28.692308, 8.708333) rotate(-180.000000) translate(-28.692308, -8.708333) "></path>
                <path d="M1.46153846,8.70833333 L16.5207707,8.70833333" id="Line-Copy-59" transform="translate(8.846154, 8.708333) rotate(-180.000000) translate(-8.846154, -8.708333) "></path>
                <path d="M24.5,6.50000016 L35.6153846,1.375" id="Line"></path>
                <path d="M1.96153845,6.5 L13,1.375" id="Line-Copy-61" transform="translate(7.230769, 4.375000) scale(-1, 1) translate(-7.230769, -4.375000) "></path>
                <path d="M20.8461538,13.3422601 L20.8461538,21.4337512" id="Line" transform="translate(20.846154, 17.388006) scale(1, -1) rotate(-180.000000) translate(-20.846154, -17.388006) "></path>
                <path d="M16.2307692,13.3422601 L16.2307692,21.4337512" id="Line-Copy-60" transform="translate(16.230769, 17.388006) scale(1, -1) rotate(-180.000000) translate(-16.230769, -17.388006) "></path>
                <path d="M20.5714286,13.2916667 L36.5384615,13.2916667" id="Line-Copy-59" transform="translate(28.692308, 13.291667) scale(1, -1) rotate(-180.000000) translate(-28.692308, -13.291667) "></path>
                <path d="M1.46153846,13.2916667 L16.5207707,13.2916667" id="Line-Copy-59" transform="translate(8.846154, 13.291667) scale(1, -1) rotate(-180.000000) translate(-8.846154, -13.291667) "></path>
                <path d="M24.5,20.6666668 L35.6153846,15.5416667" id="Line" transform="translate(30.384615, 18.083333) scale(1, -1) translate(-30.384615, -18.083333) "></path>
                <path d="M0.884615388,20.6666668 L11.9230769,15.5416667" id="Line-Copy-61" transform="translate(6.692308, 18.083333) scale(-1, -1) translate(-6.692308, -18.083333) "></path>
            </g>
        </g>
    </g>
</svg>