<?xml version="1.0" encoding="UTF-8"?>
<svg width="34px" height="34px" viewBox="0 0 34 34" version="1.1" xmlns="http://www.w3.org/2000/svg" xmlns:xlink="http://www.w3.org/1999/xlink">
    <!-- Generator: Sketch 40.3 (33839) - http://www.bohemiancoding.com/sketch -->
    <title>Group 20</title>
    <desc>Created with Sketch.</desc>
    <defs></defs>
    <g id="End-user-microsite" stroke="none" stroke-width="1" fill="none" fill-rule="evenodd">
        <g id="Front-Page-Copy-4" transform="translate(-788.000000, -620.000000)">
            <g id="Group-20" transform="translate(789.000000, 621.000000)">
                <ellipse id="Oval-Copy-5" stroke="#1761AA" fill="#F1F1F1" cx="16" cy="16" rx="16" ry="16"></ellipse>
                <g id="Group-14" transform="translate(7.000000, 7.000000)">
                    <path d="M15.3529412,9 L17.4705882,9" id="Line" stroke="#164591" stroke-linecap="square"></path>
                    <path d="M0.529411765,9 L2.64705882,9" id="Line-Copy" stroke="#164591" stroke-linecap="square"></path>
                    <g id="Group-15" transform="translate(8.588235, 9.000000) rotate(-270.000000) translate(-8.588235, -9.000000) translate(-0.411765, 7.000000)" stroke="#164591" stroke-linecap="square">
                        <path d="M15.3529412,1.58823529 L17.4705882,1.58823529" id="Line"></path>
                        <path d="M0.529411765,1.58823529 L2.64705882,1.58823529" id="Line-Copy"></path>
                    </g>
                    <g id="Group-15" transform="translate(8.708838, 8.708838) rotate(-225.000000) translate(-8.708838, -8.708838) translate(-0.291162, 6.708838)" stroke="#164591" stroke-linecap="square">
                        <path d="M15.3529412,1.58823529 L17.4705882,1.58823529" id="Line"></path>
                        <path d="M0.529411765,1.58823529 L2.64705882,1.58823529" id="Line-Copy"></path>
                    </g>
                    <g id="Group-15" transform="translate(9.291162, 8.708838) rotate(-135.000000) translate(-9.291162, -8.708838) translate(0.291162, 6.708838)" stroke="#164591" stroke-linecap="square">
                        <path d="M15.3529412,1.58823529 L17.4705882,1.58823529" id="Line"></path>
                        <path d="M0.529411765,1.58823529 L2.64705882,1.58823529" id="Line-Copy"></path>
                    </g>
                    <circle id="Oval-2-Copy-4" fill="#164591" opacity="0.3" cx="9" cy="9" r="1.58823529"></circle>
                </g>
            </g>
        </g>
    </g>
</svg>