<?xml version="1.0" encoding="UTF-8"?>
<svg width="200px" height="205px" viewBox="0 0 200 205" version="1.1" xmlns="http://www.w3.org/2000/svg" xmlns:xlink="http://www.w3.org/1999/xlink">
    <!-- Generator: Sketch 40.3 (33839) - http://www.bohemiancoding.com/sketch -->
    <title>Logo</title>
    <desc>Created with Sketch.</desc>
    <defs></defs>
    <g id="End-user-page" stroke="none" stroke-width="1" fill="none" fill-rule="evenodd" opacity="0.0904664855">
        <g id="Front-Page-Copy-5" transform="translate(-612.000000, -24.000000)" fill="#5DBDF9">
            <g id="Logo" transform="translate(612.000000, 24.000000)">
                <polygon id="Fill-1" points="0.32579448 51.3421664 39.1418452 51.3421664 39.1418452 204.138655 0.32579448 204.138655"></polygon>
                <path d="M152.134237,159.185642 C157.89842,151.075199 160.793451,140.537696 160.793451,127.62586 C160.793451,109.54833 156.167871,96.6237107 146.928034,88.8647849 C141.260891,84.1592585 134.671866,81.7993052 127.173899,81.7993052 C115.740955,81.7993052 107.364774,86.0846097 101.998455,94.6168715 C96.6709523,103.160318 93.9813235,113.752146 93.9813235,126.406737 C93.9813235,140.037584 96.7113857,150.953766 102.134311,159.118534 C107.570176,167.310464 115.807265,171.392848 126.900569,171.392848 C137.950205,171.392848 146.381375,167.324844 152.134237,159.185642 M160.442489,70.2983276 L160.442489,0.212347864 L199.25854,0.212347864 L199.591837,204.138655 L162.393121,204.138655 L162.059824,178.838604 C155.590483,187.599352 149.76484,193.985766 142.655034,197.961097 C135.487003,201.920449 126.45095,203.927289 115.839612,203.927289 C98.3643025,203.927289 83.5689179,196.943297 71.6394516,182.973715 C59.6970466,169.018514 53.6934975,151.102362 53.6934975,129.25402 C53.6934975,104.042305 59.5450171,84.1992036 71.2965765,69.7406948 C83.0481358,55.298164 98.9271353,48.0697085 118.602021,48.0697085 C127.646161,48.0697085 135.881633,50.0238201 142.923511,53.9560104 C149.950834,57.8897985 155.590483,63.328716 160.442489,70.2983276 Z" id="Fill-2"></path>
                <polygon id="Fill-5" points="0.32579448 22.5817333 126.477959 22.5817333 126.477959 0.212507644 0.32579448 0.212507644"></polygon>
            </g>
        </g>
    </g>
</svg>