<?xml version="1.0" encoding="UTF-8"?>
<svg width="199px" height="202px" viewBox="0 0 199 202" version="1.1" xmlns="http://www.w3.org/2000/svg" xmlns:xlink="http://www.w3.org/1999/xlink">
    <!-- Generator: Sketch 40.3 (33839) - http://www.bohemiancoding.com/sketch -->
    <title>Logo</title>
    <desc>Created with Sketch.</desc>
    <defs></defs>
    <g id="End-user-microsite" stroke="none" stroke-width="1" fill="none" fill-rule="evenodd" opacity="0.199569746">
        <g id="Front-Page-Copy-4" transform="translate(-1154.000000, -76.000000)" fill="#FFFFFF">
            <g id="Logo" transform="translate(1154.000000, 76.000000)">
                <polygon id="Fill-1" points="0.853260382 50.5310437 39.3727319 50.5310437 39.3727319 201.456989 0.853260382 201.456989"></polygon>
                <path d="M151.50179,156.670767 C157.221932,148.688457 160.094842,138.317429 160.094842,125.609579 C160.094842,107.817644 155.504605,95.0972131 146.335366,87.4608658 C140.711523,82.8296791 134.172843,80.5070092 126.732165,80.5070092 C115.386576,80.5070092 107.074395,84.7246129 101.749078,93.1220788 C96.4622802,101.530553 93.7932018,111.955047 93.7932018,124.409716 C93.7932018,137.825218 96.5024047,148.568942 101.883896,156.60472 C107.278227,164.667231 115.45238,168.685119 126.460924,168.685119 C137.426133,168.685119 145.792883,164.681384 151.50179,156.670767 M159.746562,69.1877283 L159.746562,0.208993113 L198.266034,0.208993113 L198.456284,201.456989 L161.541791,201.456989 L161.35154,176.013245 C154.931628,184.635587 149.150497,190.921106 142.095014,194.833633 C134.981752,198.730435 126.01474,200.705569 115.484479,200.705569 C98.1426922,200.705569 83.4603536,193.831913 71.622036,180.083028 C59.7708786,166.348296 53.8132003,148.71519 53.8132003,127.212016 C53.8132003,102.398605 59.6200107,82.8689931 71.2817807,68.6389052 C82.9435507,54.4245429 98.7012245,47.3102852 118.225782,47.3102852 C127.200819,47.3102852 135.373366,49.2335251 142.361441,53.1035932 C149.33507,56.9752339 154.931628,62.3282253 159.746562,69.1877283 Z" id="Fill-2"></path>
                <polygon id="Fill-5" points="0.853260382 22.2249787 126.041543 22.2249787 126.041543 0.209150369 0.853260382 0.209150369"></polygon>
            </g>
        </g>
    </g>
</svg>